Apfel Grotezk-Brukt.ufo
<glyph name="numbersign" format="2">
  <advance width="580"/>
  <unicode hex="0023"/>
  <outline>
    <contour>
      <point x="136" y="-32" type="line"/>
      <point x="214" y="-32" type="line"/>
      <point x="214" y="136" type="line"/>
      <point x="314" y="136" type="line" smooth="yes"/>
      <point x="326" y="136"/>
      <point x="336" y="142"/>
      <point x="342" y="151" type="curve" smooth="yes"/>
      <point x="347" y="159"/>
      <point x="356" y="164"/>
      <point x="366" y="164" type="curve" smooth="yes"/>
      <point x="382" y="164"/>
      <point x="394" y="152"/>
      <point x="394" y="136" type="curve" smooth="yes"/>
      <point x="394" y="126"/>
      <point x="389" y="117"/>
      <point x="381" y="112" type="curve" smooth="yes"/>
      <point x="372" y="106"/>
      <point x="366" y="96"/>
      <point x="366" y="84" type="curve" smooth="yes"/>
      <point x="366" y="-32" type="line"/>
      <point x="444" y="-32" type="line"/>
      <point x="444" y="136" type="line"/>
      <point x="540" y="136" type="line"/>
      <point x="540" y="212" type="line"/>
      <point x="496" y="212" type="line" smooth="yes"/>
      <point x="484" y="212"/>
      <point x="474" y="206"/>
      <point x="468" y="197" type="curve" smooth="yes"/>
      <point x="463" y="189"/>
      <point x="454" y="184"/>
      <point x="444" y="184" type="curve" smooth="yes"/>
      <point x="428" y="184"/>
      <point x="416" y="196"/>
      <point x="416" y="212" type="curve" smooth="yes"/>
      <point x="416" y="222"/>
      <point x="421" y="231"/>
      <point x="429" y="236" type="curve" smooth="yes"/>
      <point x="438" y="242"/>
      <point x="444" y="252"/>
      <point x="444" y="264" type="curve" smooth="yes"/>
      <point x="444" y="382" type="line"/>
      <point x="540" y="382" type="line"/>
      <point x="540" y="456" type="line"/>
      <point x="496" y="456" type="line" smooth="yes"/>
      <point x="484" y="456"/>
      <point x="474" y="450"/>
      <point x="468" y="441" type="curve" smooth="yes"/>
      <point x="463" y="433"/>
      <point x="454" y="428"/>
      <point x="444" y="428" type="curve" smooth="yes"/>
      <point x="428" y="428"/>
      <point x="416" y="440"/>
      <point x="416" y="456" type="curve" smooth="yes"/>
      <point x="416" y="466"/>
      <point x="421" y="475"/>
      <point x="429" y="480" type="curve" smooth="yes"/>
      <point x="438" y="486"/>
      <point x="444" y="496"/>
      <point x="444" y="508" type="curve" smooth="yes"/>
      <point x="444" y="618" type="line"/>
      <point x="366" y="618" type="line"/>
      <point x="366" y="456" type="line"/>
      <point x="266" y="456" type="line" smooth="yes"/>
      <point x="254" y="456"/>
      <point x="244" y="450"/>
      <point x="238" y="441" type="curve" smooth="yes"/>
      <point x="233" y="433"/>
      <point x="224" y="428"/>
      <point x="214" y="428" type="curve" smooth="yes"/>
      <point x="198" y="428"/>
      <point x="186" y="440"/>
      <point x="186" y="456" type="curve" smooth="yes"/>
      <point x="186" y="466"/>
      <point x="191" y="475"/>
      <point x="199" y="480" type="curve" smooth="yes"/>
      <point x="208" y="486"/>
      <point x="214" y="496"/>
      <point x="214" y="508" type="curve" smooth="yes"/>
      <point x="214" y="618" type="line"/>
      <point x="136" y="618" type="line"/>
      <point x="136" y="456" type="line"/>
      <point x="40" y="456" type="line"/>
      <point x="40" y="382" type="line"/>
      <point x="84" y="382" type="line" smooth="yes"/>
      <point x="96" y="382"/>
      <point x="106" y="388"/>
      <point x="112" y="397" type="curve" smooth="yes"/>
      <point x="117" y="405"/>
      <point x="126" y="410"/>
      <point x="136" y="410" type="curve" smooth="yes"/>
      <point x="152" y="410"/>
      <point x="164" y="398"/>
      <point x="164" y="382" type="curve" smooth="yes"/>
      <point x="164" y="372"/>
      <point x="159" y="363"/>
      <point x="151" y="358" type="curve" smooth="yes"/>
      <point x="142" y="352"/>
      <point x="136" y="342"/>
      <point x="136" y="330" type="curve" smooth="yes"/>
      <point x="136" y="212" type="line"/>
      <point x="40" y="212" type="line"/>
      <point x="40" y="136" type="line"/>
      <point x="84" y="136" type="line" smooth="yes"/>
      <point x="96" y="136"/>
      <point x="106" y="142"/>
      <point x="112" y="151" type="curve" smooth="yes"/>
      <point x="117" y="159"/>
      <point x="126" y="164"/>
      <point x="136" y="164" type="curve" smooth="yes"/>
      <point x="152" y="164"/>
      <point x="164" y="152"/>
      <point x="164" y="136" type="curve" smooth="yes"/>
      <point x="164" y="126"/>
      <point x="159" y="117"/>
      <point x="151" y="112" type="curve" smooth="yes"/>
      <point x="142" y="106"/>
      <point x="136" y="96"/>
      <point x="136" y="84" type="curve" smooth="yes"/>
    </contour>
    <contour>
      <point x="214" y="184" type="curve" smooth="yes"/>
      <point x="198" y="184"/>
      <point x="186" y="196"/>
      <point x="186" y="212" type="curve" smooth="yes"/>
      <point x="186" y="222"/>
      <point x="191" y="231"/>
      <point x="199" y="236" type="curve" smooth="yes"/>
      <point x="208" y="242"/>
      <point x="214" y="252"/>
      <point x="214" y="264" type="curve" smooth="yes"/>
      <point x="214" y="382" type="line"/>
      <point x="314" y="382" type="line" smooth="yes"/>
      <point x="326" y="382"/>
      <point x="336" y="388"/>
      <point x="342" y="397" type="curve" smooth="yes"/>
      <point x="347" y="405"/>
      <point x="356" y="410"/>
      <point x="366" y="410" type="curve" smooth="yes"/>
      <point x="382" y="410"/>
      <point x="394" y="398"/>
      <point x="394" y="382" type="curve" smooth="yes"/>
      <point x="394" y="372"/>
      <point x="389" y="363"/>
      <point x="381" y="358" type="curve" smooth="yes"/>
      <point x="372" y="352"/>
      <point x="366" y="342"/>
      <point x="366" y="330" type="curve" smooth="yes"/>
      <point x="366" y="212" type="line"/>
      <point x="266" y="212" type="line" smooth="yes"/>
      <point x="254" y="212"/>
      <point x="244" y="206"/>
      <point x="238" y="197" type="curve" smooth="yes"/>
      <point x="233" y="189"/>
      <point x="224" y="184"/>
    </contour>
  </outline>
</glyph>
<glyph name="dollar" format="2">
  <advance width="572"/>
  <unicode hex="0024"/>
  <outline>
    <contour>
      <point x="257" y="-108" type="line"/>
      <point x="335" y="-108" type="line"/>
      <point x="335" y="-10" type="line"/>
      <point x="456" y="1"/>
      <point x="536" y="74"/>
      <point x="536" y="176" type="curve" smooth="yes"/>
      <point x="536" y="273"/>
      <point x="465" y="320"/>
      <point x="384" y="354" type="curve" smooth="yes"/>
      <point x="372" y="359"/>
      <point x="362" y="358"/>
      <point x="354" y="352" type="curve" smooth="yes"/>
      <point x="349" y="348"/>
      <point x="342" y="345"/>
      <point x="335" y="345" type="curve" smooth="yes"/>
      <point x="319" y="345"/>
      <point x="307" y="357"/>
      <point x="307" y="373" type="curve" smooth="yes"/>
      <point x="307" y="383"/>
      <point x="312" y="392"/>
      <point x="320" y="397" type="curve" smooth="yes"/>
      <point x="329" y="403"/>
      <point x="335" y="413"/>
      <point x="335" y="425" type="curve" smooth="yes"/>
      <point x="335" y="571" type="line"/>
      <point x="383" y="553"/>
      <point x="414" y="512"/>
      <point x="420" y="462" type="curve"/>
      <point x="512" y="488" type="line"/>
      <point x="504" y="558"/>
      <point x="459" y="613"/>
      <point x="393" y="641" type="curve" smooth="yes"/>
      <point x="376" y="648"/>
      <point x="365" y="647"/>
      <point x="354" y="637" type="curve" smooth="yes"/>
      <point x="349" y="633"/>
      <point x="342" y="630"/>
      <point x="335" y="630" type="curve" smooth="yes"/>
      <point x="319" y="630"/>
      <point x="307" y="642"/>
      <point x="307" y="658" type="curve" smooth="yes"/>
      <point x="307" y="668"/>
      <point x="312" y="677"/>
      <point x="320" y="682" type="curve" smooth="yes"/>
      <point x="329" y="688"/>
      <point x="335" y="698"/>
      <point x="335" y="710" type="curve" smooth="yes"/>
      <point x="335" y="750" type="line"/>
      <point x="257" y="750" type="line"/>
      <point x="257" y="661" type="line"/>
      <point x="147" y="653"/>
      <point x="64" y="589"/>
      <point x="64" y="492" type="curve" smooth="yes"/>
      <point x="64" y="405"/>
      <point x="130" y="363"/>
      <point x="207" y="332" type="curve" smooth="yes"/>
      <point x="219" y="327"/>
      <point x="230" y="328"/>
      <point x="238" y="334" type="curve" smooth="yes"/>
      <point x="243" y="338"/>
      <point x="250" y="341"/>
      <point x="257" y="341" type="curve" smooth="yes"/>
      <point x="273" y="341"/>
      <point x="285" y="329"/>
      <point x="285" y="313" type="curve" smooth="yes"/>
      <point x="285" y="303"/>
      <point x="280" y="294"/>
      <point x="272" y="289" type="curve" smooth="yes"/>
      <point x="263" y="283"/>
      <point x="257" y="273"/>
      <point x="257" y="261" type="curve" smooth="yes"/>
      <point x="257" y="75" type="line"/>
      <point x="182" y="92"/>
      <point x="131" y="151"/>
      <point x="128" y="228" type="curve"/>
      <point x="36" y="204" type="line"/>
      <point x="42" y="108"/>
      <point x="104" y="34"/>
      <point x="198" y="4" type="curve" smooth="yes"/>
      <point x="213" y="-1"/>
      <point x="227" y="2"/>
      <point x="238" y="12" type="curve" smooth="yes"/>
      <point x="243" y="16"/>
      <point x="250" y="19"/>
      <point x="257" y="19" type="curve" smooth="yes"/>
      <point x="273" y="19"/>
      <point x="285" y="7"/>
      <point x="285" y="-9" type="curve" smooth="yes"/>
      <point x="285" y="-19"/>
      <point x="280" y="-28"/>
      <point x="272" y="-33" type="curve" smooth="yes"/>
      <point x="263" y="-39"/>
      <point x="257" y="-49"/>
      <point x="257" y="-61" type="curve" smooth="yes"/>
    </contour>
    <contour>
      <point x="335" y="45" type="curve" smooth="yes"/>
      <point x="319" y="45"/>
      <point x="307" y="57"/>
      <point x="307" y="73" type="curve" smooth="yes"/>
      <point x="307" y="83"/>
      <point x="312" y="92"/>
      <point x="320" y="97" type="curve" smooth="yes"/>
      <point x="329" y="103"/>
      <point x="335" y="113"/>
      <point x="335" y="125" type="curve" smooth="yes"/>
      <point x="335" y="285" type="line"/>
      <point x="396" y="260"/>
      <point x="444" y="231"/>
      <point x="444" y="176" type="curve" smooth="yes"/>
      <point x="444" y="136"/>
      <point x="417" y="103"/>
      <point x="377" y="85" type="curve" smooth="yes"/>
      <point x="370" y="82"/>
      <point x="365" y="75"/>
      <point x="362" y="65" type="curve" smooth="yes"/>
      <point x="359" y="53"/>
      <point x="348" y="45"/>
    </contour>
    <contour>
      <point x="257" y="401" type="line"/>
      <point x="199" y="424"/>
      <point x="156" y="450"/>
      <point x="156" y="496" type="curve" smooth="yes"/>
      <point x="156" y="530"/>
      <point x="179" y="556"/>
      <point x="213" y="570" type="curve" smooth="yes"/>
      <point x="220" y="573"/>
      <point x="227" y="579"/>
      <point x="230" y="589" type="curve" smooth="yes"/>
      <point x="233" y="601"/>
      <point x="244" y="609"/>
      <point x="257" y="609" type="curve" smooth="yes"/>
      <point x="273" y="609"/>
      <point x="285" y="597"/>
      <point x="285" y="581" type="curve" smooth="yes"/>
      <point x="285" y="571"/>
      <point x="280" y="562"/>
      <point x="272" y="557" type="curve" smooth="yes"/>
      <point x="263" y="551"/>
      <point x="257" y="541"/>
      <point x="257" y="529" type="curve" smooth="yes"/>
    </contour>
    <component base="inkstem_S" yScale="-1" xOffset="-6" yOffset="412"/>
    <component base="inkcurve_S" xOffset="12" yOffset="220"/>
    <component base="inkcurve_S" xScale="-1" xOffset="588" yOffset="-104"/>
    <component base="inkstem_S" yScale="-1" xOffset="348" yOffset="778"/>
  </outline>
</glyph>
<glyph name="ampersand" format="2">
  <advance width="612"/>
  <unicode hex="0026"/>
  <outline>
    <contour>
      <point x="274" y="-12" type="curve" smooth="yes"/>
      <point x="404" y="-12"/>
      <point x="490" y="72"/>
      <point x="490" y="180" type="curve" smooth="yes"/>
      <point x="490" y="307" type="line"/>
      <point x="590" y="307" type="line"/>
      <point x="590" y="385" type="line"/>
      <point x="542" y="385" type="line" smooth="yes"/>
      <point x="530" y="385"/>
      <point x="520" y="379"/>
      <point x="514" y="370" type="curve" smooth="yes"/>
      <point x="509" y="362"/>
      <point x="500" y="357"/>
      <point x="490" y="357" type="curve" smooth="yes"/>
      <point x="474" y="357"/>
      <point x="462" y="369"/>
      <point x="462" y="385" type="curve" smooth="yes"/>
      <point x="462" y="395"/>
      <point x="467" y="404"/>
      <point x="475" y="409" type="curve" smooth="yes"/>
      <point x="484" y="415"/>
      <point x="490" y="425"/>
      <point x="490" y="437" type="curve" smooth="yes"/>
      <point x="490" y="512" type="line"/>
      <point x="414" y="512" type="line"/>
      <point x="414" y="447" type="line" smooth="yes"/>
      <point x="414" y="411"/>
      <point x="391" y="385"/>
      <point x="360" y="385" type="curve" smooth="yes"/>
      <point x="270" y="385" type="line" smooth="yes"/>
      <point x="204" y="385"/>
      <point x="156" y="427"/>
      <point x="156" y="486" type="curve" smooth="yes"/>
      <point x="156" y="545"/>
      <point x="204" y="584"/>
      <point x="270" y="584" type="curve" smooth="yes"/>
      <point x="303" y="584"/>
      <point x="342" y="572"/>
      <point x="362" y="556" type="curve"/>
      <point x="386" y="636" type="line"/>
      <point x="364" y="651"/>
      <point x="316" y="662"/>
      <point x="272" y="662" type="curve" smooth="yes"/>
      <point x="157" y="662"/>
      <point x="74" y="589"/>
      <point x="74" y="494" type="curve" smooth="yes"/>
      <point x="74" y="449"/>
      <point x="93" y="407"/>
      <point x="129" y="376" type="curve" smooth="yes"/>
      <point x="141" y="366"/>
      <point x="149" y="366"/>
      <point x="158" y="372" type="curve" smooth="yes"/>
      <point x="162" y="375"/>
      <point x="167" y="376"/>
      <point x="173" y="376" type="curve" smooth="yes"/>
      <point x="189" y="376"/>
      <point x="201" y="364"/>
      <point x="201" y="348" type="curve" smooth="yes"/>
      <point x="201" y="332"/>
      <point x="189" y="320"/>
      <point x="173" y="320" type="curve" smooth="yes"/>
      <point x="166" y="320"/>
      <point x="159" y="323"/>
      <point x="154" y="327" type="curve" smooth="yes"/>
      <point x="148" y="332"/>
      <point x="140" y="333"/>
      <point x="132" y="328" type="curve" smooth="yes"/>
      <point x="78" y="294"/>
      <point x="48" y="242"/>
      <point x="48" y="180" type="curve" smooth="yes"/>
      <point x="48" y="67"/>
      <point x="147" y="-12"/>
    </contour>
    <contour>
      <point x="270" y="70" type="curve" smooth="yes"/>
      <point x="191" y="70"/>
      <point x="134" y="120"/>
      <point x="134" y="188" type="curve" smooth="yes"/>
      <point x="134" y="254"/>
      <point x="189" y="307"/>
      <point x="270" y="307" type="curve" smooth="yes"/>
      <point x="358" y="307" type="line" smooth="yes"/>
      <point x="370" y="307"/>
      <point x="380" y="313"/>
      <point x="386" y="322" type="curve" smooth="yes"/>
      <point x="391" y="330"/>
      <point x="400" y="335"/>
      <point x="410" y="335" type="curve" smooth="yes"/>
      <point x="426" y="335"/>
      <point x="438" y="323"/>
      <point x="438" y="307" type="curve" smooth="yes"/>
      <point x="438" y="297"/>
      <point x="433" y="288"/>
      <point x="425" y="283" type="curve" smooth="yes"/>
      <point x="416" y="277"/>
      <point x="410" y="267"/>
      <point x="410" y="255" type="curve" smooth="yes"/>
      <point x="410" y="188" type="line" smooth="yes"/>
      <point x="410" y="120"/>
      <point x="351" y="70"/>
    </contour>
    <component base="inkcurve_L" yScale="-1" xOffset="-9" yOffset="462"/>
    <component base="inkcurve_L" xScale="0" xyScale="1" yScale="0" yxScale="1" xOffset="-4" yOffset="-72"/>
    <component base="inkstem_S" yScale="-1" xOffset="16" yOffset="744"/>
    <component base="inkcurve_L" xScale="0" xyScale="-1" yScale="0" yxScale="1" xOffset="-6" yOffset="724"/>
    <component base="inkstem_S" xOffset="350" yOffset="-62"/>
  </outline>
</glyph>
<glyph name="parenleft" format="2">
  <advance width="268"/>
  <unicode hex="0028"/>
  <outline>
    <contour>
      <point x="148" y="-212" type="curve"/>
      <point x="224" y="-196" type="line"/>
      <point x="169" y="-74"/>
      <point x="140" y="73"/>
      <point x="140" y="238" type="curve" smooth="yes"/>
      <point x="140" y="401"/>
      <point x="168" y="547"/>
      <point x="220" y="668" type="curve"/>
      <point x="146" y="684" type="line"/>
      <point x="82" y="548"/>
      <point x="48" y="394"/>
      <point x="48" y="240" type="curve" smooth="yes"/>
      <point x="48" y="88"/>
      <point x="83" y="-68"/>
    </contour>
    <component base="inkstem_S" xOffset="60" yOffset="372"/>
    <component base="inkstem_S" xOffset="64" yOffset="-402"/>
    <component base="inkstem_M" xScale="0.9888" xyScale="0.149" yScale="-0.9888" yxScale="0.149" xOffset="-34" yOffset="342"/>
    <component base="inkstem_L" xScale="-0.9898" xyScale="0.1427" yScale="-0.9898" yxScale="-0.1427" xOffset="248" yOffset="680"/>
  </outline>
</glyph>
<glyph name="asterisk" format="2">
  <advance width="356"/>
  <unicode hex="002A"/>
  <outline>
    <contour>
      <point x="140" y="368" type="line"/>
      <point x="216" y="368" type="line"/>
      <point x="204" y="449" type="line" smooth="yes"/>
      <point x="202" y="460"/>
      <point x="196" y="461"/>
      <point x="187" y="464" type="curve" smooth="yes"/>
      <point x="177" y="468"/>
      <point x="170" y="478"/>
      <point x="170" y="490" type="curve" smooth="yes"/>
      <point x="170" y="506"/>
      <point x="182" y="518"/>
      <point x="198" y="518" type="curve" smooth="yes"/>
      <point x="214" y="518"/>
      <point x="226" y="506"/>
      <point x="226" y="490" type="curve" smooth="yes"/>
      <point x="226" y="481"/>
      <point x="220" y="473"/>
      <point x="229" y="465" type="curve"/>
      <point x="294" y="413" type="line"/>
      <point x="332" y="479" type="line"/>
      <point x="217" y="524" type="line"/>
      <point x="332" y="569" type="line"/>
      <point x="294" y="635" type="line"/>
      <point x="229" y="583" type="line" smooth="yes"/>
      <point x="220" y="575"/>
      <point x="226" y="567"/>
      <point x="226" y="558" type="curve" smooth="yes"/>
      <point x="226" y="542"/>
      <point x="214" y="530"/>
      <point x="198" y="530" type="curve" smooth="yes"/>
      <point x="182" y="530"/>
      <point x="170" y="542"/>
      <point x="170" y="558" type="curve" smooth="yes"/>
      <point x="170" y="570"/>
      <point x="177" y="580"/>
      <point x="187" y="584" type="curve" smooth="yes"/>
      <point x="196" y="587"/>
      <point x="202" y="588"/>
      <point x="204" y="599" type="curve" smooth="yes"/>
      <point x="216" y="680" type="line"/>
      <point x="140" y="680" type="line"/>
      <point x="158" y="558" type="line"/>
      <point x="62" y="635" type="line"/>
      <point x="24" y="569" type="line"/>
      <point x="98" y="540" type="line" smooth="yes"/>
      <point x="108" y="536"/>
      <point x="113" y="538"/>
      <point x="119" y="544" type="curve" smooth="yes"/>
      <point x="124" y="549"/>
      <point x="131" y="552"/>
      <point x="139" y="552" type="curve" smooth="yes"/>
      <point x="155" y="552"/>
      <point x="167" y="540"/>
      <point x="167" y="524" type="curve" smooth="yes"/>
      <point x="167" y="508"/>
      <point x="155" y="496"/>
      <point x="139" y="496" type="curve" smooth="yes"/>
      <point x="131" y="496"/>
      <point x="124" y="499"/>
      <point x="119" y="504" type="curve" smooth="yes"/>
      <point x="113" y="510"/>
      <point x="108" y="512"/>
      <point x="98" y="508" type="curve" smooth="yes"/>
      <point x="24" y="479" type="line"/>
      <point x="62" y="413" type="line"/>
      <point x="158" y="490" type="line"/>
    </contour>
  </outline>
</glyph>
<glyph name="plus" format="2">
  <advance width="600"/>
  <unicode hex="002B"/>
  <outline>
    <contour>
      <point x="258" y="94" type="line"/>
      <point x="342" y="94" type="line"/>
      <point x="342" y="278" type="line"/>
      <point x="520" y="278" type="line"/>
      <point x="520" y="362" type="line"/>
      <point x="394" y="362" type="line" smooth="yes"/>
      <point x="382" y="362"/>
      <point x="372" y="356"/>
      <point x="366" y="347" type="curve" smooth="yes"/>
      <point x="361" y="339"/>
      <point x="352" y="334"/>
      <point x="342" y="334" type="curve" smooth="yes"/>
      <point x="326" y="334"/>
      <point x="314" y="346"/>
      <point x="314" y="362" type="curve" smooth="yes"/>
      <point x="314" y="372"/>
      <point x="319" y="381"/>
      <point x="327" y="386" type="curve" smooth="yes"/>
      <point x="336" y="392"/>
      <point x="342" y="402"/>
      <point x="342" y="414" type="curve" smooth="yes"/>
      <point x="342" y="542" type="line"/>
      <point x="258" y="542" type="line"/>
      <point x="258" y="362" type="line"/>
      <point x="80" y="362" type="line"/>
      <point x="80" y="278" type="line"/>
      <point x="206" y="278" type="line" smooth="yes"/>
      <point x="218" y="278"/>
      <point x="228" y="284"/>
      <point x="234" y="293" type="curve" smooth="yes"/>
      <point x="239" y="301"/>
      <point x="248" y="306"/>
      <point x="258" y="306" type="curve" smooth="yes"/>
      <point x="274" y="306"/>
      <point x="286" y="294"/>
      <point x="286" y="278" type="curve" smooth="yes"/>
      <point x="286" y="268"/>
      <point x="281" y="259"/>
      <point x="273" y="254" type="curve" smooth="yes"/>
      <point x="264" y="248"/>
      <point x="258" y="238"/>
      <point x="258" y="226" type="curve" smooth="yes"/>
    </contour>
    <component base="inkstem_S" xScale="0" xyScale="-1" yScale="0" yxScale="1" xOffset="-114" yOffset="420"/>
    <component base="inkstem_S" xScale="0" xyScale="-1" yScale="0" yxScale="1" xOffset="214" yOffset="420"/>
    <component base="inkstem_S" xScale="0" xyScale="-1" yScale="0" yxScale="1" xOffset="50" yOffset="586"/>
  </outline>
</glyph>
<glyph name="comma" format="2">
  <advance width="204"/>
  <unicode hex="002C"/>
  <outline>
    <contour>
      <point x="116" y="-104"/>
      <point x="164" y="-42"/>
      <point x="164" y="30" type="curve" smooth="yes"/>
      <point x="164" y="85"/>
      <point x="134" y="124"/>
      <point x="92" y="124" type="curve" smooth="yes"/>
      <point x="57" y="124"/>
      <point x="32" y="97"/>
      <point x="32" y="60" type="curve" smooth="yes"/>
      <point x="32" y="19"/>
      <point x="64" y="-8"/>
      <point x="108" y="-4" type="curve"/>
      <point x="108" y="-40"/>
      <point x="72" y="-56"/>
      <point x="36" y="-48" type="curve"/>
      <point x="32" y="-92" type="line"/>
    </contour>
    <component base="inkstem_S" xOffset="-4" yOffset="-192"/>
  </outline>
</glyph>
<glyph name="hyphen" format="2">
  <advance width="396"/>
  <unicode hex="002D"/>
  <outline>
    <contour>
      <point x="24" y="219" type="line"/>
      <point x="372" y="219" type="line"/>
      <point x="372" y="297" type="line"/>
      <point x="24" y="297" type="line"/>
    </contour>
    <component base="inkstem_S" xScale="0" xyScale="-1" yScale="0" yxScale="1" xOffset="-170" yOffset="358"/>
    <component base="inkstem_S" xScale="0" xyScale="-1" yScale="0" yxScale="1" xOffset="66" yOffset="358"/>
  </outline>
</glyph>
<glyph name="period" format="2">
  <advance width="200"/>
  <unicode hex="002E"/>
  <outline>
    <contour>
      <point x="96" y="-8" type="curve" smooth="yes"/>
      <point x="133" y="-8"/>
      <point x="160" y="20"/>
      <point x="160" y="58" type="curve" smooth="yes"/>
      <point x="160" y="96"/>
      <point x="133" y="124"/>
      <point x="96" y="124" type="curve" smooth="yes"/>
      <point x="59" y="124"/>
      <point x="32" y="96"/>
      <point x="32" y="58" type="curve" smooth="yes"/>
      <point x="32" y="20"/>
      <point x="59" y="-8"/>
    </contour>
    <component base="inkstem_S" xOffset="-4" yOffset="-192"/>
  </outline>
</glyph>
<glyph name="slash" format="2">
  <advance width="244"/>
  <unicode hex="002F"/>
  <outline>
    <contour>
      <point x="72" y="-204" type="line"/>
      <point x="240" y="672" type="line"/>
      <point x="162" y="684" type="line"/>
      <point x="-8" y="-192" type="line"/>
    </contour>
    <component base="inkstem_L" xScale="-0.9817" xyScale="0.1905" yScale="-0.9817" yxScale="-0.1905" xOffset="249" yOffset="398"/>
    <component base="inkstem_M" xScale="-0.9866" xyScale="0.1631" yScale="-0.9866" yxScale="-0.1631" xOffset="192" yOffset="141"/>
    <component base="inkstem_S" xOffset="90" yOffset="373"/>
    <component base="inkstem_M" xScale="-0.9802" xyScale="0.1979" yScale="-0.9802" yxScale="-0.1979" xOffset="304" yOffset="671"/>
  </outline>
</glyph>
<glyph name="zero" format="2">
  <advance width="632"/>
  <unicode hex="0030"/>
  <outline>
    <contour>
      <point x="316" y="-12" type="curve" smooth="yes"/>
      <point x="478" y="-12"/>
      <point x="592" y="128"/>
      <point x="592" y="325" type="curve" smooth="yes"/>
      <point x="592" y="522"/>
      <point x="478" y="662"/>
      <point x="316" y="662" type="curve" smooth="yes"/>
      <point x="154" y="662"/>
      <point x="40" y="522"/>
      <point x="40" y="325" type="curve" smooth="yes"/>
      <point x="40" y="128"/>
      <point x="154" y="-12"/>
    </contour>
    <contour>
      <point x="316" y="72" type="curve" smooth="yes"/>
      <point x="206" y="72"/>
      <point x="128" y="177"/>
      <point x="128" y="326" type="curve" smooth="yes"/>
      <point x="128" y="475"/>
      <point x="206" y="580"/>
      <point x="316" y="580" type="curve" smooth="yes"/>
      <point x="426" y="580"/>
      <point x="504" y="475"/>
      <point x="504" y="326" type="curve" smooth="yes"/>
      <point x="504" y="177"/>
      <point x="426" y="72"/>
    </contour>
    <component base="inkstem_S" xOffset="42" yOffset="-128"/>
    <component base="inkcurve_L" xScale="0" xyScale="1" yScale="0" yxScale="-1" xOffset="594" yOffset="-70"/>
    <component base="inkcurve_L" xOffset="-17" yOffset="47"/>
    <component base="inkstem_S" xOffset="388" yOffset="-128"/>
    <component base="inkstem_S" yScale="-1" xOffset="44" yOffset="780"/>
    <component base="inkcurve_L" xScale="-1" xOffset="648" yOffset="48"/>
    <component base="inkcurve_L" xScale="0" xyScale="-1" yScale="0" yxScale="-1" xOffset="594" yOffset="722"/>
    <component base="inkstem_S" yScale="-1" xOffset="387" yOffset="780"/>
  </outline>
</glyph>
<glyph name="one" format="2">
  <advance width="288"/>
  <unicode hex="0031"/>
  <outline>
    <contour>
      <point x="140" y="0" type="line"/>
      <point x="224" y="0" type="line"/>
      <point x="224" y="650" type="line"/>
      <point x="144" y="650" type="line"/>
      <point x="144" y="608" type="line" smooth="yes"/>
      <point x="144" y="552"/>
      <point x="106" y="512"/>
      <point x="52" y="512" type="curve" smooth="yes"/>
      <point x="8" y="512" type="line"/>
      <point x="8" y="434" type="line"/>
      <point x="88" y="434" type="line" smooth="yes"/>
      <point x="100" y="434"/>
      <point x="110" y="440"/>
      <point x="116" y="449" type="curve" smooth="yes"/>
      <point x="121" y="457"/>
      <point x="130" y="462"/>
      <point x="140" y="462" type="curve" smooth="yes"/>
      <point x="156" y="462"/>
      <point x="168" y="450"/>
      <point x="168" y="434" type="curve" smooth="yes"/>
      <point x="168" y="424"/>
      <point x="163" y="415"/>
      <point x="155" y="410" type="curve" smooth="yes"/>
      <point x="146" y="404"/>
      <point x="140" y="394"/>
      <point x="140" y="382" type="curve" smooth="yes"/>
    </contour>
    <component base="inkstem_S" xOffset="82" yOffset="-194"/>
    <component base="inkstem_S" xOffset="82" yOffset="344"/>
    <component base="inkstem_L" xOffset="82" yOffset="-80"/>
  </outline>
</glyph>
<glyph name="two" format="2">
  <advance width="496"/>
  <unicode hex="0032"/>
  <outline>
    <contour>
      <point x="36" y="0" type="line"/>
      <point x="464" y="0" type="line"/>
      <point x="464" y="86" type="line"/>
      <point x="174" y="86" type="line" smooth="yes"/>
      <point x="165" y="86"/>
      <point x="156" y="81"/>
      <point x="153" y="73" type="curve" smooth="yes"/>
      <point x="149" y="64"/>
      <point x="139" y="58"/>
      <point x="128" y="58" type="curve" smooth="yes"/>
      <point x="112" y="58"/>
      <point x="100" y="70"/>
      <point x="100" y="86" type="curve" smooth="yes"/>
      <point x="100" y="99"/>
      <point x="108" y="110"/>
      <point x="120" y="113" type="curve" smooth="yes"/>
      <point x="130" y="116"/>
      <point x="135" y="115"/>
      <point x="142" y="127" type="curve" smooth="yes"/>
      <point x="166" y="167"/>
      <point x="221" y="204"/>
      <point x="293" y="238" type="curve" smooth="yes"/>
      <point x="385" y="282"/>
      <point x="462" y="350"/>
      <point x="462" y="460" type="curve" smooth="yes"/>
      <point x="462" y="580"/>
      <point x="376" y="662"/>
      <point x="256" y="662" type="curve" smooth="yes"/>
      <point x="119" y="662"/>
      <point x="30" y="560"/>
      <point x="46" y="400" type="curve"/>
      <point x="136" y="412" type="line"/>
      <point x="120" y="504"/>
      <point x="176" y="580"/>
      <point x="260" y="580" type="curve" smooth="yes"/>
      <point x="330" y="580"/>
      <point x="380" y="527"/>
      <point x="380" y="452" type="curve" smooth="yes"/>
      <point x="380" y="360"/>
      <point x="304" y="320"/>
      <point x="232" y="288" type="curve" smooth="yes"/>
      <point x="105" y="232"/>
      <point x="36" y="160"/>
      <point x="36" y="20" type="curve" smooth="yes"/>
    </contour>
    <component base="inkstem_L" xScale="0" xyScale="-1" yScale="0" yxScale="1" xOffset="40" yOffset="143"/>
    <component base="inkcurve_L" xScale="-1" xOffset="522" yOffset="178"/>
    <component base="inkcurve_L" xScale="0" xyScale="-1" yScale="0" yxScale="-1" xOffset="538" yOffset="721"/>
    <component base="inkstem_S" xOffset="-9" yOffset="213"/>
    <component base="inkstem_M" xScale="0.4258" xyScale="-0.9048" yScale="0.4258" yxScale="0.9048" xOffset="-6" yOffset="248"/>
    <component base="inkstem_S" xOffset="54" yOffset="-52"/>
  </outline>
</glyph>
<glyph name="three" format="2">
  <advance width="532"/>
  <unicode hex="0033"/>
  <outline>
    <contour>
      <point x="264" y="-12" type="curve" smooth="yes"/>
      <point x="397" y="-12"/>
      <point x="492" y="78"/>
      <point x="492" y="204" type="curve" smooth="yes"/>
      <point x="492" y="303"/>
      <point x="433" y="379"/>
      <point x="346" y="406" type="curve" smooth="yes"/>
      <point x="338" y="408"/>
      <point x="329" y="405"/>
      <point x="322" y="397" type="curve" smooth="yes"/>
      <point x="317" y="391"/>
      <point x="309" y="387"/>
      <point x="300" y="387" type="curve" smooth="yes"/>
      <point x="284" y="387"/>
      <point x="272" y="399"/>
      <point x="272" y="415" type="curve" smooth="yes"/>
      <point x="272" y="431"/>
      <point x="284" y="443"/>
      <point x="300" y="443" type="curve" smooth="yes"/>
      <point x="310" y="443"/>
      <point x="323" y="435"/>
      <point x="335" y="446" type="curve" smooth="yes"/>
      <point x="472" y="568" type="line"/>
      <point x="472" y="650" type="line"/>
      <point x="64" y="650" type="line"/>
      <point x="64" y="570" type="line"/>
      <point x="322" y="570" type="line" smooth="yes"/>
      <point x="330" y="570"/>
      <point x="339" y="576"/>
      <point x="344" y="585" type="curve" smooth="yes"/>
      <point x="349" y="593"/>
      <point x="358" y="598"/>
      <point x="368" y="598" type="curve" smooth="yes"/>
      <point x="384" y="598"/>
      <point x="396" y="586"/>
      <point x="396" y="570" type="curve" smooth="yes"/>
      <point x="396" y="554"/>
      <point x="384" y="542"/>
      <point x="368" y="542" type="curve" smooth="yes"/>
      <point x="356" y="542"/>
      <point x="348" y="552"/>
      <point x="335" y="540" type="curve" smooth="yes"/>
      <point x="168" y="388" type="line"/>
      <point x="224" y="328" type="line"/>
      <point x="320" y="360"/>
      <point x="404" y="298"/>
      <point x="404" y="206" type="curve" smooth="yes"/>
      <point x="404" y="128"/>
      <point x="346" y="72"/>
      <point x="266" y="72" type="curve" smooth="yes"/>
      <point x="176" y="72"/>
      <point x="113" y="142"/>
      <point x="120" y="240" type="curve"/>
      <point x="32" y="214" type="line"/>
      <point x="32" y="82"/>
      <point x="129" y="-12"/>
    </contour>
    <component base="inkstem_S" xOffset="-18" yOffset="-78"/>
    <component base="inkcurve_L" xScale="0" xyScale="1" yScale="0" yxScale="-1" xOffset="544" yOffset="-71"/>
    <component base="inkcurve_L" xScale="-1" xOffset="548" yOffset="-78"/>
    <component base="inkstem_L" xScale="0" xyScale="-1" yScale="0" yxScale="1" xOffset="-132" yOffset="710"/>
    <component base="inkstem_S" xOffset="292" yOffset="84"/>
  </outline>
</glyph>
<glyph name="four" format="2">
  <advance width="532"/>
  <unicode hex="0034"/>
  <outline>
    <contour>
      <point x="336" y="0" type="line"/>
      <point x="420" y="0" type="line"/>
      <point x="420" y="100" type="line" smooth="yes"/>
      <point x="420" y="112"/>
      <point x="414" y="122"/>
      <point x="405" y="128" type="curve" smooth="yes"/>
      <point x="397" y="133"/>
      <point x="392" y="142"/>
      <point x="392" y="152" type="curve" smooth="yes"/>
      <point x="392" y="168"/>
      <point x="404" y="180"/>
      <point x="420" y="180" type="curve" smooth="yes"/>
      <point x="430" y="180"/>
      <point x="439" y="175"/>
      <point x="444" y="167" type="curve" smooth="yes"/>
      <point x="450" y="158"/>
      <point x="460" y="152"/>
      <point x="472" y="152" type="curve" smooth="yes"/>
      <point x="528" y="152" type="line"/>
      <point x="528" y="232" type="line"/>
      <point x="420" y="232" type="line"/>
      <point x="420" y="540" type="line"/>
      <point x="336" y="524" type="line"/>
      <point x="336" y="284" type="line" smooth="yes"/>
      <point x="336" y="272"/>
      <point x="342" y="262"/>
      <point x="351" y="256" type="curve" smooth="yes"/>
      <point x="359" y="251"/>
      <point x="364" y="242"/>
      <point x="364" y="232" type="curve" smooth="yes"/>
      <point x="364" y="216"/>
      <point x="352" y="204"/>
      <point x="336" y="204" type="curve" smooth="yes"/>
      <point x="326" y="204"/>
      <point x="317" y="209"/>
      <point x="312" y="217" type="curve" smooth="yes"/>
      <point x="306" y="226"/>
      <point x="296" y="232"/>
      <point x="284" y="232" type="curve" smooth="yes"/>
      <point x="158" y="232" type="line" smooth="yes"/>
      <point x="144" y="232"/>
      <point x="134" y="226"/>
      <point x="128" y="217" type="curve" smooth="yes"/>
      <point x="123" y="209"/>
      <point x="114" y="204"/>
      <point x="104" y="204" type="curve" smooth="yes"/>
      <point x="88" y="204"/>
      <point x="76" y="216"/>
      <point x="76" y="232" type="curve" smooth="yes"/>
      <point x="76" y="248"/>
      <point x="88" y="260"/>
      <point x="104" y="260" type="curve" smooth="yes"/>
      <point x="118" y="260"/>
      <point x="124" y="250"/>
      <point x="137" y="265" type="curve" smooth="yes"/>
      <point x="206" y="343"/>
      <point x="248" y="460"/>
      <point x="248" y="592" type="curve" smooth="yes"/>
      <point x="248" y="650" type="line"/>
      <point x="164" y="650" type="line"/>
      <point x="164" y="568" type="line" smooth="yes"/>
      <point x="164" y="427"/>
      <point x="109" y="305"/>
      <point x="16" y="240" type="curve"/>
      <point x="16" y="152" type="line"/>
      <point x="336" y="152" type="line"/>
    </contour>
    <component base="inkstem_S" xOffset="278" yOffset="-194"/>
    <component base="inkstem_M" xScale="0.9659" xyScale="-0.2588" yScale="0.9659" yxScale="0.2588" xOffset="21" yOffset="208"/>
    <component base="inkstem_L" xScale="-1" yScale="-1" xOffset="478" yOffset="728"/>
    <component base="inkstem_S" xOffset="106" yOffset="344"/>
  </outline>
</glyph>
<glyph name="five" format="2">
  <advance width="544"/>
  <unicode hex="0035"/>
  <note>
alto
</note>
  <outline>
    <contour>
      <point x="276" y="-12" type="curve" smooth="yes"/>
      <point x="411" y="-12"/>
      <point x="508" y="83"/>
      <point x="508" y="216" type="curve" smooth="yes"/>
      <point x="508" y="349"/>
      <point x="415" y="444"/>
      <point x="286" y="444" type="curve" smooth="yes"/>
      <point x="253" y="444"/>
      <point x="220" y="437"/>
      <point x="192" y="426" type="curve" smooth="yes"/>
      <point x="183" y="423"/>
      <point x="177" y="414"/>
      <point x="177" y="402" type="curve" smooth="yes"/>
      <point x="177" y="386"/>
      <point x="165" y="374"/>
      <point x="149" y="374" type="curve" smooth="yes"/>
      <point x="133" y="374"/>
      <point x="121" y="386"/>
      <point x="121" y="402" type="curve" smooth="yes"/>
      <point x="121" y="415"/>
      <point x="129" y="426"/>
      <point x="141" y="429" type="curve" smooth="yes"/>
      <point x="149" y="431"/>
      <point x="155" y="437"/>
      <point x="157" y="444" type="curve" smooth="yes"/>
      <point x="168" y="517" type="line" smooth="yes"/>
      <point x="173" y="553"/>
      <point x="148" y="544"/>
      <point x="148" y="570" type="curve" smooth="yes"/>
      <point x="148" y="586"/>
      <point x="160" y="598"/>
      <point x="176" y="598" type="curve" smooth="yes"/>
      <point x="186" y="598"/>
      <point x="195" y="593"/>
      <point x="200" y="585" type="curve" smooth="yes"/>
      <point x="206" y="576"/>
      <point x="216" y="570"/>
      <point x="228" y="570" type="curve" smooth="yes"/>
      <point x="480" y="570" type="line"/>
      <point x="480" y="650" type="line"/>
      <point x="104" y="650" type="line"/>
      <point x="64" y="332" type="line"/>
      <point x="152" y="308" type="line"/>
      <point x="176" y="344"/>
      <point x="224" y="368"/>
      <point x="276" y="368" type="curve" smooth="yes"/>
      <point x="360" y="368"/>
      <point x="420" y="306"/>
      <point x="420" y="220" type="curve" smooth="yes"/>
      <point x="420" y="134"/>
      <point x="359" y="72"/>
      <point x="274" y="72" type="curve" smooth="yes"/>
      <point x="184" y="72"/>
      <point x="120" y="144"/>
      <point x="128" y="240" type="curve"/>
      <point x="40" y="214" type="line"/>
      <point x="40" y="82"/>
      <point x="141" y="-12"/>
    </contour>
    <component base="inkstem_S" xOffset="-11" yOffset="-78"/>
    <component base="inkcurve_L" xScale="0" xyScale="1" yScale="0" yxScale="1" xOffset="-2" yOffset="-71"/>
    <component base="inkcurve_L" xScale="-1" xOffset="565" yOffset="-64"/>
    <component base="inkcurve_L" xScale="0" xyScale="-1" yScale="0" yxScale="1" xOffset="2" yOffset="506"/>
    <component base="inkstem_S" xOffset="314" yOffset="99"/>
    <component base="inkstem_L" xScale="0" xyScale="-1" yScale="0" yxScale="1" xOffset="56" yOffset="710"/>
  </outline>
</glyph>
<glyph name="six" format="2">
  <advance width="564"/>
  <unicode hex="0036"/>
  <outline>
    <contour>
      <point x="294" y="-12" type="curve" smooth="yes"/>
      <point x="427" y="-12"/>
      <point x="524" y="86"/>
      <point x="524" y="220" type="curve" smooth="yes"/>
      <point x="524" y="350"/>
      <point x="433" y="444"/>
      <point x="306" y="444" type="curve" smooth="yes"/>
      <point x="247" y="444"/>
      <point x="193" y="424"/>
      <point x="158" y="390" type="curve" smooth="yes"/>
      <point x="142" y="375"/>
      <point x="156" y="365"/>
      <point x="156" y="351" type="curve" smooth="yes"/>
      <point x="156" y="335"/>
      <point x="144" y="323"/>
      <point x="128" y="323" type="curve" smooth="yes"/>
      <point x="112" y="323"/>
      <point x="100" y="335"/>
      <point x="100" y="351" type="curve" smooth="yes"/>
      <point x="100" y="363"/>
      <point x="107" y="373"/>
      <point x="117" y="377" type="curve" smooth="yes"/>
      <point x="125" y="380"/>
      <point x="131" y="387"/>
      <point x="133" y="398" type="curve" smooth="yes"/>
      <point x="153" y="505"/>
      <point x="221" y="582"/>
      <point x="304" y="582" type="curve" smooth="yes"/>
      <point x="363" y="582"/>
      <point x="410" y="541"/>
      <point x="420" y="474" type="curve"/>
      <point x="516" y="502" type="line"/>
      <point x="492" y="600"/>
      <point x="410" y="662"/>
      <point x="312" y="662" type="curve" smooth="yes"/>
      <point x="158" y="662"/>
      <point x="44" y="521"/>
      <point x="44" y="320" type="curve" smooth="yes"/>
      <point x="44" y="125"/>
      <point x="147" y="-12"/>
    </contour>
    <contour>
      <point x="294" y="72" type="curve" smooth="yes"/>
      <point x="212" y="72"/>
      <point x="148" y="137"/>
      <point x="148" y="219" type="curve" smooth="yes"/>
      <point x="148" y="303"/>
      <point x="210" y="366"/>
      <point x="294" y="366" type="curve" smooth="yes"/>
      <point x="377" y="366"/>
      <point x="436" y="305"/>
      <point x="436" y="219" type="curve" smooth="yes"/>
      <point x="436" y="134"/>
      <point x="376" y="72"/>
    </contour>
    <component base="inkstem_S" xOffset="3" yOffset="-31"/>
    <component base="inkcurve_L" xScale="0" xyScale="1" yScale="0" yxScale="1" xOffset="16" yOffset="-70"/>
    <component base="inkcurve_L" xScale="-1" xOffset="580" yOffset="-58"/>
    <component base="inkcurve_L" xScale="0" xyScale="-1" yScale="0" yxScale="1" xOffset="20" yOffset="506"/>
    <component base="inkstem_S" xOffset="330" yOffset="98"/>
    <component base="inkcurve_L" xScale="0" xyScale="-1" yScale="0" yxScale="1" xOffset="28" yOffset="722"/>
    <component base="inkstem_S" xOffset="348" yOffset="288"/>
    <component base="inkstem_S" yScale="-1" xOffset="44" yOffset="780"/>
  </outline>
</glyph>
<glyph name="seven" format="2">
  <advance width="448"/>
  <unicode hex="0037"/>
  <outline>
    <contour>
      <point x="120" y="0" type="curve"/>
      <point x="212" y="0" type="line"/>
      <point x="212" y="4" type="line" smooth="yes"/>
      <point x="212" y="232"/>
      <point x="296" y="428"/>
      <point x="444" y="564" type="curve"/>
      <point x="444" y="650" type="line"/>
      <point x="12" y="650" type="line"/>
      <point x="12" y="568" type="line"/>
      <point x="312" y="568" type="line" smooth="yes"/>
      <point x="324" y="568"/>
      <point x="334" y="574"/>
      <point x="340" y="583" type="curve" smooth="yes"/>
      <point x="345" y="591"/>
      <point x="354" y="596"/>
      <point x="364" y="596" type="curve" smooth="yes"/>
      <point x="380" y="596"/>
      <point x="392" y="584"/>
      <point x="392" y="568" type="curve" smooth="yes"/>
      <point x="392" y="552"/>
      <point x="380" y="540"/>
      <point x="364" y="540" type="curve" smooth="yes"/>
      <point x="348" y="540"/>
      <point x="343" y="549"/>
      <point x="331" y="537" type="curve" smooth="yes"/>
      <point x="196" y="403"/>
      <point x="120" y="215"/>
    </contour>
    <component base="inkstem_S" xScale="-1" yScale="-1" xOffset="268" yOffset="306"/>
    <component base="inkstem_M" xScale="-0.9659" xyScale="0.2588" yScale="-0.9659" yxScale="-0.2588" xOffset="358" yOffset="442"/>
    <component base="inkstem_S" xOffset="173" yOffset="155"/>
    <component base="inkstem_M" xScale="0" xyScale="-1" yScale="0" yxScale="1" xOffset="-184" yOffset="710"/>
    <component base="inkstem_S" xScale="0" xyScale="-1" yScale="0" yxScale="1" xOffset="-14" yOffset="710"/>
  </outline>
</glyph>
<glyph name="eight" format="2">
  <advance width="548"/>
  <unicode hex="0038"/>
  <outline>
    <contour>
      <point x="274" y="-12" type="curve" smooth="yes"/>
      <point x="405" y="-12"/>
      <point x="500" y="66"/>
      <point x="500" y="178" type="curve" smooth="yes"/>
      <point x="500" y="241"/>
      <point x="468" y="295"/>
      <point x="419" y="328" type="curve" smooth="yes"/>
      <point x="411" y="333"/>
      <point x="403" y="332"/>
      <point x="397" y="327" type="curve" smooth="yes"/>
      <point x="392" y="323"/>
      <point x="385" y="320"/>
      <point x="378" y="320" type="curve" smooth="yes"/>
      <point x="362" y="320"/>
      <point x="350" y="332"/>
      <point x="350" y="348" type="curve" smooth="yes"/>
      <point x="350" y="364"/>
      <point x="362" y="376"/>
      <point x="378" y="376" type="curve" smooth="yes"/>
      <point x="384" y="376"/>
      <point x="389" y="375"/>
      <point x="393" y="372" type="curve" smooth="yes"/>
      <point x="402" y="366"/>
      <point x="412" y="366"/>
      <point x="422" y="373" type="curve" smooth="yes"/>
      <point x="457" y="401"/>
      <point x="476" y="441"/>
      <point x="476" y="488" type="curve" smooth="yes"/>
      <point x="476" y="589"/>
      <point x="390" y="662"/>
      <point x="274" y="662" type="curve" smooth="yes"/>
      <point x="159" y="662"/>
      <point x="72" y="589"/>
      <point x="72" y="488" type="curve" smooth="yes"/>
      <point x="72" y="440"/>
      <point x="91" y="400"/>
      <point x="126" y="373" type="curve" smooth="yes"/>
      <point x="136" y="366"/>
      <point x="146" y="366"/>
      <point x="155" y="372" type="curve" smooth="yes"/>
      <point x="159" y="375"/>
      <point x="164" y="376"/>
      <point x="170" y="376" type="curve" smooth="yes"/>
      <point x="186" y="376"/>
      <point x="198" y="364"/>
      <point x="198" y="348" type="curve" smooth="yes"/>
      <point x="198" y="332"/>
      <point x="186" y="320"/>
      <point x="170" y="320" type="curve" smooth="yes"/>
      <point x="163" y="320"/>
      <point x="156" y="323"/>
      <point x="151" y="327" type="curve" smooth="yes"/>
      <point x="145" y="332"/>
      <point x="137" y="333"/>
      <point x="129" y="328" type="curve" smooth="yes"/>
      <point x="79" y="295"/>
      <point x="48" y="241"/>
      <point x="48" y="178" type="curve" smooth="yes"/>
      <point x="48" y="66"/>
      <point x="143" y="-12"/>
    </contour>
    <contour>
      <point x="274" y="70" type="curve" smooth="yes"/>
      <point x="192" y="70"/>
      <point x="134" y="119"/>
      <point x="134" y="188" type="curve" smooth="yes"/>
      <point x="134" y="258"/>
      <point x="192" y="308"/>
      <point x="274" y="308" type="curve" smooth="yes"/>
      <point x="356" y="308"/>
      <point x="414" y="258"/>
      <point x="414" y="188" type="curve" smooth="yes"/>
      <point x="414" y="119"/>
      <point x="356" y="70"/>
    </contour>
    <contour>
      <point x="274" y="384" type="curve" smooth="yes"/>
      <point x="204" y="384"/>
      <point x="154" y="425"/>
      <point x="154" y="484" type="curve" smooth="yes"/>
      <point x="154" y="543"/>
      <point x="204" y="584"/>
      <point x="274" y="584" type="curve" smooth="yes"/>
      <point x="344" y="584"/>
      <point x="394" y="543"/>
      <point x="394" y="484" type="curve" smooth="yes"/>
      <point x="394" y="425"/>
      <point x="344" y="384"/>
    </contour>
    <component base="inkcurve_L" yScale="-1" xOffset="-9" yOffset="462"/>
    <component base="inkcurve_L" xScale="0" xyScale="1" yScale="0" yxScale="1" xOffset="-4" yOffset="-72"/>
    <component base="inkstem_S" yScale="-1" xOffset="14" yOffset="744"/>
    <component base="inkcurve_L" xScale="-1" yScale="-1" xOffset="556" yOffset="462"/>
    <component base="inkcurve_L" xScale="0" xyScale="-1" yScale="0" yxScale="1" xOffset="-4" yOffset="723"/>
    <component base="inkstem_S" yScale="-1" xOffset="333" yOffset="744"/>
  </outline>
</glyph>
<glyph name="nine" format="2">
  <advance width="542"/>
  <unicode hex="0039"/>
  <outline>
    <contour>
      <point x="240" y="-12" type="curve" smooth="yes"/>
      <point x="394" y="-12"/>
      <point x="498" y="123"/>
      <point x="498" y="336" type="curve" smooth="yes"/>
      <point x="498" y="540"/>
      <point x="408" y="662"/>
      <point x="260" y="662" type="curve" smooth="yes"/>
      <point x="134" y="662"/>
      <point x="40" y="569"/>
      <point x="40" y="442" type="curve" smooth="yes"/>
      <point x="40" y="315"/>
      <point x="136" y="224"/>
      <point x="254" y="224" type="curve" smooth="yes"/>
      <point x="309" y="224"/>
      <point x="356" y="244"/>
      <point x="388" y="275" type="curve" smooth="yes"/>
      <point x="404" y="290"/>
      <point x="390" y="300"/>
      <point x="390" y="314" type="curve" smooth="yes"/>
      <point x="390" y="330"/>
      <point x="402" y="342"/>
      <point x="418" y="342" type="curve" smooth="yes"/>
      <point x="434" y="342"/>
      <point x="446" y="330"/>
      <point x="446" y="314" type="curve" smooth="yes"/>
      <point x="446" y="302"/>
      <point x="439" y="292"/>
      <point x="429" y="288" type="curve" smooth="yes"/>
      <point x="421" y="285"/>
      <point x="415" y="278"/>
      <point x="413" y="267" type="curve" smooth="yes"/>
      <point x="395" y="144"/>
      <point x="330" y="70"/>
      <point x="244" y="70" type="curve" smooth="yes"/>
      <point x="179" y="70"/>
      <point x="134" y="115"/>
      <point x="132" y="188" type="curve"/>
      <point x="36" y="164" type="line"/>
      <point x="47" y="59"/>
      <point x="131" y="-12"/>
    </contour>
    <contour>
      <point x="260" y="304" type="curve" smooth="yes"/>
      <point x="182" y="304"/>
      <point x="126" y="363"/>
      <point x="126" y="444" type="curve" smooth="yes"/>
      <point x="126" y="525"/>
      <point x="182" y="584"/>
      <point x="260" y="584" type="curve" smooth="yes"/>
      <point x="338" y="584"/>
      <point x="394" y="525"/>
      <point x="394" y="444" type="curve" smooth="yes"/>
      <point x="394" y="363"/>
      <point x="338" y="304"/>
    </contour>
    <component base="inkstem_S" yScale="-1" xOffset="-4" yOffset="376"/>
    <component base="inkcurve_L" xScale="0" xyScale="1" yScale="0" yxScale="1" xOffset="-32" yOffset="-72"/>
    <component base="inkcurve_L" xScale="0" xyScale="1" yScale="0" yxScale="1" xOffset="-20" yOffset="164"/>
    <component base="inkcurve_L" xOffset="-18" yOffset="165"/>
    <component base="inkstem_S" yScale="-1" xOffset="32" yOffset="820"/>
    <component base="inkcurve_L" xScale="0" xyScale="-1" yScale="0" yxScale="1" xOffset="-18" yOffset="723"/>
    <component base="inkstem_S" xOffset="339" yOffset="193"/>
    <component base="inkstem_S" xOffset="304" yOffset="-128"/>
  </outline>
</glyph>
<glyph name="equal" format="2">
  <advance width="600"/>
  <unicode hex="003D"/>
  <outline>
    <contour>
      <point x="92" y="367" type="line"/>
      <point x="508" y="367" type="line"/>
      <point x="508" y="450" type="line"/>
      <point x="92" y="450" type="line"/>
    </contour>
    <contour>
      <point x="92" y="190" type="line"/>
      <point x="508" y="190" type="line"/>
      <point x="508" y="274" type="line"/>
      <point x="92" y="274" type="line"/>
    </contour>
    <component base="inkstem_S" xScale="0" xyScale="-1" yScale="0" yxScale="1" xOffset="-102" yOffset="509"/>
    <component base="inkstem_S" xScale="0" xyScale="-1" yScale="0" yxScale="1" xOffset="202" yOffset="509"/>
    <component base="inkstem_S" xScale="0" xyScale="-1" yScale="0" yxScale="1" xOffset="-102" yOffset="332"/>
    <component base="inkstem_S" xScale="0" xyScale="-1" yScale="0" yxScale="1" xOffset="202" yOffset="332"/>
  </outline>
</glyph>
<glyph name="greater" format="2">
  <advance width="600"/>
  <unicode hex="003E"/>
  <outline>
    <contour>
      <point x="100" y="112" type="line"/>
      <point x="520" y="268" type="line"/>
      <point x="520" y="360" type="line"/>
      <point x="102" y="524" type="line"/>
      <point x="94" y="436" type="line"/>
      <point x="363" y="336" type="line" smooth="yes"/>
      <point x="375" y="331"/>
      <point x="388" y="333"/>
      <point x="401" y="340" type="curve" smooth="yes"/>
      <point x="405" y="342"/>
      <point x="410" y="344"/>
      <point x="416" y="344" type="curve" smooth="yes"/>
      <point x="432" y="344"/>
      <point x="444" y="332"/>
      <point x="444" y="316" type="curve" smooth="yes"/>
      <point x="444" y="300"/>
      <point x="432" y="288"/>
      <point x="416" y="288" type="curve" smooth="yes"/>
      <point x="410" y="288"/>
      <point x="405" y="290"/>
      <point x="401" y="292" type="curve" smooth="yes"/>
      <point x="388" y="299"/>
      <point x="373" y="301"/>
      <point x="361" y="297" type="curve" smooth="yes"/>
      <point x="92" y="204" type="line"/>
    </contour>
    <component base="inkstem_M" xScale="0.3569" xyScale="0.9342" yScale="-0.3569" yxScale="0.9342" xOffset="-117" yOffset="456"/>
    <component base="inkstem_S" yScale="-1" xOffset="50" yOffset="428"/>
  </outline>
</glyph>
<glyph name="at" format="2">
  <advance width="776"/>
  <unicode hex="0040"/>
  <outline>
    <contour>
      <point x="389" y="-56" type="curve" smooth="yes"/>
      <point x="464" y="-56"/>
      <point x="545" y="-35"/>
      <point x="586" y="-6" type="curve"/>
      <point x="538" y="66" type="line"/>
      <point x="507" y="42"/>
      <point x="446" y="24"/>
      <point x="387" y="24" type="curve" smooth="yes"/>
      <point x="242" y="24"/>
      <point x="120" y="135"/>
      <point x="120" y="306" type="curve" smooth="yes"/>
      <point x="120" y="470"/>
      <point x="234" y="588"/>
      <point x="391" y="588" type="curve" smooth="yes"/>
      <point x="553" y="588"/>
      <point x="658" y="462"/>
      <point x="658" y="311" type="curve" smooth="yes"/>
      <point x="658" y="231"/>
      <point x="625" y="176"/>
      <point x="586" y="176" type="curve" smooth="yes"/>
      <point x="566" y="176"/>
      <point x="558" y="187"/>
      <point x="558" y="212" type="curve" smooth="yes"/>
      <point x="558" y="488" type="line"/>
      <point x="490" y="488" type="line"/>
      <point x="489" y="478"/>
      <point x="492" y="474"/>
      <point x="500" y="470" type="curve" smooth="yes"/>
      <point x="509" y="465"/>
      <point x="515" y="456"/>
      <point x="515" y="445" type="curve" smooth="yes"/>
      <point x="515" y="429"/>
      <point x="503" y="417"/>
      <point x="487" y="417" type="curve" smooth="yes"/>
      <point x="471" y="417"/>
      <point x="459" y="429"/>
      <point x="459" y="445" type="curve" smooth="yes"/>
      <point x="459" y="461"/>
      <point x="471" y="469"/>
      <point x="447" y="482" type="curve" smooth="yes"/>
      <point x="427" y="493"/>
      <point x="403" y="499"/>
      <point x="376" y="499" type="curve" smooth="yes"/>
      <point x="278" y="499"/>
      <point x="196" y="418"/>
      <point x="196" y="302" type="curve" smooth="yes"/>
      <point x="196" y="186"/>
      <point x="276" y="105"/>
      <point x="376" y="105" type="curve" smooth="yes"/>
      <point x="411" y="105"/>
      <point x="440" y="115"/>
      <point x="464" y="133" type="curve" smooth="yes"/>
      <point x="478" y="144"/>
      <point x="466" y="156"/>
      <point x="466" y="168" type="curve" smooth="yes"/>
      <point x="466" y="184"/>
      <point x="478" y="196"/>
      <point x="494" y="196" type="curve" smooth="yes"/>
      <point x="510" y="196"/>
      <point x="522" y="184"/>
      <point x="522" y="168" type="curve" smooth="yes"/>
      <point x="522" y="153"/>
      <point x="510" y="148"/>
      <point x="510" y="133" type="curve" smooth="yes"/>
      <point x="510" y="115"/>
      <point x="542" y="102"/>
      <point x="574" y="102" type="curve" smooth="yes"/>
      <point x="663" y="102"/>
      <point x="740" y="191"/>
      <point x="740" y="321" type="curve" smooth="yes"/>
      <point x="740" y="508"/>
      <point x="602" y="666"/>
      <point x="391" y="666" type="curve" smooth="yes"/>
      <point x="185" y="666"/>
      <point x="36" y="514"/>
      <point x="36" y="305" type="curve" smooth="yes"/>
      <point x="36" y="91"/>
      <point x="191" y="-56"/>
    </contour>
    <contour>
      <point x="388" y="183" type="curve" smooth="yes"/>
      <point x="323" y="183"/>
      <point x="278" y="232"/>
      <point x="278" y="302" type="curve" smooth="yes"/>
      <point x="278" y="372"/>
      <point x="323" y="423"/>
      <point x="388" y="423" type="curve" smooth="yes"/>
      <point x="453" y="423"/>
      <point x="498" y="373"/>
      <point x="498" y="303" type="curve" smooth="yes"/>
      <point x="498" y="233"/>
      <point x="453" y="183"/>
    </contour>
    <component base="inkstem_S" xOffset="60" yOffset="-170"/>
    <component base="inkcurve_L" xScale="0" xyScale="1" yScale="0" yxScale="-1" xOffset="665" yOffset="-118"/>
    <component base="inkcurve_L" xOffset="-23" yOffset="28"/>
    <component base="inkstem_S" xOffset="232" yOffset="-96"/>
    <component base="inkcurve_L" xOffset="137" yOffset="24"/>
    <component base="inkstem_S" yScale="-1" xOffset="60" yOffset="778"/>
    <component base="inkstem_S" xOffset="232" yOffset="201"/>
    <component base="inkcurve_L" xScale="0" xyScale="-1" yScale="0" yxScale="-1" xOffset="668" yOffset="728"/>
    <component base="inkcurve_L" xScale="-1" xOffset="800" yOffset="48"/>
    <component base="inkstem_S" yScale="-1" xOffset="512" yOffset="786"/>
  </outline>
</glyph>
<glyph name="A" format="2">
  <advance width="608"/>
  <unicode hex="0041"/>
  <anchor x="564" y="0" name="ogonek"/>
  <anchor x="304" y="650" name="top"/>
  <outline>
    <contour>
      <point x="4" y="0" type="line"/>
      <point x="100" y="0" type="line"/>
      <point x="153" y="142" type="line" smooth="yes"/>
      <point x="156" y="149"/>
      <point x="153" y="156"/>
      <point x="147" y="159" type="curve" smooth="yes"/>
      <point x="138" y="163"/>
      <point x="132" y="173"/>
      <point x="132" y="184" type="curve" smooth="yes"/>
      <point x="132" y="200"/>
      <point x="144" y="212"/>
      <point x="160" y="212" type="curve" smooth="yes"/>
      <point x="175" y="212"/>
      <point x="186" y="202"/>
      <point x="188" y="187" type="curve" smooth="yes"/>
      <point x="189" y="181"/>
      <point x="193" y="176"/>
      <point x="203" y="176" type="curve" smooth="yes"/>
      <point x="404" y="176" type="line" smooth="yes"/>
      <point x="414" y="176"/>
      <point x="418" y="181"/>
      <point x="419" y="187" type="curve" smooth="yes"/>
      <point x="421" y="202"/>
      <point x="432" y="212"/>
      <point x="447" y="212" type="curve" smooth="yes"/>
      <point x="463" y="212"/>
      <point x="475" y="200"/>
      <point x="475" y="184" type="curve" smooth="yes"/>
      <point x="475" y="173"/>
      <point x="469" y="163"/>
      <point x="460" y="159" type="curve" smooth="yes"/>
      <point x="454" y="156"/>
      <point x="451" y="149"/>
      <point x="454" y="142" type="curve" smooth="yes"/>
      <point x="508" y="0" type="line"/>
      <point x="604" y="0" type="line"/>
      <point x="348" y="650" type="line"/>
      <point x="260" y="650" type="line"/>
    </contour>
    <contour>
      <point x="190" y="226" type="curve" smooth="yes"/>
      <point x="174" y="226"/>
      <point x="162" y="238"/>
      <point x="162" y="254" type="curve" smooth="yes"/>
      <point x="162" y="270"/>
      <point x="174" y="282"/>
      <point x="190" y="282" type="curve" smooth="yes"/>
      <point x="198" y="282"/>
      <point x="207" y="286"/>
      <point x="210" y="294" type="curve" smooth="yes"/>
      <point x="287" y="502" type="line" smooth="yes"/>
      <point x="290" y="509"/>
      <point x="288" y="515"/>
      <point x="284" y="518" type="curve" smooth="yes"/>
      <point x="278" y="523"/>
      <point x="274" y="531"/>
      <point x="274" y="540" type="curve" smooth="yes"/>
      <point x="274" y="556"/>
      <point x="286" y="568"/>
      <point x="302" y="568" type="curve" smooth="yes"/>
      <point x="318" y="568"/>
      <point x="330" y="556"/>
      <point x="330" y="540" type="curve" smooth="yes"/>
      <point x="330" y="531"/>
      <point x="326" y="523"/>
      <point x="319" y="518" type="curve" smooth="yes"/>
      <point x="315" y="515"/>
      <point x="314" y="509"/>
      <point x="317" y="502" type="curve" smooth="yes"/>
      <point x="396" y="294" type="line" smooth="yes"/>
      <point x="399" y="286"/>
      <point x="408" y="282"/>
      <point x="416" y="282" type="curve" smooth="yes"/>
      <point x="432" y="282"/>
      <point x="444" y="270"/>
      <point x="444" y="254" type="curve" smooth="yes"/>
      <point x="444" y="238"/>
      <point x="432" y="226"/>
      <point x="416" y="226" type="curve" smooth="yes"/>
      <point x="403" y="226"/>
      <point x="394" y="234"/>
      <point x="390" y="244" type="curve" smooth="yes"/>
      <point x="387" y="252"/>
      <point x="382" y="256"/>
      <point x="374" y="256" type="curve" smooth="yes"/>
      <point x="232" y="256" type="line" smooth="yes"/>
      <point x="224" y="256"/>
      <point x="219" y="252"/>
      <point x="216" y="244" type="curve" smooth="yes"/>
      <point x="212" y="234"/>
      <point x="203" y="226"/>
    </contour>
    <component base="inkstem_S" xOffset="-26" yOffset="-194"/>
    <component base="inkstem_S" xOffset="434" yOffset="-194"/>
    <component base="inkstem_M" xScale="0.9336" xyScale="-0.3584" yScale="0.9336" yxScale="0.3584" xOffset="20" yOffset="194"/>
    <component base="inkstem_M" xScale="-0.9336" xyScale="-0.3584" yScale="0.9336" yxScale="-0.3584" xOffset="587" yOffset="194"/>
  </outline>
</glyph>
<glyph name="B" format="2">
  <advance width="592"/>
  <unicode hex="0042"/>
  <outline>
    <contour>
      <point x="64" y="0" type="line"/>
      <point x="372" y="0" type="line" smooth="yes"/>
      <point x="482" y="0"/>
      <point x="560" y="73"/>
      <point x="560" y="176" type="curve" smooth="yes"/>
      <point x="560" y="241"/>
      <point x="526" y="294"/>
      <point x="470" y="322" type="curve" smooth="yes"/>
      <point x="463" y="325"/>
      <point x="455" y="324"/>
      <point x="448" y="318" type="curve" smooth="yes"/>
      <point x="443" y="314"/>
      <point x="435" y="311"/>
      <point x="428" y="311" type="curve" smooth="yes"/>
      <point x="412" y="311"/>
      <point x="400" y="323"/>
      <point x="400" y="339" type="curve" smooth="yes"/>
      <point x="400" y="355"/>
      <point x="412" y="367"/>
      <point x="428" y="367" type="curve" smooth="yes"/>
      <point x="435" y="367"/>
      <point x="442" y="364"/>
      <point x="447" y="360" type="curve" smooth="yes"/>
      <point x="454" y="353"/>
      <point x="462" y="352"/>
      <point x="469" y="356" type="curve" smooth="yes"/>
      <point x="512" y="384"/>
      <point x="538" y="431"/>
      <point x="538" y="484" type="curve" smooth="yes"/>
      <point x="538" y="581"/>
      <point x="459" y="650"/>
      <point x="348" y="650" type="curve" smooth="yes"/>
      <point x="64" y="650" type="line"/>
    </contour>
    <contour>
      <point x="148" y="54" type="curve" smooth="yes"/>
      <point x="132" y="54"/>
      <point x="120" y="66"/>
      <point x="120" y="82" type="curve" smooth="yes"/>
      <point x="120" y="92"/>
      <point x="125" y="101"/>
      <point x="133" y="106" type="curve" smooth="yes"/>
      <point x="142" y="112"/>
      <point x="148" y="122"/>
      <point x="148" y="134" type="curve" smooth="yes"/>
      <point x="148" y="240" type="line" smooth="yes"/>
      <point x="148" y="252"/>
      <point x="142" y="262"/>
      <point x="133" y="268" type="curve" smooth="yes"/>
      <point x="125" y="273"/>
      <point x="120" y="282"/>
      <point x="120" y="292" type="curve" smooth="yes"/>
      <point x="120" y="308"/>
      <point x="132" y="320"/>
      <point x="148" y="320" type="curve" smooth="yes"/>
      <point x="158" y="320"/>
      <point x="167" y="315"/>
      <point x="172" y="307" type="curve" smooth="yes"/>
      <point x="178" y="298"/>
      <point x="188" y="292"/>
      <point x="200" y="292" type="curve" smooth="yes"/>
      <point x="356" y="292" type="line" smooth="yes"/>
      <point x="424" y="292"/>
      <point x="474" y="248"/>
      <point x="474" y="187" type="curve" smooth="yes"/>
      <point x="474" y="126"/>
      <point x="424" y="82"/>
      <point x="356" y="82" type="curve" smooth="yes"/>
      <point x="200" y="82" type="line" smooth="yes"/>
      <point x="188" y="82"/>
      <point x="178" y="76"/>
      <point x="172" y="67" type="curve" smooth="yes"/>
      <point x="167" y="59"/>
      <point x="158" y="54"/>
    </contour>
    <contour>
      <point x="148" y="344" type="curve" smooth="yes"/>
      <point x="132" y="344"/>
      <point x="120" y="356"/>
      <point x="120" y="372" type="curve" smooth="yes"/>
      <point x="120" y="382"/>
      <point x="125" y="391"/>
      <point x="133" y="396" type="curve" smooth="yes"/>
      <point x="142" y="402"/>
      <point x="148" y="412"/>
      <point x="148" y="424" type="curve" smooth="yes"/>
      <point x="148" y="518" type="line" smooth="yes"/>
      <point x="148" y="530"/>
      <point x="142" y="540"/>
      <point x="133" y="546" type="curve" smooth="yes"/>
      <point x="125" y="551"/>
      <point x="120" y="560"/>
      <point x="120" y="570" type="curve" smooth="yes"/>
      <point x="120" y="586"/>
      <point x="132" y="598"/>
      <point x="148" y="598" type="curve" smooth="yes"/>
      <point x="158" y="598"/>
      <point x="167" y="593"/>
      <point x="172" y="585" type="curve" smooth="yes"/>
      <point x="178" y="576"/>
      <point x="188" y="570"/>
      <point x="200" y="570" type="curve" smooth="yes"/>
      <point x="340" y="570" type="line" smooth="yes"/>
      <point x="405" y="570"/>
      <point x="452" y="528"/>
      <point x="452" y="471" type="curve" smooth="yes"/>
      <point x="452" y="414"/>
      <point x="405" y="372"/>
      <point x="340" y="372" type="curve" smooth="yes"/>
      <point x="200" y="372" type="line" smooth="yes"/>
      <point x="188" y="372"/>
      <point x="178" y="366"/>
      <point x="172" y="357" type="curve" smooth="yes"/>
      <point x="167" y="349"/>
      <point x="158" y="344"/>
    </contour>
    <component base="inkstem_M" xScale="0" xyScale="-1" yScale="0" yxScale="1" xOffset="40" yOffset="142"/>
    <component base="inkstem_S" xOffset="180" yOffset="82"/>
    <component base="inkstem_S" xOffset="412" yOffset="-96"/>
    <component base="inkstem_M" xScale="0" xyScale="-1" yScale="0" yxScale="1" xOffset="16" yOffset="710"/>
    <component base="inkcurve_S" xScale="-1" xOffset="592" yOffset="196"/>
  </outline>
</glyph>
<glyph name="C" format="2">
  <advance width="664"/>
  <unicode hex="0043"/>
  <anchor x="348" y="0" name="bottom"/>
  <anchor x="344" y="650" name="top"/>
  <outline>
    <contour>
      <point x="350" y="-12" type="curve" smooth="yes"/>
      <point x="498" y="-12"/>
      <point x="608" y="84"/>
      <point x="632" y="224" type="curve"/>
      <point x="542" y="252" type="line"/>
      <point x="530" y="144"/>
      <point x="453" y="72"/>
      <point x="350" y="72" type="curve" smooth="yes"/>
      <point x="220" y="72"/>
      <point x="126" y="178"/>
      <point x="126" y="325" type="curve" smooth="yes"/>
      <point x="126" y="473"/>
      <point x="218" y="580"/>
      <point x="344" y="580" type="curve" smooth="yes"/>
      <point x="439" y="580"/>
      <point x="520" y="508"/>
      <point x="536" y="408" type="curve"/>
      <point x="624" y="440" type="line"/>
      <point x="600" y="572"/>
      <point x="485" y="662"/>
      <point x="344" y="662" type="curve" smooth="yes"/>
      <point x="165" y="662"/>
      <point x="36" y="520"/>
      <point x="36" y="325" type="curve" smooth="yes"/>
      <point x="36" y="130"/>
      <point x="168" y="-12"/>
    </contour>
    <component base="inkstem_S" xOffset="50" yOffset="-128"/>
    <component base="inkcurve_L" xScale="0" xyScale="1" yScale="0" yxScale="-1" xOffset="632" yOffset="-70"/>
    <component base="inkcurve_L" xOffset="-21" yOffset="47"/>
    <component base="inkstem_S" yScale="-1" xOffset="52" yOffset="780"/>
    <component base="inkstem_S" xOffset="471" yOffset="-66"/>
    <component base="inkcurve_L" xScale="0" xyScale="-1" yScale="0" yxScale="-1" xOffset="620" yOffset="722"/>
    <component base="inkstem_S" yScale="-1" xOffset="463" yOffset="728"/>
  </outline>
</glyph>
<glyph name="D" format="2">
  <advance width="660"/>
  <unicode hex="0044"/>
  <anchor x="292" y="650" name="top"/>
  <outline>
    <contour>
      <point x="64" y="0" type="line"/>
      <point x="324" y="0" type="line" smooth="yes"/>
      <point x="501" y="0"/>
      <point x="624" y="142"/>
      <point x="624" y="326" type="curve" smooth="yes"/>
      <point x="624" y="520"/>
      <point x="487" y="650"/>
      <point x="308" y="650" type="curve" smooth="yes"/>
      <point x="64" y="650" type="line"/>
    </contour>
    <contour>
      <point x="148" y="54" type="curve" smooth="yes"/>
      <point x="132" y="54"/>
      <point x="120" y="66"/>
      <point x="120" y="82" type="curve" smooth="yes"/>
      <point x="120" y="92"/>
      <point x="125" y="101"/>
      <point x="133" y="106" type="curve" smooth="yes"/>
      <point x="142" y="112"/>
      <point x="148" y="122"/>
      <point x="148" y="134" type="curve" smooth="yes"/>
      <point x="148" y="518" type="line" smooth="yes"/>
      <point x="148" y="530"/>
      <point x="142" y="540"/>
      <point x="133" y="546" type="curve" smooth="yes"/>
      <point x="125" y="551"/>
      <point x="120" y="560"/>
      <point x="120" y="570" type="curve" smooth="yes"/>
      <point x="120" y="586"/>
      <point x="132" y="598"/>
      <point x="148" y="598" type="curve" smooth="yes"/>
      <point x="158" y="598"/>
      <point x="167" y="593"/>
      <point x="172" y="585" type="curve" smooth="yes"/>
      <point x="178" y="576"/>
      <point x="188" y="570"/>
      <point x="200" y="570" type="curve" smooth="yes"/>
      <point x="304" y="570" type="line" smooth="yes"/>
      <point x="439" y="570"/>
      <point x="536" y="467"/>
      <point x="536" y="324" type="curve" smooth="yes"/>
      <point x="536" y="184"/>
      <point x="444" y="82"/>
      <point x="316" y="82" type="curve" smooth="yes"/>
      <point x="200" y="82" type="line" smooth="yes"/>
      <point x="188" y="82"/>
      <point x="178" y="76"/>
      <point x="172" y="67" type="curve" smooth="yes"/>
      <point x="167" y="59"/>
      <point x="158" y="54"/>
    </contour>
    <component base="inkstem_M" xScale="0" xyScale="-1" yScale="0" yxScale="1" xOffset="40" yOffset="142"/>
    <component base="inkstem_L" xOffset="6" yOffset="47"/>
    <component base="inkstem_S" xOffset="405" yOffset="-128"/>
    <component base="inkcurve_L" xScale="-1" xOffset="681" yOffset="47"/>
    <component base="inkstem_M" xScale="0" xyScale="-1" yScale="0" yxScale="1" xOffset="16" yOffset="710"/>
    <component base="inkstem_S" yScale="-1" xOffset="401" yOffset="780"/>
  </outline>
</glyph>
<glyph name="E" format="2">
  <advance width="548"/>
  <unicode hex="0045"/>
  <anchor x="516" y="0" name="ogonek"/>
  <anchor x="288" y="650" name="top"/>
  <outline>
    <contour>
      <point x="64" y="0" type="line"/>
      <point x="516" y="0" type="line"/>
      <point x="516" y="82" type="line"/>
      <point x="200" y="82" type="line" smooth="yes"/>
      <point x="188" y="82"/>
      <point x="178" y="76"/>
      <point x="172" y="67" type="curve" smooth="yes"/>
      <point x="167" y="59"/>
      <point x="158" y="54"/>
      <point x="148" y="54" type="curve" smooth="yes"/>
      <point x="132" y="54"/>
      <point x="120" y="66"/>
      <point x="120" y="82" type="curve" smooth="yes"/>
      <point x="120" y="92"/>
      <point x="125" y="101"/>
      <point x="133" y="106" type="curve" smooth="yes"/>
      <point x="142" y="112"/>
      <point x="148" y="122"/>
      <point x="148" y="134" type="curve" smooth="yes"/>
      <point x="148" y="240" type="line" smooth="yes"/>
      <point x="148" y="252"/>
      <point x="142" y="262"/>
      <point x="133" y="268" type="curve" smooth="yes"/>
      <point x="125" y="273"/>
      <point x="120" y="282"/>
      <point x="120" y="292" type="curve" smooth="yes"/>
      <point x="120" y="308"/>
      <point x="132" y="320"/>
      <point x="148" y="320" type="curve" smooth="yes"/>
      <point x="158" y="320"/>
      <point x="167" y="315"/>
      <point x="172" y="307" type="curve" smooth="yes"/>
      <point x="178" y="298"/>
      <point x="188" y="292"/>
      <point x="200" y="292" type="curve" smooth="yes"/>
      <point x="460" y="292" type="line"/>
      <point x="460" y="372" type="line"/>
      <point x="200" y="372" type="line" smooth="yes"/>
      <point x="188" y="372"/>
      <point x="178" y="366"/>
      <point x="172" y="357" type="curve" smooth="yes"/>
      <point x="167" y="349"/>
      <point x="158" y="344"/>
      <point x="148" y="344" type="curve" smooth="yes"/>
      <point x="132" y="344"/>
      <point x="120" y="356"/>
      <point x="120" y="372" type="curve" smooth="yes"/>
      <point x="120" y="382"/>
      <point x="125" y="391"/>
      <point x="133" y="396" type="curve" smooth="yes"/>
      <point x="142" y="402"/>
      <point x="148" y="412"/>
      <point x="148" y="424" type="curve" smooth="yes"/>
      <point x="148" y="518" type="line" smooth="yes"/>
      <point x="148" y="530"/>
      <point x="142" y="540"/>
      <point x="133" y="546" type="curve" smooth="yes"/>
      <point x="125" y="551"/>
      <point x="120" y="560"/>
      <point x="120" y="570" type="curve" smooth="yes"/>
      <point x="120" y="586"/>
      <point x="132" y="598"/>
      <point x="148" y="598" type="curve" smooth="yes"/>
      <point x="158" y="598"/>
      <point x="167" y="593"/>
      <point x="172" y="585" type="curve" smooth="yes"/>
      <point x="178" y="576"/>
      <point x="188" y="570"/>
      <point x="200" y="570" type="curve" smooth="yes"/>
      <point x="508" y="570" type="line"/>
      <point x="508" y="650" type="line"/>
      <point x="64" y="650" type="line"/>
    </contour>
    <component base="inkstem_L" xScale="0" xyScale="-1" yScale="0" yxScale="1" xOffset="40" yOffset="142"/>
    <component base="inkstem_M" xScale="0" xyScale="-1" yScale="0" yxScale="1" xOffset="100" yOffset="432"/>
    <component base="inkstem_M" xScale="0" xyScale="-1" yScale="0" yxScale="1" xOffset="16" yOffset="710"/>
    <component base="inkstem_S" xOffset="352" yOffset="360"/>
  </outline>
</glyph>
<glyph name="F" format="2">
  <advance width="528"/>
  <unicode hex="0046"/>
  <outline>
    <contour>
      <point x="64" y="0" type="line"/>
      <point x="148" y="0" type="line"/>
      <point x="148" y="224" type="line" smooth="yes"/>
      <point x="148" y="236"/>
      <point x="142" y="246"/>
      <point x="133" y="252" type="curve" smooth="yes"/>
      <point x="125" y="257"/>
      <point x="120" y="266"/>
      <point x="120" y="276" type="curve" smooth="yes"/>
      <point x="120" y="292"/>
      <point x="132" y="304"/>
      <point x="148" y="304" type="curve" smooth="yes"/>
      <point x="158" y="304"/>
      <point x="167" y="299"/>
      <point x="172" y="291" type="curve" smooth="yes"/>
      <point x="178" y="282"/>
      <point x="188" y="276"/>
      <point x="200" y="276" type="curve" smooth="yes"/>
      <point x="468" y="276" type="line"/>
      <point x="468" y="356" type="line"/>
      <point x="200" y="356" type="line" smooth="yes"/>
      <point x="188" y="356"/>
      <point x="178" y="350"/>
      <point x="172" y="341" type="curve" smooth="yes"/>
      <point x="167" y="333"/>
      <point x="158" y="328"/>
      <point x="148" y="328" type="curve" smooth="yes"/>
      <point x="132" y="328"/>
      <point x="120" y="340"/>
      <point x="120" y="356" type="curve" smooth="yes"/>
      <point x="120" y="366"/>
      <point x="125" y="375"/>
      <point x="133" y="380" type="curve" smooth="yes"/>
      <point x="142" y="386"/>
      <point x="148" y="396"/>
      <point x="148" y="408" type="curve" smooth="yes"/>
      <point x="148" y="518" type="line" smooth="yes"/>
      <point x="148" y="530"/>
      <point x="142" y="540"/>
      <point x="133" y="546" type="curve" smooth="yes"/>
      <point x="125" y="551"/>
      <point x="120" y="560"/>
      <point x="120" y="570" type="curve" smooth="yes"/>
      <point x="120" y="586"/>
      <point x="132" y="598"/>
      <point x="148" y="598" type="curve" smooth="yes"/>
      <point x="158" y="598"/>
      <point x="167" y="593"/>
      <point x="172" y="585" type="curve" smooth="yes"/>
      <point x="178" y="576"/>
      <point x="188" y="570"/>
      <point x="200" y="570" type="curve" smooth="yes"/>
      <point x="504" y="570" type="line"/>
      <point x="504" y="650" type="line"/>
      <point x="64" y="650" type="line"/>
    </contour>
    <component base="inkstem_M" xScale="-1" yScale="-1" xOffset="206" yOffset="360"/>
    <component base="inkstem_L" xScale="0" xyScale="-1" yScale="0" yxScale="1" xOffset="44" yOffset="417"/>
    <component base="inkstem_M" xScale="0" xyScale="-1" yScale="0" yxScale="1" xOffset="16" yOffset="710"/>
    <component base="inkstem_S" xOffset="348" yOffset="360"/>
  </outline>
</glyph>
<glyph name="G" format="2">
  <advance width="696"/>
  <unicode hex="0047"/>
  <anchor x="352" y="0" name="bottom"/>
  <anchor x="348" y="650" name="top"/>
  <outline>
    <contour>
      <point x="340" y="-12" type="curve" smooth="yes"/>
      <point x="440" y="-12"/>
      <point x="520" y="36"/>
      <point x="559" y="110" type="curve" smooth="yes"/>
      <point x="563" y="117"/>
      <point x="562" y="124"/>
      <point x="556" y="128" type="curve" smooth="yes"/>
      <point x="550" y="133"/>
      <point x="546" y="141"/>
      <point x="546" y="150" type="curve" smooth="yes"/>
      <point x="546" y="166"/>
      <point x="558" y="178"/>
      <point x="574" y="178" type="curve" smooth="yes"/>
      <point x="590" y="178"/>
      <point x="602" y="166"/>
      <point x="602" y="150" type="curve" smooth="yes"/>
      <point x="602" y="141"/>
      <point x="598" y="133"/>
      <point x="591" y="128" type="curve" smooth="yes"/>
      <point x="586" y="124"/>
      <point x="583" y="117"/>
      <point x="584" y="110" type="curve" smooth="yes"/>
      <point x="596" y="0" type="line"/>
      <point x="652" y="0" type="line"/>
      <point x="632" y="355" type="line"/>
      <point x="266" y="355" type="line"/>
      <point x="266" y="277" type="line"/>
      <point x="502" y="277" type="line" smooth="yes"/>
      <point x="514" y="277"/>
      <point x="524" y="283"/>
      <point x="530" y="292" type="curve" smooth="yes"/>
      <point x="535" y="300"/>
      <point x="544" y="305"/>
      <point x="554" y="305" type="curve" smooth="yes"/>
      <point x="570" y="305"/>
      <point x="582" y="293"/>
      <point x="582" y="277" type="curve" smooth="yes"/>
      <point x="582" y="267"/>
      <point x="577" y="258"/>
      <point x="569" y="253" type="curve" smooth="yes"/>
      <point x="561" y="247"/>
      <point x="555" y="237"/>
      <point x="554" y="228" type="curve" smooth="yes"/>
      <point x="535" y="136"/>
      <point x="451" y="72"/>
      <point x="348" y="72" type="curve" smooth="yes"/>
      <point x="217" y="72"/>
      <point x="124" y="179"/>
      <point x="124" y="327" type="curve" smooth="yes"/>
      <point x="124" y="473"/>
      <point x="217" y="580"/>
      <point x="344" y="580" type="curve" smooth="yes"/>
      <point x="445" y="580"/>
      <point x="525" y="512"/>
      <point x="536" y="416" type="curve"/>
      <point x="632" y="448" type="line"/>
      <point x="609" y="572"/>
      <point x="489" y="662"/>
      <point x="346" y="662" type="curve" smooth="yes"/>
      <point x="166" y="662"/>
      <point x="36" y="519"/>
      <point x="36" y="325" type="curve" smooth="yes"/>
      <point x="36" y="130"/>
      <point x="164" y="-12"/>
    </contour>
    <component base="inkstem_S" xOffset="50" yOffset="-128"/>
    <component base="inkcurve_L" xScale="0" xyScale="1" yScale="0" yxScale="-1" xOffset="626" yOffset="-70"/>
    <component base="inkcurve_L" xOffset="-21" yOffset="47"/>
    <component base="inkstem_S" yScale="-1" xOffset="52" yOffset="780"/>
    <component base="inkstem_L" xScale="0" xyScale="-1" yScale="0" yxScale="1" xOffset="70" yOffset="416"/>
    <component base="inkcurve_L" xScale="0" xyScale="-1" yScale="0" yxScale="-1" xOffset="626" yOffset="722"/>
    <component base="inkstem_S" yScale="-1" xOffset="468" yOffset="736"/>
  </outline>
</glyph>
<glyph name="H" format="2">
  <advance width="660"/>
  <unicode hex="0048"/>
  <outline>
    <contour>
      <point x="64" y="0" type="line"/>
      <point x="148" y="0" type="line"/>
      <point x="148" y="240" type="line" smooth="yes"/>
      <point x="148" y="252"/>
      <point x="142" y="262"/>
      <point x="133" y="268" type="curve" smooth="yes"/>
      <point x="125" y="273"/>
      <point x="120" y="282"/>
      <point x="120" y="292" type="curve" smooth="yes"/>
      <point x="120" y="308"/>
      <point x="132" y="320"/>
      <point x="148" y="320" type="curve" smooth="yes"/>
      <point x="158" y="320"/>
      <point x="167" y="315"/>
      <point x="172" y="307" type="curve" smooth="yes"/>
      <point x="178" y="298"/>
      <point x="188" y="292"/>
      <point x="200" y="292" type="curve" smooth="yes"/>
      <point x="460" y="292" type="line" smooth="yes"/>
      <point x="472" y="292"/>
      <point x="482" y="298"/>
      <point x="488" y="307" type="curve" smooth="yes"/>
      <point x="493" y="315"/>
      <point x="502" y="320"/>
      <point x="512" y="320" type="curve" smooth="yes"/>
      <point x="528" y="320"/>
      <point x="540" y="308"/>
      <point x="540" y="292" type="curve" smooth="yes"/>
      <point x="540" y="282"/>
      <point x="535" y="273"/>
      <point x="527" y="268" type="curve" smooth="yes"/>
      <point x="518" y="262"/>
      <point x="512" y="252"/>
      <point x="512" y="240" type="curve" smooth="yes"/>
      <point x="512" y="0" type="line"/>
      <point x="596" y="0" type="line"/>
      <point x="596" y="650" type="line"/>
      <point x="512" y="650" type="line"/>
      <point x="512" y="424" type="line" smooth="yes"/>
      <point x="512" y="412"/>
      <point x="518" y="402"/>
      <point x="527" y="396" type="curve" smooth="yes"/>
      <point x="535" y="391"/>
      <point x="540" y="382"/>
      <point x="540" y="372" type="curve" smooth="yes"/>
      <point x="540" y="356"/>
      <point x="528" y="344"/>
      <point x="512" y="344" type="curve" smooth="yes"/>
      <point x="502" y="344"/>
      <point x="493" y="349"/>
      <point x="488" y="357" type="curve" smooth="yes"/>
      <point x="482" y="366"/>
      <point x="472" y="372"/>
      <point x="460" y="372" type="curve" smooth="yes"/>
      <point x="200" y="372" type="line" smooth="yes"/>
      <point x="188" y="372"/>
      <point x="178" y="366"/>
      <point x="172" y="357" type="curve" smooth="yes"/>
      <point x="167" y="349"/>
      <point x="158" y="344"/>
      <point x="148" y="344" type="curve" smooth="yes"/>
      <point x="132" y="344"/>
      <point x="120" y="356"/>
      <point x="120" y="372" type="curve" smooth="yes"/>
      <point x="120" y="382"/>
      <point x="125" y="391"/>
      <point x="133" y="396" type="curve" smooth="yes"/>
      <point x="142" y="402"/>
      <point x="148" y="412"/>
      <point x="148" y="424" type="curve" smooth="yes"/>
      <point x="148" y="650" type="line"/>
      <point x="64" y="650" type="line"/>
    </contour>
    <component base="inkstem_M" xScale="0" xyScale="-1" yScale="0" yxScale="1" xOffset="52" yOffset="432"/>
    <component base="inkstem_M" xScale="-1" yScale="-1" xOffset="654" yOffset="846"/>
    <component base="inkstem_S" xOffset="6" yOffset="344"/>
    <component base="inkstem_S" xOffset="454" yOffset="-194"/>
    <component base="inkstem_L" xScale="-1" yScale="-1" xOffset="206" yOffset="424"/>
  </outline>
</glyph>
<glyph name="I" format="2">
  <advance width="212"/>
  <unicode hex="0049"/>
  <anchor x="148" y="0" name="ogonek"/>
  <anchor x="106" y="650" name="top"/>
  <outline>
    <contour>
      <point x="64" y="0" type="line"/>
      <point x="148" y="0" type="line"/>
      <point x="148" y="650" type="line"/>
      <point x="64" y="650" type="line"/>
    </contour>
    <component base="inkstem_M" xScale="-1" yScale="-1" xOffset="206" yOffset="360"/>
    <component base="inkstem_L" xOffset="6" yOffset="47"/>
    <component base="inkstem_S" xOffset="6" yOffset="344"/>
  </outline>
</glyph>
<glyph name="J" format="2">
  <advance width="568"/>
  <unicode hex="004A"/>
  <outline>
    <contour>
      <point x="280" y="-12" type="curve" smooth="yes"/>
      <point x="415" y="-12"/>
      <point x="512" y="88"/>
      <point x="512" y="228" type="curve" smooth="yes"/>
      <point x="512" y="650" type="line"/>
      <point x="428" y="650" type="line"/>
      <point x="428" y="228" type="line" smooth="yes"/>
      <point x="428" y="137"/>
      <point x="367" y="72"/>
      <point x="281" y="72" type="curve" smooth="yes"/>
      <point x="195" y="72"/>
      <point x="134" y="137"/>
      <point x="134" y="228" type="curve" smooth="yes"/>
      <point x="134" y="344" type="line"/>
      <point x="48" y="344" type="line"/>
      <point x="48" y="224" type="line" smooth="yes"/>
      <point x="48" y="86"/>
      <point x="145" y="-12"/>
    </contour>
    <component base="inkstem_L" xOffset="370" yOffset="47"/>
    <component base="inkcurve_L" xScale="0" xyScale="1" yScale="0" yxScale="-1" xOffset="560" yOffset="-69"/>
    <component base="inkstem_S" xOffset="36" yOffset="-156"/>
    <component base="inkstem_S" xOffset="323" yOffset="-156"/>
    <component base="inkstem_M" xScale="-1" yScale="-1" xOffset="570" yOffset="846"/>
    <component base="inkstem_M" xOffset="-9" yOffset="-16"/>
  </outline>
</glyph>
<glyph name="K" format="2">
  <advance width="604"/>
  <unicode hex="004B"/>
  <anchor x="304" y="0" name="bottom"/>
  <anchor x="148" y="0" name="ogonek"/>
  <anchor x="302" y="650" name="top"/>
  <outline>
    <contour>
      <point x="64" y="0" type="line"/>
      <point x="148" y="0" type="line"/>
      <point x="148" y="159" type="line"/>
      <point x="243" y="270" type="line" smooth="yes"/>
      <point x="247" y="275"/>
      <point x="247" y="280"/>
      <point x="244" y="285" type="curve" smooth="yes"/>
      <point x="241" y="289"/>
      <point x="240" y="294"/>
      <point x="240" y="300" type="curve" smooth="yes"/>
      <point x="240" y="316"/>
      <point x="252" y="328"/>
      <point x="268" y="328" type="curve" smooth="yes"/>
      <point x="284" y="328"/>
      <point x="296" y="316"/>
      <point x="296" y="300" type="curve" smooth="yes"/>
      <point x="296" y="294"/>
      <point x="295" y="289"/>
      <point x="292" y="285" type="curve" smooth="yes"/>
      <point x="288" y="279"/>
      <point x="287" y="272"/>
      <point x="292" y="266" type="curve" smooth="yes"/>
      <point x="490" y="0" type="line"/>
      <point x="596" y="0" type="line"/>
      <point x="352" y="329" type="line" smooth="yes"/>
      <point x="340" y="345"/>
      <point x="334" y="338"/>
      <point x="324" y="338" type="curve" smooth="yes"/>
      <point x="308" y="338"/>
      <point x="296" y="350"/>
      <point x="296" y="366" type="curve" smooth="yes"/>
      <point x="296" y="382"/>
      <point x="308" y="394"/>
      <point x="324" y="394" type="curve" smooth="yes"/>
      <point x="332" y="394"/>
      <point x="342" y="386"/>
      <point x="352" y="398" type="curve" smooth="yes"/>
      <point x="568" y="650" type="line"/>
      <point x="456" y="650" type="line"/>
      <point x="176" y="312" type="line" smooth="yes"/>
      <point x="172" y="307"/>
      <point x="171" y="300"/>
      <point x="174" y="293" type="curve" smooth="yes"/>
      <point x="175" y="290"/>
      <point x="176" y="286"/>
      <point x="176" y="282" type="curve" smooth="yes"/>
      <point x="176" y="266"/>
      <point x="164" y="254"/>
      <point x="148" y="254" type="curve" smooth="yes"/>
      <point x="132" y="254"/>
      <point x="120" y="266"/>
      <point x="120" y="282" type="curve" smooth="yes"/>
      <point x="120" y="294"/>
      <point x="127" y="304"/>
      <point x="137" y="308" type="curve" smooth="yes"/>
      <point x="144" y="310"/>
      <point x="148" y="315"/>
      <point x="148" y="321" type="curve" smooth="yes"/>
      <point x="148" y="650" type="line"/>
      <point x="64" y="650" type="line"/>
    </contour>
    <component base="inkstem_M" xScale="-1" yScale="-1" xOffset="206" yOffset="360"/>
    <component base="inkstem_L" xOffset="6" yOffset="226"/>
    <component base="inkstem_L" xScale="0.8044" xyScale="0.5941" yScale="0.8044" yxScale="-0.5941" xOffset="576" yOffset="-212"/>
    <component base="inkstem_S" xOffset="364" yOffset="344"/>
  </outline>
</glyph>
<glyph name="L" format="2">
  <advance width="508"/>
  <unicode hex="004C"/>
  <anchor x="280" y="0" name="bottom"/>
  <anchor x="116" y="650" name="top"/>
  <anchor x="276" y="470" name="topright"/>
  <outline>
    <contour>
      <point x="64" y="0" type="line"/>
      <point x="500" y="0" type="line"/>
      <point x="500" y="82" type="line"/>
      <point x="200" y="82" type="line" smooth="yes"/>
      <point x="188" y="82"/>
      <point x="178" y="76"/>
      <point x="172" y="67" type="curve" smooth="yes"/>
      <point x="167" y="59"/>
      <point x="158" y="54"/>
      <point x="148" y="54" type="curve" smooth="yes"/>
      <point x="132" y="54"/>
      <point x="120" y="66"/>
      <point x="120" y="82" type="curve" smooth="yes"/>
      <point x="120" y="92"/>
      <point x="125" y="101"/>
      <point x="133" y="106" type="curve" smooth="yes"/>
      <point x="142" y="112"/>
      <point x="148" y="122"/>
      <point x="148" y="134" type="curve" smooth="yes"/>
      <point x="148" y="650" type="line"/>
      <point x="64" y="650" type="line"/>
    </contour>
    <component base="inkstem_M" xOffset="6" yOffset="-16"/>
    <component base="inkstem_L" xOffset="6" yOffset="226"/>
    <component base="inkstem_M" xScale="0" xyScale="-1" yScale="0" yxScale="1" xOffset="40" yOffset="142"/>
    <component base="inkstem_S" xOffset="344" yOffset="-208"/>
  </outline>
</glyph>
<glyph name="M" format="2">
  <advance width="784"/>
  <unicode hex="004D"/>
  <outline>
    <contour>
      <point x="618" y="480" type="line" smooth="yes"/>
      <point x="621" y="488"/>
      <point x="620" y="496"/>
      <point x="616" y="500" type="curve" smooth="yes"/>
      <point x="611" y="505"/>
      <point x="608" y="512"/>
      <point x="608" y="520" type="curve" smooth="yes"/>
      <point x="608" y="536"/>
      <point x="620" y="548"/>
      <point x="636" y="548" type="curve" smooth="yes"/>
      <point x="652" y="548"/>
      <point x="664" y="536"/>
      <point x="664" y="520" type="curve" smooth="yes"/>
      <point x="664" y="509"/>
      <point x="658" y="500"/>
      <point x="649" y="495" type="curve" smooth="yes"/>
      <point x="641" y="492"/>
      <point x="636" y="485"/>
      <point x="636" y="477" type="curve" smooth="yes"/>
      <point x="636" y="0" type="line"/>
      <point x="720" y="0" type="line"/>
      <point x="720" y="650" type="line"/>
      <point x="598" y="650" type="line"/>
      <point x="411" y="155" type="line" smooth="yes"/>
      <point x="408" y="148"/>
      <point x="410" y="141"/>
      <point x="416" y="136" type="curve" smooth="yes"/>
      <point x="421" y="131"/>
      <point x="424" y="124"/>
      <point x="424" y="116" type="curve" smooth="yes"/>
      <point x="424" y="100"/>
      <point x="412" y="88"/>
      <point x="396" y="88" type="curve" smooth="yes"/>
      <point x="380" y="88"/>
      <point x="368" y="100"/>
      <point x="368" y="116" type="curve" smooth="yes"/>
      <point x="368" y="124"/>
      <point x="371" y="131"/>
      <point x="376" y="136" type="curve" smooth="yes"/>
      <point x="382" y="141"/>
      <point x="384" y="148"/>
      <point x="381" y="155" type="curve" smooth="yes"/>
      <point x="190" y="650" type="line"/>
      <point x="64" y="650" type="line"/>
      <point x="64" y="0" type="line"/>
      <point x="148" y="0" type="line"/>
      <point x="148" y="477" type="line" smooth="yes"/>
      <point x="148" y="485"/>
      <point x="143" y="492"/>
      <point x="135" y="495" type="curve" smooth="yes"/>
      <point x="126" y="500"/>
      <point x="120" y="509"/>
      <point x="120" y="520" type="curve" smooth="yes"/>
      <point x="120" y="536"/>
      <point x="132" y="548"/>
      <point x="148" y="548" type="curve" smooth="yes"/>
      <point x="164" y="548"/>
      <point x="176" y="536"/>
      <point x="176" y="520" type="curve" smooth="yes"/>
      <point x="176" y="512"/>
      <point x="173" y="505"/>
      <point x="168" y="500" type="curve" smooth="yes"/>
      <point x="164" y="496"/>
      <point x="164" y="489"/>
      <point x="166" y="483" type="curve" smooth="yes"/>
      <point x="354" y="2" type="line"/>
      <point x="436" y="2" type="line"/>
    </contour>
    <component base="inkstem_L" xOffset="6" yOffset="47"/>
    <component base="inkstem_L" xOffset="578" yOffset="47"/>
    <component base="inkstem_M" xScale="0.9336" xyScale="0.3584" yScale="0.9336" yxScale="-0.3584" xOffset="304" yOffset="-37"/>
    <component base="inkstem_M" xScale="-0.9336" xyScale="0.3584" yScale="0.9336" yxScale="0.3584" xOffset="486" yOffset="-37"/>
    <component base="inkstem_S" xOffset="451" yOffset="165"/>
    <component base="inkstem_S" xOffset="137" yOffset="165"/>
    <component base="inkstem_M" xOffset="578" yOffset="-196"/>
    <component base="inkstem_M" xOffset="6" yOffset="-196"/>
  </outline>
</glyph>
<glyph name="N" format="2">
  <advance width="660"/>
  <unicode hex="004E"/>
  <anchor x="324" y="0" name="bottom"/>
  <anchor x="332" y="650" name="top"/>
  <outline>
    <contour>
      <point x="64" y="0" type="line"/>
      <point x="148" y="0" type="line"/>
      <point x="148" y="476" type="line" smooth="yes"/>
      <point x="148" y="484"/>
      <point x="145" y="491"/>
      <point x="137" y="494" type="curve" smooth="yes"/>
      <point x="127" y="498"/>
      <point x="120" y="509"/>
      <point x="120" y="520" type="curve" smooth="yes"/>
      <point x="120" y="536"/>
      <point x="132" y="548"/>
      <point x="148" y="548" type="curve" smooth="yes"/>
      <point x="164" y="548"/>
      <point x="176" y="536"/>
      <point x="176" y="520" type="curve" smooth="yes"/>
      <point x="176" y="514"/>
      <point x="175" y="509"/>
      <point x="172" y="505" type="curve" smooth="yes"/>
      <point x="168" y="499"/>
      <point x="168" y="493"/>
      <point x="172" y="488" type="curve" smooth="yes"/>
      <point x="500" y="0" type="line"/>
      <point x="596" y="0" type="line"/>
      <point x="596" y="650" type="line"/>
      <point x="512" y="650" type="line"/>
      <point x="512" y="170" type="line" smooth="yes"/>
      <point x="512" y="162"/>
      <point x="515" y="155"/>
      <point x="523" y="152" type="curve" smooth="yes"/>
      <point x="533" y="148"/>
      <point x="540" y="137"/>
      <point x="540" y="126" type="curve" smooth="yes"/>
      <point x="540" y="110"/>
      <point x="528" y="98"/>
      <point x="512" y="98" type="curve" smooth="yes"/>
      <point x="496" y="98"/>
      <point x="484" y="110"/>
      <point x="484" y="126" type="curve" smooth="yes"/>
      <point x="484" y="132"/>
      <point x="485" y="137"/>
      <point x="488" y="141" type="curve" smooth="yes"/>
      <point x="492" y="147"/>
      <point x="492" y="153"/>
      <point x="488" y="160" type="curve" smooth="yes"/>
      <point x="168" y="650" type="line"/>
      <point x="64" y="650" type="line"/>
    </contour>
    <component base="inkstem_M" xOffset="6" yOffset="-196"/>
    <component base="inkstem_M" xOffset="454" yOffset="290"/>
    <component base="inkstem_L" xOffset="454" yOffset="47"/>
    <component base="inkstem_L" xOffset="6" yOffset="47"/>
    <component base="inkstem_M" xScale="0.8339" xyScale="0.5519" yScale="0.8339" yxScale="-0.5519" xOffset="449" yOffset="-34"/>
    <component base="inkstem_S" xOffset="171" yOffset="165"/>
  </outline>
</glyph>
<glyph name="O" format="2">
  <advance width="704"/>
  <unicode hex="004F"/>
  <anchor x="352" y="650" name="top"/>
  <outline>
    <contour>
      <point x="352" y="-12" type="curve" smooth="yes"/>
      <point x="535" y="-12"/>
      <point x="668" y="130"/>
      <point x="668" y="325" type="curve" smooth="yes"/>
      <point x="668" y="520"/>
      <point x="535" y="662"/>
      <point x="352" y="662" type="curve" smooth="yes"/>
      <point x="169" y="662"/>
      <point x="36" y="520"/>
      <point x="36" y="325" type="curve" smooth="yes"/>
      <point x="36" y="130"/>
      <point x="169" y="-12"/>
    </contour>
    <contour>
      <point x="352" y="72" type="curve" smooth="yes"/>
      <point x="220" y="72"/>
      <point x="124" y="178"/>
      <point x="124" y="325" type="curve" smooth="yes"/>
      <point x="124" y="473"/>
      <point x="220" y="580"/>
      <point x="352" y="580" type="curve" smooth="yes"/>
      <point x="484" y="580"/>
      <point x="580" y="473"/>
      <point x="580" y="325" type="curve" smooth="yes"/>
      <point x="580" y="178"/>
      <point x="484" y="72"/>
    </contour>
    <component base="inkstem_S" xOffset="50" yOffset="-128"/>
    <component base="inkcurve_L" xScale="0" xyScale="1" yScale="0" yxScale="-1" xOffset="630" yOffset="-70"/>
    <component base="inkcurve_L" xOffset="-21" yOffset="47"/>
    <component base="inkstem_S" xOffset="452" yOffset="-128"/>
    <component base="inkstem_S" yScale="-1" xOffset="52" yOffset="780"/>
    <component base="inkcurve_L" xScale="-1" xOffset="725" yOffset="47"/>
    <component base="inkcurve_L" xScale="0" xyScale="-1" yScale="0" yxScale="-1" xOffset="630" yOffset="722"/>
    <component base="inkstem_S" yScale="-1" xOffset="450" yOffset="780"/>
  </outline>
</glyph>
<glyph name="P" format="2">
  <advance width="560"/>
  <unicode hex="0050"/>
  <outline>
    <contour>
      <point x="64" y="0" type="line"/>
      <point x="148" y="0" type="line"/>
      <point x="148" y="188" type="line" smooth="yes"/>
      <point x="148" y="200"/>
      <point x="142" y="210"/>
      <point x="133" y="216" type="curve" smooth="yes"/>
      <point x="125" y="221"/>
      <point x="120" y="230"/>
      <point x="120" y="240" type="curve" smooth="yes"/>
      <point x="120" y="256"/>
      <point x="132" y="268"/>
      <point x="148" y="268" type="curve" smooth="yes"/>
      <point x="158" y="268"/>
      <point x="167" y="263"/>
      <point x="172" y="255" type="curve" smooth="yes"/>
      <point x="178" y="246"/>
      <point x="188" y="240"/>
      <point x="200" y="240" type="curve" smooth="yes"/>
      <point x="334" y="240" type="line" smooth="yes"/>
      <point x="453" y="240"/>
      <point x="540" y="327"/>
      <point x="540" y="446" type="curve" smooth="yes"/>
      <point x="540" y="564"/>
      <point x="455" y="650"/>
      <point x="338" y="650" type="curve" smooth="yes"/>
      <point x="64" y="650" type="line"/>
    </contour>
    <contour>
      <point x="148" y="292" type="curve" smooth="yes"/>
      <point x="132" y="292"/>
      <point x="120" y="304"/>
      <point x="120" y="320" type="curve" smooth="yes"/>
      <point x="120" y="330"/>
      <point x="125" y="339"/>
      <point x="133" y="344" type="curve" smooth="yes"/>
      <point x="142" y="350"/>
      <point x="148" y="360"/>
      <point x="148" y="372" type="curve" smooth="yes"/>
      <point x="148" y="518" type="line" smooth="yes"/>
      <point x="148" y="530"/>
      <point x="142" y="540"/>
      <point x="133" y="546" type="curve" smooth="yes"/>
      <point x="125" y="551"/>
      <point x="120" y="560"/>
      <point x="120" y="570" type="curve" smooth="yes"/>
      <point x="120" y="586"/>
      <point x="132" y="598"/>
      <point x="148" y="598" type="curve" smooth="yes"/>
      <point x="158" y="598"/>
      <point x="167" y="593"/>
      <point x="172" y="585" type="curve" smooth="yes"/>
      <point x="178" y="576"/>
      <point x="188" y="570"/>
      <point x="200" y="570" type="curve" smooth="yes"/>
      <point x="334" y="570" type="line" smooth="yes"/>
      <point x="402" y="570"/>
      <point x="452" y="518"/>
      <point x="452" y="445" type="curve" smooth="yes"/>
      <point x="452" y="372"/>
      <point x="402" y="320"/>
      <point x="334" y="320" type="curve" smooth="yes"/>
      <point x="200" y="320" type="line" smooth="yes"/>
      <point x="188" y="320"/>
      <point x="178" y="314"/>
      <point x="172" y="305" type="curve" smooth="yes"/>
      <point x="167" y="297"/>
      <point x="158" y="292"/>
    </contour>
    <component base="inkstem_M" xScale="-1" yScale="-1" xOffset="206" yOffset="360"/>
    <component base="inkstem_S" xOffset="184" yOffset="30"/>
    <component base="inkstem_S" xOffset="324" yOffset="56"/>
    <component base="inkstem_M" xScale="0" xyScale="-1" yScale="0" yxScale="1" xOffset="16" yOffset="710"/>
    <component base="inkcurve_L" xScale="-1" xOffset="597" yOffset="168"/>
    <component base="inkstem_S" xOffset="337" yOffset="325"/>
  </outline>
</glyph>
<glyph name="Q" format="2">
  <advance width="704"/>
  <unicode hex="0051"/>
  <outline>
    <contour>
      <point x="580" y="-52" type="line"/>
      <point x="648" y="0" type="line"/>
      <point x="583" y="82" type="line"/>
      <point x="637" y="140"/>
      <point x="668" y="223"/>
      <point x="668" y="321" type="curve" smooth="yes"/>
      <point x="668" y="521"/>
      <point x="538" y="662"/>
      <point x="354" y="662" type="curve" smooth="yes"/>
      <point x="168" y="662"/>
      <point x="36" y="522"/>
      <point x="36" y="323" type="curve" smooth="yes"/>
      <point x="36" y="127"/>
      <point x="169" y="-12"/>
      <point x="356" y="-12" type="curve" smooth="yes"/>
      <point x="405" y="-12"/>
      <point x="450" y="-3"/>
      <point x="490" y="15" type="curve" smooth="yes"/>
      <point x="500" y="20"/>
      <point x="496" y="27"/>
      <point x="496" y="36" type="curve" smooth="yes"/>
      <point x="496" y="52"/>
      <point x="508" y="64"/>
      <point x="524" y="64" type="curve" smooth="yes"/>
      <point x="540" y="64"/>
      <point x="552" y="52"/>
      <point x="552" y="36" type="curve" smooth="yes"/>
      <point x="552" y="29"/>
      <point x="549" y="22"/>
      <point x="545" y="17" type="curve" smooth="yes"/>
      <point x="541" y="12"/>
      <point x="541" y="5"/>
      <point x="545" y="-1" type="curve" smooth="yes"/>
    </contour>
    <contour>
      <point x="356" y="72" type="curve" smooth="yes"/>
      <point x="220" y="72"/>
      <point x="124" y="176"/>
      <point x="124" y="323" type="curve" smooth="yes"/>
      <point x="124" y="474"/>
      <point x="219" y="580"/>
      <point x="354" y="580" type="curve" smooth="yes"/>
      <point x="486" y="580"/>
      <point x="580" y="473"/>
      <point x="580" y="321" type="curve" smooth="yes"/>
      <point x="580" y="272"/>
      <point x="570" y="229"/>
      <point x="553" y="192" type="curve" smooth="yes"/>
      <point x="549" y="184"/>
      <point x="549" y="175"/>
      <point x="553" y="169" type="curve" smooth="yes"/>
      <point x="556" y="165"/>
      <point x="557" y="160"/>
      <point x="557" y="154" type="curve" smooth="yes"/>
      <point x="557" y="138"/>
      <point x="545" y="126"/>
      <point x="529" y="126" type="curve" smooth="yes"/>
      <point x="513" y="126"/>
      <point x="501" y="138"/>
      <point x="501" y="154" type="curve" smooth="yes"/>
      <point x="501" y="159"/>
      <point x="502" y="164"/>
      <point x="505" y="169" type="curve" smooth="yes"/>
      <point x="509" y="175"/>
      <point x="509" y="183"/>
      <point x="504" y="189" type="curve" smooth="yes"/>
      <point x="436" y="284" type="line"/>
      <point x="358" y="390" type="line"/>
      <point x="292" y="334" type="line"/>
      <point x="470" y="102" type="line"/>
      <point x="438" y="82"/>
      <point x="399" y="72"/>
    </contour>
    <component base="inkstem_S" xOffset="50" yOffset="-128"/>
    <component base="inkcurve_L" xScale="0" xyScale="1" yScale="0" yxScale="-1" xOffset="630" yOffset="-70"/>
    <component base="inkcurve_L" xOffset="-21" yOffset="47"/>
    <component base="inkstem_M" xScale="0.7934" xyScale="0.6087" yScale="0.7934" yxScale="-0.6087" xOffset="465" yOffset="14"/>
    <component base="inkstem_S" yScale="-1" xOffset="52" yOffset="780"/>
    <component base="inkcurve_L" xScale="-1" xOffset="725" yOffset="47"/>
    <component base="inkcurve_L" xScale="0" xyScale="-1" yScale="0" yxScale="-1" xOffset="630" yOffset="722"/>
    <component base="inkstem_S" yScale="-1" xOffset="450" yOffset="780"/>
  </outline>
</glyph>
<glyph name="R" format="2">
  <advance width="604"/>
  <unicode hex="0052"/>
  <anchor x="300" y="0" name="bottom"/>
  <anchor x="296" y="650" name="top"/>
  <outline>
    <contour>
      <point x="64" y="0" type="line"/>
      <point x="148" y="0" type="line"/>
      <point x="148" y="209" type="line" smooth="yes"/>
      <point x="148" y="221"/>
      <point x="142" y="231"/>
      <point x="133" y="237" type="curve" smooth="yes"/>
      <point x="125" y="242"/>
      <point x="120" y="251"/>
      <point x="120" y="261" type="curve" smooth="yes"/>
      <point x="120" y="277"/>
      <point x="132" y="289"/>
      <point x="148" y="289" type="curve" smooth="yes"/>
      <point x="158" y="289"/>
      <point x="167" y="284"/>
      <point x="172" y="276" type="curve" smooth="yes"/>
      <point x="178" y="267"/>
      <point x="188" y="261"/>
      <point x="200" y="261" type="curve" smooth="yes"/>
      <point x="332" y="261" type="line"/>
      <point x="472" y="0" type="line"/>
      <point x="572" y="0" type="line"/>
      <point x="442" y="233" type="line" smooth="yes"/>
      <point x="434" y="247"/>
      <point x="430" y="242"/>
      <point x="420" y="242" type="curve" smooth="yes"/>
      <point x="404" y="242"/>
      <point x="392" y="254"/>
      <point x="392" y="270" type="curve" smooth="yes"/>
      <point x="392" y="286"/>
      <point x="404" y="298"/>
      <point x="420" y="298" type="curve" smooth="yes"/>
      <point x="429" y="298"/>
      <point x="437" y="294"/>
      <point x="442" y="288" type="curve" smooth="yes"/>
      <point x="446" y="282"/>
      <point x="452" y="280"/>
      <point x="459" y="284" type="curve" smooth="yes"/>
      <point x="520" y="316"/>
      <point x="556" y="377"/>
      <point x="556" y="455" type="curve" smooth="yes"/>
      <point x="556" y="568"/>
      <point x="475" y="650"/>
      <point x="362" y="650" type="curve" smooth="yes"/>
      <point x="64" y="650" type="line"/>
    </contour>
    <contour>
      <point x="148" y="311" type="curve" smooth="yes"/>
      <point x="132" y="311"/>
      <point x="120" y="323"/>
      <point x="120" y="339" type="curve" smooth="yes"/>
      <point x="120" y="349"/>
      <point x="125" y="358"/>
      <point x="133" y="363" type="curve" smooth="yes"/>
      <point x="142" y="369"/>
      <point x="148" y="379"/>
      <point x="148" y="391" type="curve" smooth="yes"/>
      <point x="148" y="518" type="line" smooth="yes"/>
      <point x="148" y="530"/>
      <point x="142" y="540"/>
      <point x="133" y="546" type="curve" smooth="yes"/>
      <point x="125" y="551"/>
      <point x="120" y="560"/>
      <point x="120" y="570" type="curve" smooth="yes"/>
      <point x="120" y="586"/>
      <point x="132" y="598"/>
      <point x="148" y="598" type="curve" smooth="yes"/>
      <point x="158" y="598"/>
      <point x="167" y="593"/>
      <point x="172" y="585" type="curve" smooth="yes"/>
      <point x="178" y="576"/>
      <point x="188" y="570"/>
      <point x="200" y="570" type="curve" smooth="yes"/>
      <point x="358" y="570" type="line" smooth="yes"/>
      <point x="422" y="570"/>
      <point x="468" y="521"/>
      <point x="468" y="454" type="curve" smooth="yes"/>
      <point x="468" y="387"/>
      <point x="420" y="339"/>
      <point x="354" y="339" type="curve" smooth="yes"/>
      <point x="200" y="339" type="line" smooth="yes"/>
      <point x="188" y="339"/>
      <point x="178" y="333"/>
      <point x="172" y="324" type="curve" smooth="yes"/>
      <point x="167" y="316"/>
      <point x="158" y="311"/>
    </contour>
    <component base="inkstem_M" xScale="-1" yScale="-1" xOffset="206" yOffset="360"/>
    <component base="inkstem_L" xScale="-0.8826" xyScale="-0.4702" yScale="-0.8826" yxScale="0.4702" xOffset="408" yOffset="424"/>
    <component base="inkstem_S" xOffset="184" yOffset="50"/>
    <component base="inkstem_M" xScale="0" xyScale="-1" yScale="0" yxScale="1" xOffset="16" yOffset="710"/>
    <component base="inkcurve_L" xScale="-1" xOffset="612" yOffset="174"/>
    <component base="inkstem_S" xOffset="349" yOffset="332"/>
  </outline>
</glyph>
<glyph name="S" format="2">
  <advance width="572"/>
  <unicode hex="0053"/>
  <note>
Stretta?
</note>
  <anchor x="292" y="0" name="bottom"/>
  <anchor x="288" y="650" name="top"/>
  <outline>
    <contour>
      <point x="300" y="-12" type="curve" smooth="yes"/>
      <point x="441" y="-12"/>
      <point x="536" y="65"/>
      <point x="536" y="176" type="curve" smooth="yes"/>
      <point x="536" y="400"/>
      <point x="156" y="360"/>
      <point x="156" y="496" type="curve" smooth="yes"/>
      <point x="156" y="548"/>
      <point x="212" y="582"/>
      <point x="276" y="582" type="curve" smooth="yes"/>
      <point x="356" y="582"/>
      <point x="412" y="530"/>
      <point x="420" y="462" type="curve"/>
      <point x="512" y="488" type="line"/>
      <point x="500" y="592"/>
      <point x="406" y="662"/>
      <point x="282" y="662" type="curve" smooth="yes"/>
      <point x="160" y="662"/>
      <point x="64" y="596"/>
      <point x="64" y="492" type="curve" smooth="yes"/>
      <point x="64" y="284"/>
      <point x="444" y="331"/>
      <point x="444" y="176" type="curve" smooth="yes"/>
      <point x="444" y="114"/>
      <point x="382" y="70"/>
      <point x="302" y="70" type="curve" smooth="yes"/>
      <point x="203" y="70"/>
      <point x="132" y="136"/>
      <point x="128" y="228" type="curve"/>
      <point x="36" y="204" type="line"/>
      <point x="44" y="76"/>
      <point x="153" y="-12"/>
    </contour>
    <component base="inkstem_S" yScale="-1" xOffset="-6" yOffset="412"/>
    <component base="inkcurve_L" xScale="0" xyScale="1" yScale="0" yxScale="-1" xOffset="584" yOffset="-72"/>
    <component base="inkcurve_S" xOffset="12" yOffset="220"/>
    <component base="inkstem_L" xScale="0.3428" xyScale="0.9394" yScale="0.3428" yxScale="-0.9394" xOffset="556" yOffset="142"/>
    <component base="inkcurve_S" xScale="-1" xOffset="588" yOffset="-104"/>
    <component base="inkcurve_L" xScale="0" xyScale="-1" yScale="0" yxScale="-1" xOffset="554" yOffset="722"/>
    <component base="inkstem_S" yScale="-1" xOffset="348" yOffset="778"/>
  </outline>
</glyph>
<glyph name="T" format="2">
  <advance width="556"/>
  <unicode hex="0054"/>
  <anchor x="280" y="0" name="bottom"/>
  <anchor x="280" y="650" name="top"/>
  <outline>
    <contour>
      <point x="236" y="0" type="line"/>
      <point x="320" y="0" type="line"/>
      <point x="320" y="518" type="line" smooth="yes"/>
      <point x="320" y="530"/>
      <point x="314" y="540"/>
      <point x="305" y="546" type="curve" smooth="yes"/>
      <point x="297" y="551"/>
      <point x="292" y="560"/>
      <point x="292" y="570" type="curve" smooth="yes"/>
      <point x="292" y="586"/>
      <point x="304" y="598"/>
      <point x="320" y="598" type="curve" smooth="yes"/>
      <point x="330" y="598"/>
      <point x="339" y="593"/>
      <point x="344" y="585" type="curve" smooth="yes"/>
      <point x="350" y="576"/>
      <point x="360" y="570"/>
      <point x="372" y="570" type="curve" smooth="yes"/>
      <point x="554" y="570" type="line"/>
      <point x="554" y="650" type="line"/>
      <point x="2" y="650" type="line"/>
      <point x="2" y="570" type="line"/>
      <point x="184" y="570" type="line" smooth="yes"/>
      <point x="196" y="570"/>
      <point x="206" y="576"/>
      <point x="212" y="585" type="curve" smooth="yes"/>
      <point x="217" y="593"/>
      <point x="226" y="598"/>
      <point x="236" y="598" type="curve" smooth="yes"/>
      <point x="252" y="598"/>
      <point x="264" y="586"/>
      <point x="264" y="570" type="curve" smooth="yes"/>
      <point x="264" y="560"/>
      <point x="259" y="551"/>
      <point x="251" y="546" type="curve" smooth="yes"/>
      <point x="242" y="540"/>
      <point x="236" y="530"/>
      <point x="236" y="518" type="curve" smooth="yes"/>
    </contour>
    <component base="inkstem_S" xOffset="178" yOffset="-194"/>
    <component base="inkstem_L" xOffset="178" yOffset="-16"/>
    <component base="inkstem_M" xScale="0" xyScale="-1" yScale="0" yxScale="1" xOffset="-194" yOffset="710"/>
    <component base="inkstem_M" xScale="0" xyScale="-1" yScale="0" yxScale="1" xOffset="194" yOffset="710"/>
  </outline>
</glyph>
<glyph name="U" format="2">
  <advance width="636"/>
  <unicode hex="0055"/>
  <anchor x="448" y="0" name="ogonek"/>
  <anchor x="320" y="650" name="top"/>
  <outline>
    <contour>
      <point x="318" y="-12" type="curve" smooth="yes"/>
      <point x="470" y="-12"/>
      <point x="580" y="103"/>
      <point x="580" y="262" type="curve" smooth="yes"/>
      <point x="580" y="650" type="line"/>
      <point x="496" y="650" type="line"/>
      <point x="496" y="264" type="line" smooth="yes"/>
      <point x="496" y="153"/>
      <point x="421" y="72"/>
      <point x="318" y="72" type="curve" smooth="yes"/>
      <point x="215" y="72"/>
      <point x="140" y="153"/>
      <point x="140" y="264" type="curve" smooth="yes"/>
      <point x="140" y="650" type="line"/>
      <point x="56" y="650" type="line"/>
      <point x="56" y="262" type="line" smooth="yes"/>
      <point x="56" y="103"/>
      <point x="166" y="-12"/>
    </contour>
    <component base="inkstem_S" xOffset="40" yOffset="-130"/>
    <component base="inkcurve_L" xScale="0" xyScale="1" yScale="0" yxScale="-1" xOffset="596" yOffset="-70"/>
    <component base="inkstem_M" xOffset="-3" yOffset="48"/>
    <component base="inkstem_S" xOffset="394" yOffset="-130"/>
    <component base="inkstem_L" xOffset="-3" yOffset="226"/>
    <component base="inkstem_M" xOffset="437" yOffset="48"/>
    <component base="inkstem_L" xOffset="437" yOffset="226"/>
  </outline>
</glyph>
<glyph name="V" format="2">
  <advance width="576"/>
  <unicode hex="0056"/>
  <outline>
    <contour>
      <point x="242" y="0" type="line"/>
      <point x="338" y="0" type="line"/>
      <point x="572" y="650" type="line"/>
      <point x="482" y="650" type="line"/>
      <point x="305" y="140" type="line" smooth="yes"/>
      <point x="303" y="134"/>
      <point x="305" y="128"/>
      <point x="310" y="124" type="curve" smooth="yes"/>
      <point x="316" y="119"/>
      <point x="320" y="111"/>
      <point x="320" y="102" type="curve" smooth="yes"/>
      <point x="320" y="86"/>
      <point x="308" y="74"/>
      <point x="292" y="74" type="curve" smooth="yes"/>
      <point x="276" y="74"/>
      <point x="264" y="86"/>
      <point x="264" y="102" type="curve" smooth="yes"/>
      <point x="264" y="111"/>
      <point x="267" y="119"/>
      <point x="274" y="124" type="curve" smooth="yes"/>
      <point x="279" y="128"/>
      <point x="280" y="134"/>
      <point x="278" y="140" type="curve" smooth="yes"/>
      <point x="96" y="650" type="line"/>
      <point x="4" y="650" type="line"/>
    </contour>
    <component base="inkstem_S" xOffset="100" yOffset="-14"/>
    <component base="inkstem_M" xScale="-0.9385" xyScale="-0.3453" yScale="0.9385" yxScale="-0.3453" xOffset="333" yOffset="166"/>
    <component base="inkstem_S" xOffset="280" yOffset="-14"/>
    <component base="inkstem_S" xOffset="-30" yOffset="344"/>
    <component base="inkstem_M" xScale="0.9385" xyScale="-0.3453" yScale="0.9385" yxScale="0.3453" xOffset="246" yOffset="166"/>
    <component base="inkstem_S" xOffset="407" yOffset="344"/>
  </outline>
</glyph>
<glyph name="W" format="2">
  <advance width="760"/>
  <unicode hex="0057"/>
  <note>
make alternate
</note>
  <outline>
    <contour>
      <point x="130" y="0" type="line"/>
      <point x="246" y="0" type="line"/>
      <point x="371" y="478" type="line" smooth="yes"/>
      <point x="373" y="485"/>
      <point x="371" y="493"/>
      <point x="364" y="498" type="curve" smooth="yes"/>
      <point x="358" y="503"/>
      <point x="354" y="511"/>
      <point x="354" y="520" type="curve" smooth="yes"/>
      <point x="354" y="536"/>
      <point x="366" y="548"/>
      <point x="382" y="548" type="curve" smooth="yes"/>
      <point x="398" y="548"/>
      <point x="410" y="536"/>
      <point x="410" y="520" type="curve" smooth="yes"/>
      <point x="410" y="511"/>
      <point x="407" y="503"/>
      <point x="400" y="498" type="curve" smooth="yes"/>
      <point x="393" y="493"/>
      <point x="391" y="484"/>
      <point x="393" y="477" type="curve" smooth="yes"/>
      <point x="514" y="0" type="line"/>
      <point x="628" y="0" type="line"/>
      <point x="720" y="650" type="line"/>
      <point x="634" y="650" type="line"/>
      <point x="570" y="152" type="line" smooth="yes"/>
      <point x="568" y="140"/>
      <point x="571" y="136"/>
      <point x="577" y="133" type="curve" smooth="yes"/>
      <point x="586" y="128"/>
      <point x="592" y="119"/>
      <point x="592" y="108" type="curve" smooth="yes"/>
      <point x="592" y="92"/>
      <point x="580" y="80"/>
      <point x="564" y="80" type="curve" smooth="yes"/>
      <point x="548" y="80"/>
      <point x="536" y="92"/>
      <point x="536" y="108" type="curve" smooth="yes"/>
      <point x="536" y="117"/>
      <point x="540" y="125"/>
      <point x="546" y="130" type="curve" smooth="yes"/>
      <point x="553" y="136"/>
      <point x="555" y="142"/>
      <point x="553" y="151" type="curve" smooth="yes"/>
      <point x="430" y="648" type="line"/>
      <point x="338" y="648" type="line"/>
      <point x="209" y="151" type="line" smooth="yes"/>
      <point x="207" y="142"/>
      <point x="209" y="136"/>
      <point x="216" y="130" type="curve" smooth="yes"/>
      <point x="222" y="125"/>
      <point x="226" y="117"/>
      <point x="226" y="108" type="curve" smooth="yes"/>
      <point x="226" y="92"/>
      <point x="214" y="80"/>
      <point x="198" y="80" type="curve" smooth="yes"/>
      <point x="182" y="80"/>
      <point x="170" y="92"/>
      <point x="170" y="108" type="curve" smooth="yes"/>
      <point x="170" y="119"/>
      <point x="176" y="128"/>
      <point x="185" y="133" type="curve" smooth="yes"/>
      <point x="191" y="136"/>
      <point x="194" y="140"/>
      <point x="192" y="152" type="curve" smooth="yes"/>
      <point x="128" y="650" type="line"/>
      <point x="40" y="650" type="line"/>
    </contour>
    <component base="inkstem_S" xOffset="38" yOffset="-14"/>
    <component base="inkstem_S" xOffset="-9" yOffset="344"/>
    <component base="inkstem_S" xOffset="521" yOffset="-14"/>
    <component base="inkstem_S" xOffset="569" yOffset="344"/>
    <component base="inkstem_L" xScale="0.9716" xyScale="0.2367" yScale="0.9716" yxScale="-0.2367" xOffset="439" yOffset="31"/>
    <component base="inkstem_L" xScale="0.9683" xyScale="-0.2497" yScale="0.9683" yxScale="0.2497" xOffset="127" yOffset="80"/>
    <component base="inkstem_M" xScale="0.9905" xyScale="0.1377" yScale="0.9905" yxScale="-0.1377" xOffset="57" yOffset="100"/>
    <component base="inkstem_M" xScale="0.9912" xyScale="-0.1323" yScale="0.9912" yxScale="0.1323" xOffset="506" yOffset="127"/>
  </outline>
</glyph>
<glyph name="X" format="2">
  <advance width="596"/>
  <unicode hex="0058"/>
  <outline>
    <contour>
      <point x="8" y="0" type="line"/>
      <point x="116" y="0" type="line"/>
      <point x="278" y="234" type="line" smooth="yes"/>
      <point x="281" y="239"/>
      <point x="280" y="246"/>
      <point x="276" y="251" type="curve" smooth="yes"/>
      <point x="272" y="256"/>
      <point x="269" y="263"/>
      <point x="269" y="270" type="curve" smooth="yes"/>
      <point x="269" y="286"/>
      <point x="281" y="298"/>
      <point x="297" y="298" type="curve" smooth="yes"/>
      <point x="313" y="298"/>
      <point x="325" y="286"/>
      <point x="325" y="270" type="curve" smooth="yes"/>
      <point x="325" y="263"/>
      <point x="322" y="256"/>
      <point x="318" y="251" type="curve" smooth="yes"/>
      <point x="312" y="245"/>
      <point x="312" y="238"/>
      <point x="316" y="232" type="curve" smooth="yes"/>
      <point x="484" y="0" type="line"/>
      <point x="588" y="0" type="line"/>
      <point x="348" y="332" type="line"/>
      <point x="572" y="650" type="line"/>
      <point x="468" y="650" type="line"/>
      <point x="318" y="432" type="line" smooth="yes"/>
      <point x="314" y="426"/>
      <point x="314" y="419"/>
      <point x="320" y="413" type="curve" smooth="yes"/>
      <point x="324" y="408"/>
      <point x="327" y="401"/>
      <point x="327" y="394" type="curve" smooth="yes"/>
      <point x="327" y="378"/>
      <point x="315" y="366"/>
      <point x="299" y="366" type="curve" smooth="yes"/>
      <point x="283" y="366"/>
      <point x="271" y="378"/>
      <point x="271" y="394" type="curve" smooth="yes"/>
      <point x="271" y="401"/>
      <point x="274" y="408"/>
      <point x="278" y="413" type="curve" smooth="yes"/>
      <point x="282" y="418"/>
      <point x="283" y="424"/>
      <point x="280" y="429" type="curve" smooth="yes"/>
      <point x="120" y="650" type="line"/>
      <point x="14" y="650" type="line"/>
      <point x="244" y="332" type="line"/>
    </contour>
    <component base="inkstem_M" xScale="0.8238" xyScale="-0.5669" yScale="0.8238" yxScale="0.5669" xOffset="-127" yOffset="-100"/>
    <component base="inkstem_M" xScale="0.809" xyScale="0.5878" yScale="0.809" yxScale="-0.5878" xOffset="566" yOffset="-212"/>
    <component base="inkstem_L" xScale="0.8095" xyScale="0.5872" yScale="0.8095" yxScale="-0.5872" xOffset="239" yOffset="243"/>
    <component base="inkstem_L" xScale="0.8172" xyScale="-0.5763" yScale="0.8172" yxScale="0.5763" xOffset="191" yOffset="356"/>
  </outline>
</glyph>
<glyph name="Y" format="2">
  <advance width="560"/>
  <unicode hex="0059"/>
  <anchor x="288" y="650" name="top"/>
  <outline>
    <contour>
      <point x="247" y="0" type="line"/>
      <point x="331" y="0" type="line"/>
      <point x="331" y="196" type="line"/>
      <point x="558" y="650" type="line"/>
      <point x="462" y="650" type="line"/>
      <point x="306" y="331" type="line" smooth="yes"/>
      <point x="304" y="326"/>
      <point x="305" y="320"/>
      <point x="310" y="315" type="curve" smooth="yes"/>
      <point x="314" y="310"/>
      <point x="317" y="303"/>
      <point x="317" y="296" type="curve" smooth="yes"/>
      <point x="317" y="280"/>
      <point x="305" y="268"/>
      <point x="289" y="268" type="curve" smooth="yes"/>
      <point x="273" y="268"/>
      <point x="261" y="280"/>
      <point x="261" y="296" type="curve" smooth="yes"/>
      <point x="261" y="303"/>
      <point x="264" y="310"/>
      <point x="268" y="315" type="curve" smooth="yes"/>
      <point x="272" y="320"/>
      <point x="273" y="326"/>
      <point x="270" y="331" type="curve" smooth="yes"/>
      <point x="100" y="650" type="line"/>
      <point x="2" y="650" type="line"/>
      <point x="247" y="196" type="line"/>
    </contour>
    <component base="inkstem_M" xOffset="189" yOffset="-196"/>
    <component base="inkstem_M" xScale="0.8793" xyScale="0.4763" yScale="0.8793" yxScale="-0.4763" xOffset="230" yOffset="106"/>
    <component base="inkstem_S" xOffset="-19" yOffset="344"/>
    <component base="inkstem_M" xScale="-0.891" xyScale="0.454" yScale="0.891" yxScale="0.454" xOffset="348" yOffset="105"/>
    <component base="inkstem_S" xOffset="382" yOffset="344"/>
  </outline>
</glyph>
<glyph name="Z" format="2">
  <advance width="588"/>
  <unicode hex="005A"/>
  <anchor x="296" y="650" name="top"/>
  <outline>
    <contour>
      <point x="40" y="0" type="line"/>
      <point x="548" y="0" type="line"/>
      <point x="548" y="82" type="line"/>
      <point x="190" y="82" type="line" smooth="yes"/>
      <point x="182" y="82"/>
      <point x="176" y="78"/>
      <point x="174" y="71" type="curve" smooth="yes"/>
      <point x="170" y="61"/>
      <point x="160" y="54"/>
      <point x="148" y="54" type="curve" smooth="yes"/>
      <point x="132" y="54"/>
      <point x="120" y="66"/>
      <point x="120" y="82" type="curve" smooth="yes"/>
      <point x="120" y="98"/>
      <point x="132" y="110"/>
      <point x="148" y="110" type="curve" smooth="yes"/>
      <point x="157" y="110"/>
      <point x="164" y="102"/>
      <point x="174" y="114" type="curve" smooth="yes"/>
      <point x="544" y="568" type="line"/>
      <point x="544" y="650" type="line"/>
      <point x="48" y="650" type="line"/>
      <point x="48" y="570" type="line"/>
      <point x="400" y="570" type="line" smooth="yes"/>
      <point x="408" y="570"/>
      <point x="412" y="574"/>
      <point x="414" y="581" type="curve" smooth="yes"/>
      <point x="418" y="591"/>
      <point x="428" y="598"/>
      <point x="440" y="598" type="curve" smooth="yes"/>
      <point x="456" y="598"/>
      <point x="468" y="586"/>
      <point x="468" y="570" type="curve" smooth="yes"/>
      <point x="468" y="554"/>
      <point x="456" y="542"/>
      <point x="440" y="542" type="curve" smooth="yes"/>
      <point x="429" y="542"/>
      <point x="423" y="550"/>
      <point x="412" y="536" type="curve" smooth="yes"/>
      <point x="40" y="84" type="line"/>
    </contour>
    <component base="inkstem_M" xScale="0" xyScale="-1" yScale="0" yxScale="1" xOffset="40" yOffset="142"/>
    <component base="inkstem_M" xScale="0.7771" xyScale="-0.6293" yScale="0.7771" yxScale="0.6293" xOffset="-23" yOffset="95"/>
    <component base="inkstem_S" xOffset="392" yOffset="-208"/>
    <component base="inkstem_S" xOffset="4" yOffset="360"/>
    <component base="inkstem_S" xOffset="265" yOffset="165"/>
    <component base="inkstem_L" xScale="0" xyScale="-1" yScale="0" yxScale="1" xOffset="-48" yOffset="710"/>
  </outline>
</glyph>
<glyph name="bracketleft" format="2">
  <advance width="304"/>
  <unicode hex="005B"/>
  <outline>
    <contour>
      <point x="64" y="-200" type="line"/>
      <point x="302" y="-200" type="line"/>
      <point x="302" y="-118" type="line"/>
      <point x="200" y="-118" type="line" smooth="yes"/>
      <point x="188" y="-118"/>
      <point x="178" y="-124"/>
      <point x="172" y="-133" type="curve" smooth="yes"/>
      <point x="167" y="-141"/>
      <point x="158" y="-146"/>
      <point x="148" y="-146" type="curve" smooth="yes"/>
      <point x="132" y="-146"/>
      <point x="120" y="-134"/>
      <point x="120" y="-118" type="curve" smooth="yes"/>
      <point x="120" y="-108"/>
      <point x="125" y="-99"/>
      <point x="133" y="-94" type="curve" smooth="yes"/>
      <point x="142" y="-88"/>
      <point x="148" y="-78"/>
      <point x="148" y="-66" type="curve" smooth="yes"/>
      <point x="148" y="548" type="line" smooth="yes"/>
      <point x="148" y="560"/>
      <point x="142" y="570"/>
      <point x="133" y="576" type="curve" smooth="yes"/>
      <point x="125" y="581"/>
      <point x="120" y="590"/>
      <point x="120" y="600" type="curve" smooth="yes"/>
      <point x="120" y="616"/>
      <point x="132" y="628"/>
      <point x="148" y="628" type="curve" smooth="yes"/>
      <point x="158" y="628"/>
      <point x="167" y="623"/>
      <point x="172" y="615" type="curve" smooth="yes"/>
      <point x="178" y="606"/>
      <point x="188" y="600"/>
      <point x="200" y="600" type="curve" smooth="yes"/>
      <point x="300" y="600" type="line"/>
      <point x="300" y="680" type="line"/>
      <point x="64" y="680" type="line"/>
    </contour>
    <component base="inkstem_M" xOffset="6" yOffset="-194"/>
    <component base="inkstem_L" xOffset="6" yOffset="76"/>
    <component base="inkstem_S" xOffset="144" yOffset="390"/>
  </outline>
</glyph>
<glyph name="backslash" format="2">
  <advance width="244"/>
  <unicode hex="005C"/>
  <outline>
    <contour>
      <point x="170" y="-204" type="line"/>
      <point x="252" y="-192" type="line"/>
      <point x="84" y="684" type="line"/>
      <point x="4" y="672" type="line"/>
    </contour>
    <component base="inkstem_M" xScale="0.9866" xyScale="0.1631" yScale="-0.9866" yxScale="0.1631" xOffset="52" yOffset="141"/>
    <component base="inkstem_L" xScale="0.9817" xyScale="0.1905" yScale="-0.9817" yxScale="0.1905" xOffset="-5" yOffset="398"/>
    <component base="inkstem_M" xScale="0.9802" xyScale="0.1979" yScale="-0.9802" yxScale="0.1979" xOffset="-60" yOffset="671"/>
    <component base="inkstem_S" xScale="-1" xOffset="154" yOffset="373"/>
  </outline>
</glyph>
<glyph name="asciicircum" format="2">
  <advance width="364"/>
  <unicode hex="005E"/>
  <outline>
    <contour>
      <point x="20" y="340" type="line"/>
      <point x="104" y="340" type="line"/>
      <point x="164" y="520" type="line" smooth="yes"/>
      <point x="168" y="532"/>
      <point x="165" y="546"/>
      <point x="158" y="559" type="curve" smooth="yes"/>
      <point x="156" y="563"/>
      <point x="154" y="568"/>
      <point x="154" y="574" type="curve" smooth="yes"/>
      <point x="154" y="590"/>
      <point x="166" y="602"/>
      <point x="182" y="602" type="curve" smooth="yes"/>
      <point x="198" y="602"/>
      <point x="210" y="590"/>
      <point x="210" y="574" type="curve" smooth="yes"/>
      <point x="210" y="568"/>
      <point x="208" y="563"/>
      <point x="206" y="559" type="curve" smooth="yes"/>
      <point x="199" y="546"/>
      <point x="196" y="532"/>
      <point x="200" y="520" type="curve" smooth="yes"/>
      <point x="260" y="340" type="line"/>
      <point x="344" y="340" type="line"/>
      <point x="225" y="650" type="line"/>
      <point x="141" y="650" type="line"/>
    </contour>
    <component base="inkstem_S" yScale="-1" xOffset="-17" yOffset="646"/>
    <component base="inkstem_S" yScale="-1" xOffset="181" yOffset="646"/>
  </outline>
</glyph>
<glyph name="underscore" format="2">
  <advance width="480"/>
  <unicode hex="005F"/>
  <outline>
    <contour>
      <point x="0" y="-112" type="line"/>
      <point x="480" y="-112" type="line"/>
      <point x="480" y="-28" type="line"/>
      <point x="0" y="-28" type="line"/>
    </contour>
    <component base="inkstem_S" xScale="0" xyScale="-1" yScale="0" yxScale="1" xOffset="-194" yOffset="30"/>
    <component base="inkstem_S" xScale="0" xyScale="-1" yScale="0" yxScale="1" xOffset="174" yOffset="30"/>
  </outline>
</glyph>
<glyph name="a" format="2">
  <advance width="488"/>
  <unicode hex="0061"/>
  <anchor x="428" y="0" name="ogonek"/>
  <anchor x="246" y="500" name="top"/>
  <outline>
    <contour>
      <point x="196" y="-12" type="curve" smooth="yes"/>
      <point x="253" y="-12"/>
      <point x="302" y="8"/>
      <point x="334" y="42" type="curve" smooth="yes"/>
      <point x="339" y="47"/>
      <point x="340" y="55"/>
      <point x="336" y="61" type="curve" smooth="yes"/>
      <point x="333" y="65"/>
      <point x="332" y="70"/>
      <point x="332" y="76" type="curve" smooth="yes"/>
      <point x="332" y="92"/>
      <point x="344" y="104"/>
      <point x="360" y="104" type="curve" smooth="yes"/>
      <point x="376" y="104"/>
      <point x="388" y="92"/>
      <point x="388" y="76" type="curve" smooth="yes"/>
      <point x="388" y="65"/>
      <point x="383" y="55"/>
      <point x="372" y="50" type="curve" smooth="yes"/>
      <point x="368" y="48"/>
      <point x="366" y="43"/>
      <point x="367" y="37" type="curve" smooth="yes"/>
      <point x="374" y="0" type="line"/>
      <point x="438" y="0" type="line"/>
      <point x="436" y="100" type="line"/>
      <point x="436" y="328" type="line" smooth="yes"/>
      <point x="436" y="435"/>
      <point x="358" y="512"/>
      <point x="248" y="512" type="curve" smooth="yes"/>
      <point x="141" y="512"/>
      <point x="58" y="438"/>
      <point x="48" y="334" type="curve"/>
      <point x="136" y="324" type="line"/>
      <point x="140" y="394"/>
      <point x="188" y="440"/>
      <point x="252" y="440" type="curve" smooth="yes"/>
      <point x="313" y="440"/>
      <point x="356" y="395"/>
      <point x="356" y="332" type="curve" smooth="yes"/>
      <point x="356" y="316"/>
      <point x="343" y="303"/>
      <point x="326" y="300" type="curve" smooth="yes"/>
      <point x="172" y="272" type="line" smooth="yes"/>
      <point x="87" y="257"/>
      <point x="32" y="201"/>
      <point x="32" y="132" type="curve" smooth="yes"/>
      <point x="32" y="45"/>
      <point x="97" y="-12"/>
    </contour>
    <contour>
      <point x="212" y="66" type="curve" smooth="yes"/>
      <point x="156" y="66"/>
      <point x="120" y="94"/>
      <point x="120" y="136" type="curve" smooth="yes"/>
      <point x="120" y="172"/>
      <point x="148" y="200"/>
      <point x="192" y="208" type="curve" smooth="yes"/>
      <point x="319" y="231" type="line" smooth="yes"/>
      <point x="324" y="232"/>
      <point x="328" y="236"/>
      <point x="328" y="241" type="curve" smooth="yes"/>
      <point x="329" y="256"/>
      <point x="341" y="267"/>
      <point x="356" y="267" type="curve" smooth="yes"/>
      <point x="372" y="267"/>
      <point x="384" y="255"/>
      <point x="384" y="239" type="curve" smooth="yes"/>
      <point x="384" y="225"/>
      <point x="375" y="215"/>
      <point x="363" y="212" type="curve" smooth="yes"/>
      <point x="358" y="211"/>
      <point x="356" y="208"/>
      <point x="356" y="204" type="curve" smooth="yes"/>
      <point x="356" y="124"/>
      <point x="296" y="66"/>
    </contour>
    <contour>
      <point x="356" y="211" type="move"/>
    </contour>
    <component base="inkstem_S" xOffset="-21" yOffset="-120"/>
    <component base="inkcurve_L" xScale="0" xyScale="1" yScale="0" yxScale="-1" xOffset="492" yOffset="-72"/>
    <component base="inkstem_S" xOffset="7" yOffset="134"/>
    <component base="inkcurve_L" xScale="0" xyScale="-1" yScale="0" yxScale="1" xOffset="-28" yOffset="576"/>
    <component base="inkstem_S" xOffset="285" yOffset="134"/>
    <component base="inkstem_M" xScale="0.1736" xyScale="-0.9848" yScale="0.1736" yxScale="0.9848" xOffset="-68" yOffset="298"/>
  </outline>
</glyph>
<glyph name="b" format="2">
  <advance width="590"/>
  <unicode hex="0062"/>
  <outline>
    <contour>
      <point x="324" y="-12" type="curve" smooth="yes"/>
      <point x="460" y="-12"/>
      <point x="558" y="98"/>
      <point x="558" y="252" type="curve" smooth="yes"/>
      <point x="558" y="404"/>
      <point x="461" y="512"/>
      <point x="326" y="512" type="curve" smooth="yes"/>
      <point x="266" y="512"/>
      <point x="211" y="490"/>
      <point x="173" y="454" type="curve" smooth="yes"/>
      <point x="163" y="445"/>
      <point x="172" y="434"/>
      <point x="172" y="422" type="curve" smooth="yes"/>
      <point x="172" y="406"/>
      <point x="160" y="394"/>
      <point x="144" y="394" type="curve" smooth="yes"/>
      <point x="128" y="394"/>
      <point x="116" y="406"/>
      <point x="116" y="422" type="curve" smooth="yes"/>
      <point x="116" y="433"/>
      <point x="122" y="442"/>
      <point x="131" y="447" type="curve" smooth="yes"/>
      <point x="139" y="451"/>
      <point x="144" y="458"/>
      <point x="144" y="466" type="curve" smooth="yes"/>
      <point x="144" y="680" type="line"/>
      <point x="64" y="680" type="line"/>
      <point x="64" y="0" type="line"/>
      <point x="132" y="0" type="line"/>
      <point x="136" y="38" type="line" smooth="yes"/>
      <point x="137" y="50"/>
      <point x="134" y="53"/>
      <point x="127" y="58" type="curve" smooth="yes"/>
      <point x="119" y="63"/>
      <point x="114" y="72"/>
      <point x="114" y="82" type="curve" smooth="yes"/>
      <point x="114" y="98"/>
      <point x="126" y="110"/>
      <point x="142" y="110" type="curve" smooth="yes"/>
      <point x="158" y="110"/>
      <point x="170" y="98"/>
      <point x="170" y="82" type="curve" smooth="yes"/>
      <point x="170" y="78"/>
      <point x="169" y="74"/>
      <point x="168" y="71" type="curve" smooth="yes"/>
      <point x="165" y="62"/>
      <point x="166" y="53"/>
      <point x="172" y="47" type="curve" smooth="yes"/>
      <point x="212" y="9"/>
      <point x="264" y="-12"/>
    </contour>
    <contour>
      <point x="308" y="68" type="curve" smooth="yes"/>
      <point x="211" y="68"/>
      <point x="142" y="144"/>
      <point x="142" y="250" type="curve" smooth="yes"/>
      <point x="142" y="357"/>
      <point x="211" y="434"/>
      <point x="308" y="434" type="curve" smooth="yes"/>
      <point x="405" y="434"/>
      <point x="474" y="357"/>
      <point x="474" y="250" type="curve" smooth="yes"/>
      <point x="474" y="144"/>
      <point x="405" y="68"/>
    </contour>
    <component base="inkcurve_L" xScale="0" xyScale="1" yScale="0" yxScale="1" xOffset="39" yOffset="-72"/>
    <component base="inkstem_S" xOffset="362" yOffset="-156"/>
    <component base="inkcurve_L" xScale="-1" xOffset="616" yOffset="-28"/>
    <component base="inkcurve_L" xScale="0" xyScale="-1" yScale="0" yxScale="1" xOffset="27" yOffset="573"/>
    <component base="inkstem_S" xOffset="356" yOffset="164"/>
    <component base="inkstem_M" xOffset="3" yOffset="-28"/>
    <component base="inkstem_L" xOffset="4" yOffset="256"/>
  </outline>
</glyph>
<glyph name="c" format="2">
  <advance width="532"/>
  <unicode hex="0063"/>
  <anchor x="268" y="0" name="bottom"/>
  <anchor x="272" y="500" name="top"/>
  <outline>
    <contour>
      <point x="276" y="-12" type="curve" smooth="yes"/>
      <point x="393" y="-12"/>
      <point x="488" y="65"/>
      <point x="504" y="172" type="curve"/>
      <point x="416" y="200" type="line"/>
      <point x="408" y="120"/>
      <point x="352" y="68"/>
      <point x="276" y="68" type="curve" smooth="yes"/>
      <point x="184" y="68"/>
      <point x="118" y="144"/>
      <point x="118" y="252" type="curve" smooth="yes"/>
      <point x="118" y="358"/>
      <point x="182" y="434"/>
      <point x="272" y="434" type="curve" smooth="yes"/>
      <point x="346" y="434"/>
      <point x="404" y="381"/>
      <point x="412" y="308" type="curve"/>
      <point x="496" y="336" type="line"/>
      <point x="480" y="439"/>
      <point x="387" y="512"/>
      <point x="272" y="512" type="curve" smooth="yes"/>
      <point x="132" y="512"/>
      <point x="32" y="403"/>
      <point x="32" y="250" type="curve" smooth="yes"/>
      <point x="32" y="97"/>
      <point x="134" y="-12"/>
    </contour>
    <component base="inkcurve_L" xOffset="-27" yOffset="-28"/>
    <component base="inkcurve_L" xScale="0" xyScale="-1" yScale="0" yxScale="1" xOffset="-4" yOffset="573"/>
    <component base="inkcurve_L" xScale="0" xyScale="1" yScale="0" yxScale="1" yOffset="-72"/>
    <component base="inkstem_S" xOffset="32" yOffset="-160"/>
    <component base="inkstem_S" xOffset="342" yOffset="-119"/>
    <component base="inkstem_S" xOffset="32" yOffset="158"/>
    <component base="inkstem_S" xOffset="334" yOffset="128"/>
  </outline>
</glyph>
<glyph name="d" format="2">
  <advance width="592"/>
  <unicode hex="0064"/>
  <anchor x="568" y="500" name="topright"/>
  <outline>
    <contour>
      <point x="266" y="-12" type="curve" smooth="yes"/>
      <point x="328" y="-12"/>
      <point x="381" y="11"/>
      <point x="422" y="51" type="curve" smooth="yes"/>
      <point x="434" y="63"/>
      <point x="424" y="74"/>
      <point x="424" y="86" type="curve" smooth="yes"/>
      <point x="424" y="102"/>
      <point x="436" y="114"/>
      <point x="452" y="114" type="curve" smooth="yes"/>
      <point x="468" y="114"/>
      <point x="480" y="102"/>
      <point x="480" y="86" type="curve" smooth="yes"/>
      <point x="480" y="76"/>
      <point x="475" y="67"/>
      <point x="467" y="62" type="curve" smooth="yes"/>
      <point x="460" y="57"/>
      <point x="456" y="52"/>
      <point x="457" y="42" type="curve" smooth="yes"/>
      <point x="462" y="0" type="line"/>
      <point x="530" y="0" type="line"/>
      <point x="528" y="100" type="line"/>
      <point x="528" y="680" type="line"/>
      <point x="448" y="680" type="line"/>
      <point x="448" y="462" type="line" smooth="yes"/>
      <point x="448" y="454"/>
      <point x="453" y="447"/>
      <point x="461" y="443" type="curve" smooth="yes"/>
      <point x="470" y="438"/>
      <point x="476" y="429"/>
      <point x="476" y="418" type="curve" smooth="yes"/>
      <point x="476" y="402"/>
      <point x="464" y="390"/>
      <point x="448" y="390" type="curve" smooth="yes"/>
      <point x="432" y="390"/>
      <point x="420" y="402"/>
      <point x="420" y="418" type="curve" smooth="yes"/>
      <point x="420" y="434"/>
      <point x="430" y="441"/>
      <point x="418" y="452" type="curve" smooth="yes"/>
      <point x="380" y="488"/>
      <point x="326" y="512"/>
      <point x="264" y="512" type="curve" smooth="yes"/>
      <point x="129" y="512"/>
      <point x="32" y="404"/>
      <point x="32" y="252" type="curve" smooth="yes"/>
      <point x="32" y="98"/>
      <point x="130" y="-12"/>
    </contour>
    <contour>
      <point x="283" y="68" type="curve" smooth="yes"/>
      <point x="186" y="68"/>
      <point x="116" y="144"/>
      <point x="116" y="250" type="curve" smooth="yes"/>
      <point x="116" y="357"/>
      <point x="186" y="434"/>
      <point x="283" y="434" type="curve" smooth="yes"/>
      <point x="380" y="434"/>
      <point x="450" y="357"/>
      <point x="450" y="250" type="curve" smooth="yes"/>
      <point x="450" y="144"/>
      <point x="380" y="68"/>
    </contour>
    <component base="inkstem_S" xOffset="32" yOffset="-160"/>
    <component base="inkcurve_L" xScale="0" xyScale="1" yScale="0" yxScale="1" xOffset="4" yOffset="-72"/>
    <component base="inkcurve_L" xOffset="-27" yOffset="-28"/>
    <component base="inkstem_S" xOffset="32" yOffset="158"/>
    <component base="inkcurve_L" xScale="0" xyScale="-1" yScale="0" yxScale="1" xOffset="-4" yOffset="574"/>
    <component base="inkstem_L" xOffset="388" yOffset="256"/>
    <component base="inkstem_M" xOffset="388" yOffset="-28"/>
  </outline>
</glyph>
<glyph name="e" format="2">
  <advance width="540"/>
  <unicode hex="0065"/>
  <anchor x="404" y="0" name="ogonek"/>
  <anchor x="272" y="500" name="top"/>
  <outline>
    <contour>
      <point x="280" y="-12" type="curve" smooth="yes"/>
      <point x="388" y="-12"/>
      <point x="478" y="48"/>
      <point x="502" y="136" type="curve"/>
      <point x="416" y="164" type="line"/>
      <point x="404" y="108"/>
      <point x="350" y="68"/>
      <point x="282" y="68" type="curve" smooth="yes"/>
      <point x="213" y="68"/>
      <point x="158" y="110"/>
      <point x="133" y="173" type="curve" smooth="yes"/>
      <point x="130" y="181"/>
      <point x="123" y="187"/>
      <point x="112" y="190" type="curve" smooth="yes"/>
      <point x="100" y="193"/>
      <point x="92" y="203"/>
      <point x="92" y="217" type="curve" smooth="yes"/>
      <point x="92" y="233"/>
      <point x="104" y="245"/>
      <point x="120" y="245" type="curve" smooth="yes"/>
      <point x="132" y="245"/>
      <point x="142" y="238"/>
      <point x="146" y="228" type="curve" smooth="yes"/>
      <point x="148" y="221"/>
      <point x="154" y="217"/>
      <point x="162" y="217" type="curve" smooth="yes"/>
      <point x="507" y="217" type="line"/>
      <point x="519" y="385"/>
      <point x="425" y="512"/>
      <point x="272" y="512" type="curve" smooth="yes"/>
      <point x="132" y="512"/>
      <point x="32" y="403"/>
      <point x="32" y="250" type="curve" smooth="yes"/>
      <point x="32" y="97"/>
      <point x="135" y="-12"/>
    </contour>
    <contour>
      <point x="120" y="267" type="curve" smooth="yes"/>
      <point x="104" y="267"/>
      <point x="92" y="279"/>
      <point x="92" y="295" type="curve" smooth="yes"/>
      <point x="92" y="310"/>
      <point x="102" y="321"/>
      <point x="116" y="323" type="curve" smooth="yes"/>
      <point x="124" y="324"/>
      <point x="131" y="329"/>
      <point x="133" y="335" type="curve" smooth="yes"/>
      <point x="157" y="395"/>
      <point x="209" y="434"/>
      <point x="274" y="434" type="curve" smooth="yes"/>
      <point x="337" y="434"/>
      <point x="389" y="396"/>
      <point x="412" y="335" type="curve" smooth="yes"/>
      <point x="414" y="329"/>
      <point x="421" y="324"/>
      <point x="429" y="323" type="curve" smooth="yes"/>
      <point x="443" y="321"/>
      <point x="453" y="310"/>
      <point x="453" y="295" type="curve" smooth="yes"/>
      <point x="453" y="279"/>
      <point x="441" y="267"/>
      <point x="425" y="267" type="curve" smooth="yes"/>
      <point x="413" y="267"/>
      <point x="403" y="274"/>
      <point x="399" y="284" type="curve" smooth="yes"/>
      <point x="397" y="291"/>
      <point x="391" y="295"/>
      <point x="383" y="295" type="curve" smooth="yes"/>
      <point x="162" y="295" type="line" smooth="yes"/>
      <point x="154" y="295"/>
      <point x="148" y="291"/>
      <point x="146" y="284" type="curve" smooth="yes"/>
      <point x="142" y="274"/>
      <point x="132" y="267"/>
    </contour>
    <component base="inkstem_S" xOffset="32" yOffset="-158"/>
    <component base="inkcurve_L" xScale="0" xyScale="1" yScale="0" yxScale="1" yOffset="-72"/>
    <component base="inkstem_S" xOffset="332" yOffset="-152"/>
    <component base="inkstem_S" xOffset="32" yOffset="158"/>
    <component base="inkcurve_L" xScale="0" xyScale="-1" yScale="0" yxScale="1" xOffset="-6" yOffset="573"/>
    <component base="inkstem_S" xOffset="314" yOffset="158"/>
    <component base="inkstem_S" xOffset="176" yOffset="6"/>
  </outline>
</glyph>
<glyph name="f" format="2">
  <advance width="316"/>
  <unicode hex="0066"/>
  <note>
Ascendente corta?
</note>
  <outline>
    <contour>
      <point x="92" y="0" type="line"/>
      <point x="172" y="0" type="line"/>
      <point x="172" y="349" type="line" smooth="yes"/>
      <point x="172" y="361"/>
      <point x="166" y="371"/>
      <point x="157" y="377" type="curve" smooth="yes"/>
      <point x="149" y="382"/>
      <point x="144" y="391"/>
      <point x="144" y="401" type="curve" smooth="yes"/>
      <point x="144" y="417"/>
      <point x="156" y="429"/>
      <point x="172" y="429" type="curve" smooth="yes"/>
      <point x="182" y="429"/>
      <point x="191" y="424"/>
      <point x="196" y="416" type="curve" smooth="yes"/>
      <point x="202" y="407"/>
      <point x="212" y="401"/>
      <point x="224" y="401" type="curve" smooth="yes"/>
      <point x="292" y="401" type="line"/>
      <point x="292" y="479" type="line"/>
      <point x="172" y="479" type="line"/>
      <point x="172" y="548" type="line" smooth="yes"/>
      <point x="172" y="611"/>
      <point x="240" y="624"/>
      <point x="288" y="592" type="curve"/>
      <point x="312" y="670" type="line"/>
      <point x="224" y="722"/>
      <point x="92" y="679"/>
      <point x="92" y="548" type="curve" smooth="yes"/>
      <point x="92" y="531" type="line" smooth="yes"/>
      <point x="92" y="519"/>
      <point x="98" y="509"/>
      <point x="107" y="503" type="curve" smooth="yes"/>
      <point x="115" y="498"/>
      <point x="120" y="489"/>
      <point x="120" y="479" type="curve" smooth="yes"/>
      <point x="120" y="463"/>
      <point x="108" y="451"/>
      <point x="92" y="451" type="curve" smooth="yes"/>
      <point x="82" y="451"/>
      <point x="73" y="456"/>
      <point x="68" y="464" type="curve" smooth="yes"/>
      <point x="62" y="473"/>
      <point x="52" y="479"/>
      <point x="40" y="479" type="curve" smooth="yes"/>
      <point x="16" y="479" type="line"/>
      <point x="16" y="401" type="line"/>
      <point x="92" y="401" type="line"/>
    </contour>
    <component base="inkstem_M" xScale="-1" yScale="-1" xOffset="232" yOffset="360"/>
    <component base="inkcurve_S" xScale="0" xyScale="-1" yScale="0" yxScale="1" xOffset="-48" yOffset="749"/>
    <component base="inkstem_S" xOffset="32"/>
  </outline>
</glyph>
<glyph name="g" format="2">
  <advance width="592"/>
  <unicode hex="0067"/>
  <anchor x="292" y="500" name="top"/>
  <outline>
    <contour>
      <point x="288" y="-212" type="curve" smooth="yes"/>
      <point x="428" y="-212"/>
      <point x="528" y="-112"/>
      <point x="528" y="28" type="curve" smooth="yes"/>
      <point x="528" y="500" type="line"/>
      <point x="458" y="500" type="line"/>
      <point x="456" y="464" type="line" smooth="yes"/>
      <point x="456" y="456"/>
      <point x="460" y="447"/>
      <point x="468" y="443" type="curve" smooth="yes"/>
      <point x="477" y="438"/>
      <point x="483" y="429"/>
      <point x="483" y="418" type="curve" smooth="yes"/>
      <point x="483" y="402"/>
      <point x="471" y="390"/>
      <point x="455" y="390" type="curve" smooth="yes"/>
      <point x="439" y="390"/>
      <point x="427" y="402"/>
      <point x="427" y="418" type="curve" smooth="yes"/>
      <point x="427" y="434"/>
      <point x="434" y="441"/>
      <point x="422" y="452" type="curve" smooth="yes"/>
      <point x="382" y="490"/>
      <point x="329" y="512"/>
      <point x="268" y="512" type="curve" smooth="yes"/>
      <point x="130" y="512"/>
      <point x="32" y="408"/>
      <point x="32" y="263" type="curve" smooth="yes"/>
      <point x="32" y="119"/>
      <point x="130" y="16"/>
      <point x="266" y="16" type="curve" smooth="yes"/>
      <point x="326" y="16"/>
      <point x="379" y="37"/>
      <point x="418" y="74" type="curve" smooth="yes"/>
      <point x="430" y="86"/>
      <point x="420" y="97"/>
      <point x="420" y="109" type="curve" smooth="yes"/>
      <point x="420" y="125"/>
      <point x="432" y="137"/>
      <point x="448" y="137" type="curve" smooth="yes"/>
      <point x="464" y="137"/>
      <point x="476" y="125"/>
      <point x="476" y="109" type="curve" smooth="yes"/>
      <point x="476" y="99"/>
      <point x="471" y="90"/>
      <point x="463" y="85" type="curve" smooth="yes"/>
      <point x="454" y="79"/>
      <point x="448" y="69"/>
      <point x="448" y="60" type="curve" smooth="yes"/>
      <point x="448" y="20" type="line" smooth="yes"/>
      <point x="448" y="-67"/>
      <point x="383" y="-130"/>
      <point x="292" y="-130" type="curve" smooth="yes"/>
      <point x="213" y="-130"/>
      <point x="150" y="-81"/>
      <point x="140" y="-12" type="curve"/>
      <point x="52" y="-36" type="line"/>
      <point x="67" y="-139"/>
      <point x="166" y="-212"/>
    </contour>
    <contour>
      <point x="282" y="92" type="curve" smooth="yes"/>
      <point x="185" y="92"/>
      <point x="116" y="163"/>
      <point x="116" y="263" type="curve" smooth="yes"/>
      <point x="116" y="363"/>
      <point x="185" y="434"/>
      <point x="282" y="434" type="curve" smooth="yes"/>
      <point x="379" y="434"/>
      <point x="448" y="363"/>
      <point x="448" y="263" type="curve" smooth="yes"/>
      <point x="448" y="163"/>
      <point x="379" y="92"/>
    </contour>
    <component base="inkstem_S" xOffset="32" yOffset="-139"/>
    <component base="inkcurve_L" xScale="0" xyScale="1" yScale="0" yxScale="1" yOffset="-46"/>
    <component base="inkcurve_L" xOffset="-26" yOffset="-15"/>
    <component base="inkstem_S" xOffset="30" yOffset="162"/>
    <component base="inkcurve_L" xScale="0" xyScale="-1" yScale="0" yxScale="1" xOffset="-4" yOffset="574"/>
    <component base="inkstem_M" xOffset="388" yOffset="-15"/>
    <component base="inkcurve_L" xScale="0" xyScale="1" yScale="0" yxScale="1" xOffset="18" yOffset="-272"/>
    <component base="inkstem_S" xOffset="13" yOffset="-326"/>
    <component base="inkstem_S" xOffset="346" yOffset="-350"/>
  </outline>
</glyph>
<glyph name="h" format="2">
  <advance width="554"/>
  <unicode hex="0068"/>
  <outline>
    <contour>
      <point x="64" y="0" type="line"/>
      <point x="144" y="0" type="line"/>
      <point x="144" y="272" type="line" smooth="yes"/>
      <point x="144" y="365"/>
      <point x="208" y="432"/>
      <point x="292" y="432" type="curve" smooth="yes"/>
      <point x="368" y="432"/>
      <point x="422" y="376"/>
      <point x="422" y="296" type="curve" smooth="yes"/>
      <point x="422" y="0" type="line"/>
      <point x="502" y="0" type="line"/>
      <point x="502" y="304" type="line" smooth="yes"/>
      <point x="502" y="424"/>
      <point x="421" y="512"/>
      <point x="308" y="512" type="curve" smooth="yes"/>
      <point x="255" y="512"/>
      <point x="206" y="492"/>
      <point x="173" y="459" type="curve" smooth="yes"/>
      <point x="161" y="447"/>
      <point x="172" y="432"/>
      <point x="172" y="420" type="curve" smooth="yes"/>
      <point x="172" y="404"/>
      <point x="160" y="392"/>
      <point x="144" y="392" type="curve" smooth="yes"/>
      <point x="128" y="392"/>
      <point x="116" y="404"/>
      <point x="116" y="420" type="curve" smooth="yes"/>
      <point x="116" y="430"/>
      <point x="121" y="439"/>
      <point x="132" y="445" type="curve" smooth="yes"/>
      <point x="139" y="449"/>
      <point x="144" y="455"/>
      <point x="144" y="464" type="curve" smooth="yes"/>
      <point x="144" y="680" type="line"/>
      <point x="64" y="680" type="line"/>
    </contour>
    <component base="inkstem_M" xOffset="4" yOffset="-196"/>
    <component base="inkstem_S" xOffset="4"/>
    <component base="inkstem_S" xOffset="362" yOffset="-194"/>
    <component base="inkstem_M" xOffset="362" yOffset="-28"/>
    <component base="inkcurve_L" xScale="0" xyScale="-1" yScale="0" yxScale="1" xOffset="24" yOffset="573"/>
    <component base="inkstem_S" xOffset="332" yOffset="152"/>
    <component base="inkstem_L" xOffset="4" yOffset="256"/>
  </outline>
</glyph>
<glyph name="k" format="2">
  <advance width="502"/>
  <unicode hex="006B"/>
  <anchor x="270" y="0" name="bottom"/>
  <anchor x="251" y="680" name="top"/>
  <anchor x="184" y="500" name="topright"/>
  <outline>
    <contour>
      <point x="64" y="0" type="line"/>
      <point x="144" y="0" type="line"/>
      <point x="144" y="134" type="line"/>
      <point x="232" y="229" type="line"/>
      <point x="400" y="0" type="line"/>
      <point x="500" y="0" type="line"/>
      <point x="311" y="254" type="line" smooth="yes"/>
      <point x="301" y="268"/>
      <point x="295" y="260"/>
      <point x="284" y="260" type="curve" smooth="yes"/>
      <point x="268" y="260"/>
      <point x="256" y="272"/>
      <point x="256" y="288" type="curve" smooth="yes"/>
      <point x="256" y="304"/>
      <point x="268" y="316"/>
      <point x="284" y="316" type="curve" smooth="yes"/>
      <point x="297" y="316"/>
      <point x="303" y="307"/>
      <point x="313" y="318" type="curve" smooth="yes"/>
      <point x="480" y="500" type="line"/>
      <point x="372" y="500" type="line"/>
      <point x="170" y="272" type="line" smooth="yes"/>
      <point x="160" y="260"/>
      <point x="172" y="253"/>
      <point x="172" y="243" type="curve" smooth="yes"/>
      <point x="172" y="227"/>
      <point x="160" y="215"/>
      <point x="144" y="215" type="curve" smooth="yes"/>
      <point x="128" y="215"/>
      <point x="116" y="227"/>
      <point x="116" y="243" type="curve" smooth="yes"/>
      <point x="116" y="254"/>
      <point x="122" y="263"/>
      <point x="131" y="268" type="curve" smooth="yes"/>
      <point x="139" y="272"/>
      <point x="144" y="276"/>
      <point x="144" y="286" type="curve" smooth="yes"/>
      <point x="144" y="680" type="line"/>
      <point x="64" y="680" type="line"/>
    </contour>
    <component base="inkstem_S" xOffset="4" yOffset="-194"/>
    <component base="inkstem_M" xScale="0.8078" xyScale="0.5895" yScale="0.8078" yxScale="-0.5895" xOffset="479" yOffset="-211"/>
    <component base="inkstem_L" xOffset="4" yOffset="256"/>
    <component base="inkstem_S" xOffset="275" yOffset="194"/>
    <component base="inkstem_S" xOffset="4" yOffset="142"/>
  </outline>
</glyph>
<glyph name="m" format="2">
  <advance width="856"/>
  <unicode hex="006D"/>
  <outline>
    <contour>
      <point x="430" y="424"/>
      <point x="447" y="429"/>
      <point x="436" y="443" type="curve" smooth="yes"/>
      <point x="403" y="486"/>
      <point x="351" y="512"/>
      <point x="294" y="512" type="curve" smooth="yes"/>
      <point x="239" y="512"/>
      <point x="193" y="489"/>
      <point x="163" y="451" type="curve" smooth="yes"/>
      <point x="152" y="438"/>
      <point x="165" y="425"/>
      <point x="165" y="409" type="curve" smooth="yes"/>
      <point x="165" y="393"/>
      <point x="153" y="381"/>
      <point x="137" y="381" type="curve" smooth="yes"/>
      <point x="121" y="381"/>
      <point x="109" y="393"/>
      <point x="109" y="409" type="curve" smooth="yes"/>
      <point x="109" y="418"/>
      <point x="113" y="426"/>
      <point x="122" y="432" type="curve" smooth="yes"/>
      <point x="133" y="439"/>
      <point x="136" y="447"/>
      <point x="134" y="458" type="curve" smooth="yes"/>
      <point x="128" y="500" type="line"/>
      <point x="64" y="500" type="line"/>
      <point x="64" y="0" type="line"/>
      <point x="144" y="0" type="line"/>
      <point x="144" y="276" type="line" smooth="yes"/>
      <point x="144" y="366"/>
      <point x="201" y="430"/>
      <point x="280" y="430" type="curve" smooth="yes"/>
      <point x="348" y="430"/>
      <point x="397" y="376"/>
      <point x="397" y="300" type="curve" smooth="yes"/>
      <point x="397" y="0" type="line"/>
      <point x="476" y="0" type="line"/>
      <point x="476" y="280" type="line" smooth="yes"/>
      <point x="476" y="367"/>
      <point x="531" y="430"/>
      <point x="608" y="430" type="curve" smooth="yes"/>
      <point x="676" y="430"/>
      <point x="724" y="376"/>
      <point x="724" y="300" type="curve" smooth="yes"/>
      <point x="724" y="0" type="line"/>
      <point x="804" y="0" type="line"/>
      <point x="804" y="304" type="line" smooth="yes"/>
      <point x="804" y="425"/>
      <point x="727" y="512"/>
      <point x="620" y="512" type="curve" smooth="yes"/>
      <point x="562" y="512"/>
      <point x="511" y="487"/>
      <point x="480" y="447" type="curve" smooth="yes"/>
      <point x="467" y="429"/>
      <point x="486" y="424"/>
      <point x="486" y="407" type="curve" smooth="yes"/>
      <point x="486" y="391"/>
      <point x="474" y="379"/>
      <point x="458" y="379" type="curve" smooth="yes"/>
      <point x="442" y="379"/>
      <point x="430" y="391"/>
      <point x="430" y="407" type="curve" smooth="yes"/>
    </contour>
    <component base="inkstem_M" xOffset="4" yOffset="-196"/>
    <component base="inkstem_S" xOffset="4"/>
    <component base="inkstem_S" xOffset="336" yOffset="-194"/>
    <component base="inkstem_L" xOffset="336" yOffset="-92"/>
    <component base="inkcurve_L" xScale="0" xyScale="-1" yScale="0" yxScale="1" xOffset="8" yOffset="572"/>
    <component base="inkstem_S" xOffset="664" yOffset="-194"/>
    <component base="inkstem_M" xOffset="664" yOffset="-28"/>
    <component base="inkcurve_L" xScale="0" xyScale="-1" yScale="0" yxScale="1" xOffset="335" yOffset="572"/>
    <component base="inkstem_S" xOffset="638" yOffset="150"/>
  </outline>
</glyph>
<glyph name="n" format="2">
  <advance width="554"/>
  <unicode hex="006E"/>
  <anchor x="276" y="0" name="bottom"/>
  <anchor x="284" y="500" name="top"/>
  <outline>
    <contour>
      <point x="64" y="0" type="line"/>
      <point x="144" y="0" type="line"/>
      <point x="144" y="272" type="line" smooth="yes"/>
      <point x="144" y="365"/>
      <point x="208" y="432"/>
      <point x="292" y="432" type="curve" smooth="yes"/>
      <point x="368" y="432"/>
      <point x="422" y="376"/>
      <point x="422" y="296" type="curve" smooth="yes"/>
      <point x="422" y="0" type="line"/>
      <point x="502" y="0" type="line"/>
      <point x="502" y="304" type="line" smooth="yes"/>
      <point x="502" y="424"/>
      <point x="421" y="512"/>
      <point x="308" y="512" type="curve" smooth="yes"/>
      <point x="251" y="512"/>
      <point x="199" y="490"/>
      <point x="166" y="452" type="curve" smooth="yes"/>
      <point x="155" y="439"/>
      <point x="165" y="426"/>
      <point x="165" y="414" type="curve" smooth="yes"/>
      <point x="165" y="398"/>
      <point x="153" y="386"/>
      <point x="137" y="386" type="curve" smooth="yes"/>
      <point x="121" y="386"/>
      <point x="109" y="398"/>
      <point x="109" y="414" type="curve" smooth="yes"/>
      <point x="109" y="424"/>
      <point x="114" y="433"/>
      <point x="125" y="439" type="curve" smooth="yes"/>
      <point x="132" y="443"/>
      <point x="137" y="452"/>
      <point x="136" y="461" type="curve" smooth="yes"/>
      <point x="132" y="500" type="line"/>
      <point x="64" y="500" type="line"/>
    </contour>
    <component base="inkstem_M" xOffset="4" yOffset="-196"/>
    <component base="inkstem_S" xOffset="4"/>
    <component base="inkstem_S" xOffset="362" yOffset="-194"/>
    <component base="inkstem_M" xOffset="362" yOffset="-28"/>
    <component base="inkcurve_L" xScale="0" xyScale="-1" yScale="0" yxScale="1" xOffset="24" yOffset="573"/>
    <component base="inkstem_S" xOffset="332" yOffset="152"/>
  </outline>
</glyph>
<glyph name="q" format="2">
  <advance width="596"/>
  <unicode hex="0071"/>
  <outline>
    <contour>
      <point x="452" y="-200" type="line"/>
      <point x="532" y="-200" type="line"/>
      <point x="532" y="500" type="line"/>
      <point x="464" y="500" type="line"/>
      <point x="458" y="453" type="line" smooth="yes"/>
      <point x="457" y="443"/>
      <point x="460" y="439"/>
      <point x="468" y="435" type="curve" smooth="yes"/>
      <point x="477" y="430"/>
      <point x="483" y="421"/>
      <point x="483" y="410" type="curve" smooth="yes"/>
      <point x="483" y="394"/>
      <point x="471" y="382"/>
      <point x="455" y="382" type="curve" smooth="yes"/>
      <point x="439" y="382"/>
      <point x="427" y="394"/>
      <point x="427" y="410" type="curve" smooth="yes"/>
      <point x="427" y="426"/>
      <point x="436" y="433"/>
      <point x="425" y="445" type="curve" smooth="yes"/>
      <point x="385" y="487"/>
      <point x="329" y="512"/>
      <point x="264" y="512" type="curve" smooth="yes"/>
      <point x="129" y="512"/>
      <point x="32" y="404"/>
      <point x="32" y="252" type="curve" smooth="yes"/>
      <point x="32" y="98"/>
      <point x="130" y="-12"/>
      <point x="266" y="-12" type="curve" smooth="yes"/>
      <point x="328" y="-12"/>
      <point x="383" y="12"/>
      <point x="423" y="52" type="curve" smooth="yes"/>
      <point x="435" y="64"/>
      <point x="424" y="75"/>
      <point x="424" y="87" type="curve" smooth="yes"/>
      <point x="424" y="103"/>
      <point x="436" y="115"/>
      <point x="452" y="115" type="curve" smooth="yes"/>
      <point x="468" y="115"/>
      <point x="480" y="103"/>
      <point x="480" y="87" type="curve" smooth="yes"/>
      <point x="480" y="77"/>
      <point x="475" y="68"/>
      <point x="467" y="63" type="curve" smooth="yes"/>
      <point x="458" y="57"/>
      <point x="452" y="48"/>
      <point x="452" y="36" type="curve" smooth="yes"/>
    </contour>
    <contour>
      <point x="283" y="68" type="curve" smooth="yes"/>
      <point x="186" y="68"/>
      <point x="116" y="144"/>
      <point x="116" y="250" type="curve" smooth="yes"/>
      <point x="116" y="357"/>
      <point x="186" y="434"/>
      <point x="283" y="434" type="curve" smooth="yes"/>
      <point x="380" y="434"/>
      <point x="450" y="357"/>
      <point x="450" y="250" type="curve" smooth="yes"/>
      <point x="450" y="144"/>
      <point x="380" y="68"/>
    </contour>
    <component base="inkstem_S" xOffset="32" yOffset="-160"/>
    <component base="inkcurve_L" xScale="0" xyScale="1" yScale="0" yxScale="1" xOffset="4" yOffset="-72"/>
    <component base="inkcurve_L" xOffset="-27" yOffset="-28"/>
    <component base="inkstem_S" xOffset="32" yOffset="158"/>
    <component base="inkstem_M" xOffset="390" yOffset="-28"/>
    <component base="inkcurve_L" xScale="0" xyScale="-1" yScale="0" yxScale="1" xOffset="-4" yOffset="574"/>
    <component base="inkstem_M" xOffset="392" yOffset="-396"/>
  </outline>
</glyph>
<glyph name="r" format="2">
  <advance width="340"/>
  <unicode hex="0072"/>
  <note>
Rivedere orecchio
</note>
  <anchor x="104" y="0" name="bottom"/>
  <anchor x="192" y="500" name="top"/>
  <outline>
    <contour>
      <point x="64" y="0" type="line"/>
      <point x="144" y="0" type="line"/>
      <point x="144" y="304" type="line" smooth="yes"/>
      <point x="144" y="417"/>
      <point x="244" y="450"/>
      <point x="324" y="410" type="curve"/>
      <point x="328" y="504" type="line"/>
      <point x="261" y="523"/>
      <point x="199" y="505"/>
      <point x="163" y="462" type="curve" smooth="yes"/>
      <point x="152" y="449"/>
      <point x="164" y="436"/>
      <point x="164" y="420" type="curve" smooth="yes"/>
      <point x="164" y="404"/>
      <point x="152" y="392"/>
      <point x="136" y="392" type="curve" smooth="yes"/>
      <point x="120" y="392"/>
      <point x="108" y="404"/>
      <point x="108" y="420" type="curve" smooth="yes"/>
      <point x="108" y="430"/>
      <point x="113" y="439"/>
      <point x="124" y="445" type="curve" smooth="yes"/>
      <point x="131" y="449"/>
      <point x="136" y="458"/>
      <point x="135" y="467" type="curve" smooth="yes"/>
      <point x="132" y="500" type="line"/>
      <point x="64" y="500" type="line"/>
    </contour>
    <component base="inkstem_M" xScale="-1" yScale="-1" xOffset="204" yOffset="360"/>
    <component base="inkstem_S" xOffset="4"/>
    <component base="inkstem_S" xOffset="170" yOffset="217"/>
  </outline>
</glyph>
<glyph name="t" format="2">
  <advance width="308"/>
  <unicode hex="0074"/>
  <anchor x="188" y="0" name="bottom"/>
  <anchor x="224" y="500" name="topright"/>
  <outline>
    <contour>
      <point x="282" y="-4" type="curve"/>
      <point x="278" y="76" type="line"/>
      <point x="226" y="56"/>
      <point x="168" y="72"/>
      <point x="168" y="128" type="curve" smooth="yes"/>
      <point x="168" y="422" type="line"/>
      <point x="280" y="422" type="line"/>
      <point x="280" y="500" type="line"/>
      <point x="220" y="500" type="line" smooth="yes"/>
      <point x="208" y="500"/>
      <point x="198" y="494"/>
      <point x="192" y="485" type="curve" smooth="yes"/>
      <point x="187" y="477"/>
      <point x="178" y="472"/>
      <point x="168" y="472" type="curve" smooth="yes"/>
      <point x="152" y="472"/>
      <point x="140" y="484"/>
      <point x="140" y="500" type="curve" smooth="yes"/>
      <point x="140" y="510"/>
      <point x="145" y="519"/>
      <point x="153" y="524" type="curve" smooth="yes"/>
      <point x="162" y="530"/>
      <point x="168" y="540"/>
      <point x="168" y="552" type="curve" smooth="yes"/>
      <point x="168" y="628" type="line"/>
      <point x="92" y="628" type="line"/>
      <point x="92" y="562" type="line" smooth="yes"/>
      <point x="92" y="524"/>
      <point x="71" y="500"/>
      <point x="38" y="500" type="curve" smooth="yes"/>
      <point x="8" y="500" type="line"/>
      <point x="8" y="422" type="line"/>
      <point x="36" y="422" type="line" smooth="yes"/>
      <point x="48" y="422"/>
      <point x="58" y="428"/>
      <point x="64" y="437" type="curve" smooth="yes"/>
      <point x="69" y="445"/>
      <point x="78" y="450"/>
      <point x="88" y="450" type="curve" smooth="yes"/>
      <point x="104" y="450"/>
      <point x="116" y="438"/>
      <point x="116" y="422" type="curve" smooth="yes"/>
      <point x="116" y="412"/>
      <point x="111" y="403"/>
      <point x="103" y="398" type="curve" smooth="yes"/>
      <point x="94" y="392"/>
      <point x="88" y="382"/>
      <point x="88" y="370" type="curve" smooth="yes"/>
      <point x="88" y="108" type="line" smooth="yes"/>
      <point x="88" y="-4"/>
      <point x="198" y="-28"/>
    </contour>
    <component base="inkstem_M" xOffset="29" yOffset="-2"/>
    <component base="inkstem_S" xOffset="124" yOffset="-222"/>
    <component base="inkstem_S" xOffset="29" yOffset="-142"/>
  </outline>
</glyph>
<glyph name="u" format="2">
  <advance width="548"/>
  <unicode hex="0075"/>
  <anchor x="472" y="0" name="ogonek"/>
  <anchor x="272" y="500" name="top"/>
  <outline>
    <contour>
      <point x="246" y="-12" type="curve" smooth="yes"/>
      <point x="303" y="-12"/>
      <point x="351" y="6"/>
      <point x="381" y="42" type="curve" smooth="yes"/>
      <point x="392" y="55"/>
      <point x="382" y="68"/>
      <point x="382" y="80" type="curve" smooth="yes"/>
      <point x="382" y="96"/>
      <point x="394" y="108"/>
      <point x="410" y="108" type="curve" smooth="yes"/>
      <point x="426" y="108"/>
      <point x="438" y="96"/>
      <point x="438" y="80" type="curve" smooth="yes"/>
      <point x="438" y="70"/>
      <point x="433" y="61"/>
      <point x="422" y="55" type="curve" smooth="yes"/>
      <point x="415" y="51"/>
      <point x="410" y="42"/>
      <point x="411" y="33" type="curve" smooth="yes"/>
      <point x="416" y="0" type="line"/>
      <point x="486" y="0" type="line"/>
      <point x="484" y="100" type="line"/>
      <point x="484" y="500" type="line"/>
      <point x="404" y="500" type="line"/>
      <point x="404" y="212" type="line" smooth="yes"/>
      <point x="404" y="129"/>
      <point x="346" y="70"/>
      <point x="264" y="70" type="curve" smooth="yes"/>
      <point x="187" y="70"/>
      <point x="132" y="123"/>
      <point x="132" y="196" type="curve" smooth="yes"/>
      <point x="132" y="500" type="line"/>
      <point x="52" y="500" type="line"/>
      <point x="52" y="184" type="line" smooth="yes"/>
      <point x="52" y="68"/>
      <point x="132" y="-12"/>
    </contour>
    <component base="inkcurve_L" xScale="0" xyScale="1" yScale="0" yxScale="1" xOffset="-20" yOffset="-72"/>
    <component base="inkstem_M" xOffset="-8" yOffset="-2"/>
    <component base="inkstem_S" xOffset="-8" yOffset="194"/>
    <component base="inkstem_M" xOffset="344" yOffset="140"/>
    <component base="inkstem_S" xOffset="344"/>
    <component base="inkstem_S" xOffset="16" yOffset="-148"/>
  </outline>
</glyph>
<glyph name="v" format="2">
  <advance width="478"/>
  <unicode hex="0076"/>
  <outline>
    <contour>
      <point x="194" y="0" type="line"/>
      <point x="288" y="0" type="line"/>
      <point x="476" y="500" type="line"/>
      <point x="386" y="500" type="line"/>
      <point x="255" y="132" type="line" smooth="yes"/>
      <point x="252" y="125"/>
      <point x="254" y="118"/>
      <point x="260" y="113" type="curve" smooth="yes"/>
      <point x="266" y="108"/>
      <point x="269" y="101"/>
      <point x="269" y="92" type="curve" smooth="yes"/>
      <point x="269" y="76"/>
      <point x="257" y="64"/>
      <point x="241" y="64" type="curve" smooth="yes"/>
      <point x="225" y="64"/>
      <point x="213" y="76"/>
      <point x="213" y="92" type="curve" smooth="yes"/>
      <point x="213" y="101"/>
      <point x="216" y="108"/>
      <point x="222" y="113" type="curve" smooth="yes"/>
      <point x="228" y="118"/>
      <point x="230" y="125"/>
      <point x="227" y="132" type="curve" smooth="yes"/>
      <point x="96" y="500" type="line"/>
      <point x="2" y="500" type="line"/>
    </contour>
    <component base="inkstem_S" xOffset="-31" yOffset="194"/>
    <component base="inkstem_S" xOffset="310" yOffset="194"/>
    <component base="inkstem_M" xScale="0.9336" xyScale="0.3584" yScale="0.9336" yxScale="-0.3584" xOffset="138" yOffset="-19"/>
    <component base="inkstem_M" xScale="0.9453" xyScale="-0.3261" yScale="0.9453" yxScale="0.3261" xOffset="163" yOffset="46"/>
  </outline>
</glyph>
<glyph name="w" format="2">
  <advance width="628"/>
  <unicode hex="0077"/>
  <outline>
    <contour>
      <point x="104" y="0" type="line"/>
      <point x="204" y="0" type="line"/>
      <point x="302" y="350" type="line" smooth="yes"/>
      <point x="304" y="359"/>
      <point x="301" y="366"/>
      <point x="295" y="371" type="curve" smooth="yes"/>
      <point x="289" y="376"/>
      <point x="286" y="384"/>
      <point x="286" y="392" type="curve" smooth="yes"/>
      <point x="286" y="408"/>
      <point x="298" y="420"/>
      <point x="314" y="420" type="curve" smooth="yes"/>
      <point x="330" y="420"/>
      <point x="342" y="408"/>
      <point x="342" y="392" type="curve" smooth="yes"/>
      <point x="342" y="383"/>
      <point x="339" y="376"/>
      <point x="333" y="371" type="curve" smooth="yes"/>
      <point x="327" y="365"/>
      <point x="323" y="358"/>
      <point x="326" y="348" type="curve" smooth="yes"/>
      <point x="420" y="0" type="line"/>
      <point x="516" y="0" type="line"/>
      <point x="604" y="500" type="line"/>
      <point x="524" y="500" type="line"/>
      <point x="471" y="149" type="line" smooth="yes"/>
      <point x="470" y="142"/>
      <point x="474" y="136"/>
      <point x="480" y="132" type="curve" smooth="yes"/>
      <point x="488" y="127"/>
      <point x="493" y="118"/>
      <point x="493" y="108" type="curve" smooth="yes"/>
      <point x="493" y="92"/>
      <point x="481" y="80"/>
      <point x="465" y="80" type="curve" smooth="yes"/>
      <point x="449" y="80"/>
      <point x="437" y="92"/>
      <point x="437" y="108" type="curve" smooth="yes"/>
      <point x="437" y="115"/>
      <point x="440" y="123"/>
      <point x="445" y="128" type="curve" smooth="yes"/>
      <point x="452" y="135"/>
      <point x="454" y="145"/>
      <point x="451" y="155" type="curve" smooth="yes"/>
      <point x="360" y="500" type="line"/>
      <point x="272" y="500" type="line"/>
      <point x="176" y="155" type="line" smooth="yes"/>
      <point x="173" y="145"/>
      <point x="175" y="135"/>
      <point x="182" y="128" type="curve" smooth="yes"/>
      <point x="187" y="123"/>
      <point x="190" y="115"/>
      <point x="190" y="108" type="curve" smooth="yes"/>
      <point x="190" y="92"/>
      <point x="178" y="80"/>
      <point x="162" y="80" type="curve" smooth="yes"/>
      <point x="146" y="80"/>
      <point x="134" y="92"/>
      <point x="134" y="108" type="curve" smooth="yes"/>
      <point x="134" y="118"/>
      <point x="139" y="127"/>
      <point x="147" y="132" type="curve" smooth="yes"/>
      <point x="153" y="136"/>
      <point x="157" y="142"/>
      <point x="156" y="149" type="curve" smooth="yes"/>
      <point x="108" y="500" type="line"/>
      <point x="24" y="500" type="line"/>
    </contour>
    <component base="inkstem_S" xOffset="-26" yOffset="194"/>
    <component base="inkstem_S" xOffset="454" yOffset="194"/>
    <component base="inkstem_M" xScale="0.991" xyScale="0.1335" yScale="0.991" yxScale="-0.1335" xOffset="37" yOffset="-13"/>
    <component base="inkstem_M" xScale="0.9849" xyScale="-0.173" yScale="0.9849" yxScale="0.173" xOffset="381" yOffset="19"/>
    <component base="inkstem_S" xOffset="130" yOffset="-28"/>
    <component base="inkstem_S" xOffset="296" yOffset="-28"/>
  </outline>
</glyph>
<glyph name="x" format="2">
  <advance width="484"/>
  <unicode hex="0078"/>
  <outline>
    <contour>
      <point x="2" y="0" type="line"/>
      <point x="106" y="0" type="line"/>
      <point x="216" y="153" type="line" smooth="yes"/>
      <point x="229" y="171"/>
      <point x="214" y="172"/>
      <point x="214" y="190" type="curve" smooth="yes"/>
      <point x="214" y="206"/>
      <point x="226" y="218"/>
      <point x="242" y="218" type="curve" smooth="yes"/>
      <point x="258" y="218"/>
      <point x="270" y="206"/>
      <point x="270" y="190" type="curve" smooth="yes"/>
      <point x="270" y="172"/>
      <point x="256" y="171"/>
      <point x="270" y="153" type="curve" smooth="yes"/>
      <point x="384" y="0" type="line"/>
      <point x="482" y="0" type="line"/>
      <point x="290" y="256" type="line"/>
      <point x="466" y="500" type="line"/>
      <point x="366" y="500" type="line"/>
      <point x="268" y="361" type="line" smooth="yes"/>
      <point x="256" y="343"/>
      <point x="270" y="342"/>
      <point x="270" y="324" type="curve" smooth="yes"/>
      <point x="270" y="308"/>
      <point x="258" y="296"/>
      <point x="242" y="296" type="curve" smooth="yes"/>
      <point x="226" y="296"/>
      <point x="214" y="308"/>
      <point x="214" y="324" type="curve" smooth="yes"/>
      <point x="214" y="342"/>
      <point x="228" y="343"/>
      <point x="214" y="361" type="curve" smooth="yes"/>
      <point x="110" y="500" type="line"/>
      <point x="10" y="500" type="line"/>
      <point x="192" y="256" type="line"/>
    </contour>
    <component base="inkstem_S" xOffset="-6" yOffset="-194"/>
    <component base="inkstem_S" xOffset="290" yOffset="-194"/>
    <component base="inkstem_M" xScale="0.8003" xyScale="0.5997" yScale="0.8003" yxScale="-0.5997" xOffset="208" yOffset="136"/>
    <component base="inkstem_M" xScale="0.8155" xyScale="-0.5787" yScale="0.8155" yxScale="0.5787" xOffset="114" yOffset="249"/>
  </outline>
</glyph>
<glyph name="y" format="2">
  <advance width="472"/>
  <unicode hex="0079"/>
  <anchor x="240" y="500" name="top"/>
  <outline>
    <contour>
      <point x="96" y="-212" type="line"/>
      <point x="164" y="-204"/>
      <point x="219" y="-152"/>
      <point x="250" y="-72" type="curve" smooth="yes"/>
      <point x="470" y="500" type="line"/>
      <point x="378" y="500" type="line"/>
      <point x="256" y="156" type="line" smooth="yes"/>
      <point x="254" y="149"/>
      <point x="256" y="142"/>
      <point x="262" y="136" type="curve" smooth="yes"/>
      <point x="267" y="131"/>
      <point x="270" y="124"/>
      <point x="270" y="116" type="curve" smooth="yes"/>
      <point x="270" y="100"/>
      <point x="258" y="88"/>
      <point x="242" y="88" type="curve" smooth="yes"/>
      <point x="226" y="88"/>
      <point x="214" y="100"/>
      <point x="214" y="116" type="curve" smooth="yes"/>
      <point x="214" y="124"/>
      <point x="217" y="131"/>
      <point x="222" y="136" type="curve" smooth="yes"/>
      <point x="228" y="142"/>
      <point x="229" y="150"/>
      <point x="227" y="156" type="curve" smooth="yes"/>
      <point x="96" y="500" type="line"/>
      <point x="2" y="500" type="line"/>
      <point x="198" y="16" type="line"/>
      <point x="170" y="-56" type="line" smooth="yes"/>
      <point x="152" y="-102"/>
      <point x="118" y="-124"/>
      <point x="74" y="-128" type="curve"/>
    </contour>
    <component base="inkstem_S" xOffset="-29" yOffset="194"/>
    <component base="inkstem_S" xOffset="303" yOffset="194"/>
    <component base="inkstem_S" xOffset="38" yOffset="-402"/>
    <component base="inkstem_M" xScale="0.9336" xyScale="0.3584" yScale="0.9336" yxScale="-0.3584" xOffset="143" yOffset="-19"/>
    <component base="inkstem_M" xScale="0.9453" xyScale="-0.3261" yScale="0.9453" yxScale="0.3261" xOffset="156" yOffset="46"/>
  </outline>
</glyph>
<glyph name="z" format="2">
  <advance width="472"/>
  <unicode hex="007A"/>
  <anchor x="240" y="500" name="top"/>
  <outline>
    <contour>
      <point x="32" y="0" type="line"/>
      <point x="440" y="0" type="line"/>
      <point x="440" y="80" type="line"/>
      <point x="175" y="80" type="line" smooth="yes"/>
      <point x="168" y="80"/>
      <point x="162" y="76"/>
      <point x="159" y="69" type="curve" smooth="yes"/>
      <point x="155" y="59"/>
      <point x="145" y="52"/>
      <point x="133" y="52" type="curve" smooth="yes"/>
      <point x="117" y="52"/>
      <point x="105" y="64"/>
      <point x="105" y="80" type="curve" smooth="yes"/>
      <point x="105" y="96"/>
      <point x="117" y="108"/>
      <point x="133" y="108" type="curve" smooth="yes"/>
      <point x="143" y="108"/>
      <point x="150" y="98"/>
      <point x="162" y="112" type="curve" smooth="yes"/>
      <point x="436" y="422" type="line"/>
      <point x="436" y="500" type="line"/>
      <point x="40" y="500" type="line"/>
      <point x="40" y="424" type="line"/>
      <point x="296" y="424" type="line" smooth="yes"/>
      <point x="303" y="424"/>
      <point x="309" y="428"/>
      <point x="312" y="435" type="curve" smooth="yes"/>
      <point x="316" y="445"/>
      <point x="326" y="452"/>
      <point x="338" y="452" type="curve" smooth="yes"/>
      <point x="354" y="452"/>
      <point x="366" y="440"/>
      <point x="366" y="424" type="curve" smooth="yes"/>
      <point x="366" y="408"/>
      <point x="354" y="396"/>
      <point x="338" y="396" type="curve" smooth="yes"/>
      <point x="328" y="396"/>
      <point x="321" y="406"/>
      <point x="309" y="392" type="curve" smooth="yes"/>
      <point x="32" y="82" type="line"/>
    </contour>
    <component base="inkstem_M" xScale="0" xyScale="-1" yScale="0" yxScale="1" xOffset="80" yOffset="140"/>
    <component base="inkstem_M" xScale="0" xyScale="-1" yScale="0" yxScale="1" xOffset="-156" yOffset="562"/>
    <component base="inkstem_L" xScale="0.7436" xyScale="-0.6687" yScale="0.7436" yxScale="0.6687" xOffset="-10" yOffset="129"/>
  </outline>
</glyph>
<glyph name="braceleft" format="2">
  <advance width="294"/>
  <unicode hex="007B"/>
  <outline>
    <contour>
      <point x="232" y="-200" type="curve" smooth="yes"/>
      <point x="292" y="-200" type="line"/>
      <point x="292" y="-120" type="line"/>
      <point x="244" y="-120" type="line" smooth="yes"/>
      <point x="207" y="-120"/>
      <point x="180" y="-88"/>
      <point x="180" y="-44" type="curve" smooth="yes"/>
      <point x="180" y="134" type="line" smooth="yes"/>
      <point x="180" y="172"/>
      <point x="165" y="206"/>
      <point x="142" y="225" type="curve" smooth="yes"/>
      <point x="116" y="246"/>
      <point x="118" y="218"/>
      <point x="92" y="218" type="curve" smooth="yes"/>
      <point x="76" y="218"/>
      <point x="64" y="230"/>
      <point x="64" y="246" type="curve" smooth="yes"/>
      <point x="64" y="262"/>
      <point x="76" y="274"/>
      <point x="92" y="274" type="curve" smooth="yes"/>
      <point x="118" y="274"/>
      <point x="116" y="248"/>
      <point x="142" y="270" type="curve" smooth="yes"/>
      <point x="166" y="291"/>
      <point x="180" y="323"/>
      <point x="180" y="359" type="curve" smooth="yes"/>
      <point x="180" y="526" type="line" smooth="yes"/>
      <point x="180" y="570"/>
      <point x="207" y="602"/>
      <point x="244" y="602" type="curve" smooth="yes"/>
      <point x="290" y="602" type="line"/>
      <point x="290" y="680" type="line"/>
      <point x="230" y="680" type="line" smooth="yes"/>
      <point x="155" y="680"/>
      <point x="100" y="616"/>
      <point x="100" y="528" type="curve" smooth="yes"/>
      <point x="100" y="364" type="line" smooth="yes"/>
      <point x="100" y="318"/>
      <point x="71" y="284"/>
      <point x="32" y="284" type="curve" smooth="yes"/>
      <point x="8" y="284" type="line"/>
      <point x="8" y="204" type="line"/>
      <point x="32" y="204" type="line" smooth="yes"/>
      <point x="71" y="204"/>
      <point x="100" y="170"/>
      <point x="100" y="124" type="curve" smooth="yes"/>
      <point x="100" y="-50" type="line" smooth="yes"/>
      <point x="100" y="-137"/>
      <point x="155" y="-200"/>
    </contour>
    <component base="inkstem_S" xOffset="134" yOffset="391"/>
    <component base="inkstem_S" xOffset="136" yOffset="-410"/>
    <component base="inkstem_M" xOffset="40" yOffset="-194"/>
    <component base="inkstem_M" xOffset="40" yOffset="140"/>
  </outline>
</glyph>
<glyph name="bar" format="2">
  <advance width="210"/>
  <unicode hex="007C"/>
  <outline>
    <contour>
      <point x="64" y="-200" type="line"/>
      <point x="146" y="-200" type="line"/>
      <point x="146" y="680" type="line"/>
      <point x="64" y="680" type="line"/>
    </contour>
    <component base="inkstem_L" xOffset="5" yOffset="-194"/>
    <component base="inkstem_M" xOffset="5" yOffset="320"/>
    <component base="inkstem_S" xOffset="5" yOffset="194"/>
    <component base="inkstem_S" xOffset="5" yOffset="-394"/>
  </outline>
</glyph>
<glyph name="cent" format="2">
  <advance width="532"/>
  <unicode hex="00A2"/>
  <outline>
    <contour>
      <point x="202" y="-142" type="line"/>
      <point x="223" y="-62" type="line" smooth="yes"/>
      <point x="229" y="-38"/>
      <point x="209" y="-27"/>
      <point x="209" y="-9" type="curve" smooth="yes"/>
      <point x="209" y="7"/>
      <point x="221" y="19"/>
      <point x="237" y="19" type="curve" smooth="yes"/>
      <point x="249" y="19"/>
      <point x="259" y="12"/>
      <point x="263" y="2" type="curve" smooth="yes"/>
      <point x="266" y="-6"/>
      <point x="274" y="-12"/>
      <point x="282" y="-12" type="curve" smooth="yes"/>
      <point x="396" y="-9"/>
      <point x="488" y="67"/>
      <point x="504" y="172" type="curve"/>
      <point x="416" y="200" type="line"/>
      <point x="408" y="120"/>
      <point x="352" y="68"/>
      <point x="276" y="68" type="curve" smooth="yes"/>
      <point x="270" y="68"/>
      <point x="264" y="68"/>
      <point x="258" y="69" type="curve"/>
      <point x="349" y="412" type="line"/>
      <point x="383" y="390"/>
      <point x="407" y="353"/>
      <point x="412" y="308" type="curve"/>
      <point x="496" y="336" type="line"/>
      <point x="485" y="407"/>
      <point x="437" y="464"/>
      <point x="370" y="493" type="curve"/>
      <point x="408" y="636" type="line"/>
      <point x="336" y="654" type="line"/>
      <point x="312" y="564" type="line" smooth="yes"/>
      <point x="306" y="540"/>
      <point x="326" y="529"/>
      <point x="326" y="511" type="curve" smooth="yes"/>
      <point x="326" y="495"/>
      <point x="314" y="483"/>
      <point x="298" y="483" type="curve" smooth="yes"/>
      <point x="287" y="483"/>
      <point x="277" y="489"/>
      <point x="273" y="498" type="curve" smooth="yes"/>
      <point x="268" y="507"/>
      <point x="263" y="513"/>
      <point x="249" y="511" type="curve"/>
      <point x="121" y="500"/>
      <point x="32" y="394"/>
      <point x="32" y="250" type="curve" smooth="yes"/>
      <point x="32" y="140"/>
      <point x="84" y="53"/>
      <point x="166" y="13" type="curve"/>
      <point x="130" y="-124" type="line"/>
    </contour>
    <contour>
      <point x="188" y="96" type="line"/>
      <point x="145" y="127"/>
      <point x="118" y="183"/>
      <point x="118" y="252" type="curve" smooth="yes"/>
      <point x="118" y="358"/>
      <point x="182" y="434"/>
      <point x="272" y="434" type="curve" smooth="yes"/>
      <point x="278" y="434" type="line"/>
    </contour>
    <component base="inkstem_S" xOffset="32" yOffset="-160"/>
    <component base="inkcurve_L" xOffset="-27" yOffset="-28"/>
    <component base="inkstem_S" xOffset="32" yOffset="158"/>
    <component base="inkstem_S" xOffset="342" yOffset="-119"/>
    <component base="inkstem_S" xOffset="334" yOffset="128"/>
    <component base="inkstem_M" xScale="0.9668" xyScale="-0.2556" yScale="0.9668" yxScale="0.2556" xOffset="100" yOffset="8"/>
  </outline>
</glyph>
<glyph name="sterling" format="2">
  <advance width="516"/>
  <unicode hex="00A3"/>
  <outline>
    <contour>
      <point x="36" y="0" type="line"/>
      <point x="488" y="0" type="line"/>
      <point x="488" y="82" type="line"/>
      <point x="222" y="82" type="line" smooth="yes"/>
      <point x="213" y="82"/>
      <point x="204" y="77"/>
      <point x="201" y="69" type="curve" smooth="yes"/>
      <point x="197" y="60"/>
      <point x="187" y="54"/>
      <point x="176" y="54" type="curve" smooth="yes"/>
      <point x="160" y="54"/>
      <point x="148" y="66"/>
      <point x="148" y="82" type="curve" smooth="yes"/>
      <point x="148" y="95"/>
      <point x="156" y="106"/>
      <point x="168" y="109" type="curve" smooth="yes"/>
      <point x="182" y="112"/>
      <point x="190" y="114"/>
      <point x="200" y="125" type="curve"/>
      <point x="218" y="148"/>
      <point x="230" y="172"/>
      <point x="236" y="199" type="curve" smooth="yes"/>
      <point x="239" y="215"/>
      <point x="231" y="222"/>
      <point x="222" y="228" type="curve" smooth="yes"/>
      <point x="214" y="233"/>
      <point x="209" y="242"/>
      <point x="209" y="252" type="curve" smooth="yes"/>
      <point x="209" y="268"/>
      <point x="221" y="280"/>
      <point x="237" y="280" type="curve" smooth="yes"/>
      <point x="247" y="280"/>
      <point x="256" y="275"/>
      <point x="261" y="267" type="curve" smooth="yes"/>
      <point x="267" y="258"/>
      <point x="277" y="252"/>
      <point x="289" y="252" type="curve" smooth="yes"/>
      <point x="392" y="252" type="line"/>
      <point x="428" y="332" type="line"/>
      <point x="207" y="332" type="line"/>
      <point x="178" y="374"/>
      <point x="140" y="409"/>
      <point x="140" y="468" type="curve" smooth="yes"/>
      <point x="140" y="535"/>
      <point x="190" y="582"/>
      <point x="260" y="582" type="curve" smooth="yes"/>
      <point x="333" y="582"/>
      <point x="384" y="525"/>
      <point x="384" y="444" type="curve"/>
      <point x="472" y="468" type="line"/>
      <point x="464" y="582"/>
      <point x="375" y="662"/>
      <point x="256" y="662" type="curve" smooth="yes"/>
      <point x="138" y="662"/>
      <point x="54" y="583"/>
      <point x="54" y="472" type="curve" smooth="yes"/>
      <point x="54" y="432"/>
      <point x="64" y="403"/>
      <point x="79" y="378" type="curve" smooth="yes"/>
      <point x="84" y="369"/>
      <point x="95" y="362"/>
      <point x="108" y="359" type="curve" smooth="yes"/>
      <point x="120" y="356"/>
      <point x="128" y="345"/>
      <point x="128" y="332" type="curve" smooth="yes"/>
      <point x="128" y="316"/>
      <point x="116" y="304"/>
      <point x="100" y="304" type="curve" smooth="yes"/>
      <point x="90" y="304"/>
      <point x="81" y="309"/>
      <point x="76" y="317" type="curve" smooth="yes"/>
      <point x="70" y="326"/>
      <point x="60" y="332"/>
      <point x="48" y="332" type="curve" smooth="yes"/>
      <point x="28" y="332" type="line"/>
      <point x="28" y="252" type="line"/>
      <point x="154" y="252" type="line"/>
      <point x="155" y="244"/>
      <point x="156" y="237"/>
      <point x="156" y="228" type="curve" smooth="yes"/>
      <point x="156" y="168"/>
      <point x="112" y="110"/>
      <point x="36" y="90" type="curve"/>
    </contour>
    <component base="inkstem_L" xScale="0" xyScale="-1" yScale="0" yxScale="1" xOffset="64" yOffset="141"/>
    <component base="inkcurve_L" xScale="0" xyScale="-1" yScale="0" yxScale="-1" xOffset="538" yOffset="721"/>
    <component base="inkstem_S" xOffset="318" yOffset="260"/>
    <component base="inkstem_S" yScale="-1" xOffset="9" yOffset="780"/>
  </outline>
</glyph>
<glyph name="currency" format="2">
  <advance width="600"/>
  <unicode hex="00A4"/>
  <outline>
    <contour>
      <point x="184" y="396" type="line"/>
      <point x="224" y="434" type="line"/>
      <point x="141" y="520" type="line"/>
      <point x="100" y="480" type="line"/>
    </contour>
    <contour>
      <point x="142" y="116" type="line"/>
      <point x="223" y="201" type="line"/>
      <point x="185" y="239" type="line"/>
      <point x="100" y="156" type="line"/>
    </contour>
    <contour>
      <point x="416" y="396" type="line"/>
      <point x="500" y="480" type="line"/>
      <point x="459" y="520" type="line"/>
      <point x="376" y="434" type="line"/>
    </contour>
    <contour>
      <point x="458" y="116" type="line"/>
      <point x="500" y="156" type="line"/>
      <point x="415" y="239" type="line"/>
      <point x="377" y="201" type="line"/>
    </contour>
    <component base="degree" xOffset="120" yOffset="-175"/>
  </outline>
</glyph>
<glyph name="yen" format="2">
  <advance width="572"/>
  <unicode hex="00A5"/>
  <outline>
    <contour>
      <point x="253" y="0" type="line"/>
      <point x="337" y="0" type="line"/>
      <point x="337" y="63" type="line"/>
      <point x="504" y="63" type="line"/>
      <point x="504" y="139" type="line"/>
      <point x="391" y="139" type="line" smooth="yes"/>
      <point x="379" y="139"/>
      <point x="369" y="133"/>
      <point x="363" y="124" type="curve" smooth="yes"/>
      <point x="358" y="116"/>
      <point x="349" y="111"/>
      <point x="339" y="111" type="curve" smooth="yes"/>
      <point x="323" y="111"/>
      <point x="311" y="123"/>
      <point x="311" y="139" type="curve" smooth="yes"/>
      <point x="311" y="149"/>
      <point x="316" y="158"/>
      <point x="324" y="163" type="curve" smooth="yes"/>
      <point x="330" y="167"/>
      <point x="334" y="172"/>
      <point x="337" y="179" type="curve"/>
      <point x="502" y="179" type="line"/>
      <point x="502" y="255" type="line"/>
      <point x="367" y="255" type="line"/>
      <point x="564" y="650" type="line"/>
      <point x="468" y="650" type="line"/>
      <point x="312" y="331" type="line" smooth="yes"/>
      <point x="310" y="326"/>
      <point x="311" y="320"/>
      <point x="316" y="315" type="curve" smooth="yes"/>
      <point x="320" y="310"/>
      <point x="323" y="303"/>
      <point x="323" y="296" type="curve" smooth="yes"/>
      <point x="323" y="280"/>
      <point x="311" y="268"/>
      <point x="295" y="268" type="curve" smooth="yes"/>
      <point x="279" y="268"/>
      <point x="267" y="280"/>
      <point x="267" y="296" type="curve" smooth="yes"/>
      <point x="267" y="303"/>
      <point x="270" y="310"/>
      <point x="274" y="315" type="curve" smooth="yes"/>
      <point x="278" y="320"/>
      <point x="279" y="326"/>
      <point x="276" y="331" type="curve" smooth="yes"/>
      <point x="106" y="650" type="line"/>
      <point x="8" y="650" type="line"/>
      <point x="221" y="255" type="line"/>
      <point x="74" y="255" type="line"/>
      <point x="74" y="179" type="line"/>
      <point x="199" y="179" type="line" smooth="yes"/>
      <point x="211" y="179"/>
      <point x="221" y="185"/>
      <point x="227" y="194" type="curve" smooth="yes"/>
      <point x="232" y="202"/>
      <point x="241" y="207"/>
      <point x="251" y="207" type="curve" smooth="yes"/>
      <point x="267" y="207"/>
      <point x="279" y="195"/>
      <point x="279" y="179" type="curve" smooth="yes"/>
      <point x="279" y="169"/>
      <point x="274" y="160"/>
      <point x="266" y="155" type="curve" smooth="yes"/>
      <point x="260" y="151"/>
      <point x="256" y="146"/>
      <point x="253" y="139" type="curve"/>
      <point x="72" y="139" type="line"/>
      <point x="72" y="63" type="line"/>
      <point x="201" y="63" type="line" smooth="yes"/>
      <point x="213" y="63"/>
      <point x="223" y="69"/>
      <point x="229" y="78" type="curve" smooth="yes"/>
      <point x="234" y="86"/>
      <point x="243" y="91"/>
      <point x="253" y="91" type="curve" smooth="yes"/>
      <point x="269" y="91"/>
      <point x="281" y="79"/>
      <point x="281" y="63" type="curve" smooth="yes"/>
      <point x="281" y="53"/>
      <point x="276" y="44"/>
      <point x="268" y="39" type="curve" smooth="yes"/>
      <point x="259" y="33"/>
      <point x="253" y="23"/>
      <point x="253" y="13" type="curve" smooth="yes"/>
    </contour>
    <component base="inkstem_M" xScale="0.8793" xyScale="0.4763" yScale="0.8793" yxScale="-0.4763" xOffset="236" yOffset="106"/>
    <component base="inkstem_S" xOffset="-13" yOffset="344"/>
    <component base="inkstem_M" xScale="-0.891" xyScale="0.454" yScale="0.891" yxScale="0.454" xOffset="354" yOffset="105"/>
    <component base="inkstem_S" xOffset="388" yOffset="344"/>
  </outline>
</glyph>
